<svg width="19" height="19" viewBox="0 0 19 19" fill="none" xmlns="http://www.w3.org/2000/svg">
<path d="M1.5835 17.416H17.4168" stroke="#475569" stroke-width="1.5" stroke-miterlimit="10" stroke-linecap="round" stroke-linejoin="round"/>
<path d="M2.33545 17.4176L2.37503 7.89387C2.37503 7.41096 2.60462 6.95183 2.98462 6.651L8.52628 2.33641C9.09628 1.89307 9.89587 1.89307 10.4738 2.33641L16.0155 6.64307C16.4034 6.94391 16.625 7.40304 16.625 7.89387V17.4176" stroke="#475569" stroke-width="1.5" stroke-miterlimit="10" stroke-linejoin="round"/>
<path d="M10.2918 13.459H8.7085C8.05141 13.459 7.521 13.9894 7.521 14.6465V17.4173H11.4793V14.6465C11.4793 13.9894 10.9489 13.459 10.2918 13.459Z" stroke="#475569" stroke-width="1.5" stroke-miterlimit="10" stroke-linejoin="round"/>
<path d="M7.521 10.8861H5.93766C5.50225 10.8861 5.146 10.5298 5.146 10.0944V8.9069C5.146 8.47148 5.50225 8.11523 5.93766 8.11523H7.521C7.95641 8.11523 8.31266 8.47148 8.31266 8.9069V10.0944C8.31266 10.5298 7.95641 10.8861 7.521 10.8861Z" stroke="#475569" stroke-width="1.5" stroke-miterlimit="10" stroke-linejoin="round"/>
<path d="M13.0625 10.8861H11.4792C11.0437 10.8861 10.6875 10.5298 10.6875 10.0944V8.9069C10.6875 8.47148 11.0437 8.11523 11.4792 8.11523H13.0625C13.4979 8.11523 13.8542 8.47148 13.8542 8.9069V10.0944C13.8542 10.5298 13.4979 10.8861 13.0625 10.8861Z" stroke="#475569" stroke-width="1.5" stroke-miterlimit="10" stroke-linejoin="round"/>
<path d="M15.0418 5.54102L15.018 3.16602H11.5347" stroke="#475569" stroke-width="1.5" stroke-miterlimit="10" stroke-linecap="round" stroke-linejoin="round"/>
</svg>
