<svg width="19" height="19" viewBox="0 0 19 19" fill="none" xmlns="http://www.w3.org/2000/svg">
<path d="M15.7227 6.40549C15.7227 6.73799 15.6989 7.06257 15.6593 7.37132C15.2952 7.21299 14.8993 7.12591 14.4798 7.12591C13.5139 7.12591 12.6589 7.59298 12.1285 8.30548C11.5902 7.59298 10.7352 7.12591 9.76933 7.12591C8.14641 7.12591 6.83225 8.44798 6.83225 10.0867C6.83225 12.2084 7.95642 13.8313 9.20725 14.9317C9.16767 14.9555 9.12809 14.9634 9.0885 14.9792C8.851 15.0663 8.45517 15.0663 8.21767 14.9792C6.16725 14.2747 1.5835 11.3613 1.5835 6.40549C1.5835 4.22049 3.34099 2.45508 5.51016 2.45508C6.80057 2.45508 7.94057 3.07257 8.65307 4.03049C9.37349 3.07257 10.5135 2.45508 11.796 2.45508C13.9652 2.45508 15.7227 4.22049 15.7227 6.40549Z" stroke="#475569" stroke-width="1.5" stroke-linecap="round" stroke-linejoin="round"/>
<path d="M17.4166 10.0858C17.4166 13.7908 13.9887 15.9758 12.4529 16.4983C12.2708 16.5617 11.9779 16.5617 11.7958 16.4983C11.1387 16.2767 10.1333 15.7462 9.20703 14.9308C7.9562 13.8304 6.83203 12.2075 6.83203 10.0858C6.83203 8.44708 8.14619 7.125 9.76911 7.125C10.7349 7.125 11.5899 7.59208 12.1283 8.30458C12.6587 7.59208 13.5137 7.125 14.4795 7.125C14.8991 7.125 15.2949 7.21208 15.6591 7.37041C16.6962 7.82958 17.4166 8.86666 17.4166 10.0858Z" stroke="#475569" stroke-width="1.5" stroke-linecap="round" stroke-linejoin="round"/>
</svg>
