<svg width="19" height="19" viewBox="0 0 19 19" fill="none" xmlns="http://www.w3.org/2000/svg">
<path d="M17.3611 5.35147L14.6932 16.0627C14.5032 16.8623 13.7907 17.4165 12.9673 17.4165H2.56482C1.3694 17.4165 0.514414 16.2448 0.870664 15.0968L4.20357 4.39359C4.43316 3.64942 5.12192 3.13477 5.89775 3.13477H15.6352C16.3873 3.13477 17.0127 3.59394 17.274 4.22727C17.4244 4.56769 17.4561 4.95564 17.3611 5.35147Z" stroke="#475569" stroke-width="1.5" stroke-miterlimit="10"/>
<path d="M12.6665 17.4167H16.4507C17.4719 17.4167 18.2715 16.5537 18.2002 15.5325L17.4165 4.75" stroke="#475569" stroke-width="1.5" stroke-miterlimit="10" stroke-linecap="round" stroke-linejoin="round"/>
<path d="M7.66309 5.05082L8.48643 1.63086" stroke="#475569" stroke-width="1.5" stroke-miterlimit="10" stroke-linecap="round" stroke-linejoin="round"/>
<path d="M12.9673 5.05885L13.7115 1.62305" stroke="#475569" stroke-width="1.5" stroke-miterlimit="10" stroke-linecap="round" stroke-linejoin="round"/>
<path d="M6.0957 9.5H12.429" stroke="#475569" stroke-width="1.5" stroke-miterlimit="10" stroke-linecap="round" stroke-linejoin="round"/>
<path d="M5.3042 12.666H11.6375" stroke="#475569" stroke-width="1.5" stroke-miterlimit="10" stroke-linecap="round" stroke-linejoin="round"/>
</svg>
