<svg width="19" height="19" viewBox="0 0 19 19" fill="none" xmlns="http://www.w3.org/2000/svg">
<path d="M16.6883 6.79318V12.2082C16.6883 13.0948 16.2133 13.9182 15.4454 14.3694L10.7429 17.0848C9.97496 17.5282 9.02496 17.5282 8.24913 17.0848L3.54663 14.3694C2.77871 13.9261 2.30371 13.1027 2.30371 12.2082V6.79318C2.30371 5.90651 2.77871 5.08315 3.54663 4.6319L8.24913 1.91648C9.01704 1.47315 9.96704 1.47315 10.7429 1.91648L15.4454 4.6319C16.2133 5.08315 16.6883 5.89859 16.6883 6.79318Z" stroke="#475569" stroke-width="1.5" stroke-linecap="round" stroke-linejoin="round"/>
<path d="M9.50034 8.70868C10.5191 8.70868 11.3449 7.88281 11.3449 6.86408C11.3449 5.84534 10.5191 5.01953 9.50034 5.01953C8.48161 5.01953 7.65576 5.84534 7.65576 6.86408C7.65576 7.88281 8.48161 8.70868 9.50034 8.70868Z" stroke="#475569" stroke-width="1.5" stroke-linecap="round" stroke-linejoin="round"/>
<path d="M12.6668 13.1902C12.6668 11.7652 11.2497 10.6094 9.50016 10.6094C7.75058 10.6094 6.3335 11.7652 6.3335 13.1902" stroke="#475569" stroke-width="1.5" stroke-linecap="round" stroke-linejoin="round"/>
</svg>
