<svg width="19" height="19" viewBox="0 0 19 19" fill="none" xmlns="http://www.w3.org/2000/svg">
<path d="M13.379 17.4173H5.62068C4.27484 17.4173 3.1665 16.3169 3.1665 14.9631V4.03816C3.1665 2.69232 4.26693 1.58398 5.62068 1.58398H13.379C14.7248 1.58398 15.8332 2.68441 15.8332 4.03816V14.9631C15.8332 16.3169 14.7327 17.4173 13.379 17.4173Z" stroke="#475569" stroke-width="1.5" stroke-linecap="round" stroke-linejoin="round"/>
<path d="M14.6457 10.2923H4.354C3.69692 10.2923 3.1665 9.7619 3.1665 9.10482V7.52148C3.1665 6.8644 3.69692 6.33398 4.354 6.33398H14.6457C15.3028 6.33398 15.8332 6.8644 15.8332 7.52148V9.10482C15.8332 9.7619 15.3028 10.2923 14.6457 10.2923Z" stroke="#475569" stroke-width="1.5" stroke-linecap="round" stroke-linejoin="round"/>
<path d="M6.72498 14.013H6.73209" stroke="#475569" stroke-width="2.5" stroke-linecap="round" stroke-linejoin="round"/>
<path d="M12.2665 14.013H12.2736" stroke="#475569" stroke-width="2.5" stroke-linecap="round" stroke-linejoin="round"/>
<path d="M7.521 3.95898H11.4793" stroke="#475569" stroke-width="1.5" stroke-linecap="round" stroke-linejoin="round"/>
</svg>
