<svg width="105" height="188" viewBox="0 0 105 188" fill="none" xmlns="http://www.w3.org/2000/svg">
<path d="M16.9623 158.668C21.6433 158.668 25.4208 159.99 28.2896 162.629C31.1584 165.268 32.5928 168.729 32.5928 173.012C32.5928 177.295 31.1584 180.756 28.2896 183.395C25.4208 186.034 21.6433 187.356 16.9623 187.356H4.84375V158.668H16.9623ZM16.365 180.419C18.7336 180.419 20.6479 179.735 22.1027 178.362C23.5575 176.994 24.2875 175.207 24.2875 173.012C24.2875 170.817 23.5575 169.031 22.1027 167.657C20.6479 166.289 18.7336 165.6 16.365 165.6H13.0674V180.414H16.365V180.419Z" fill="#2B6DDD"/>
<path d="M59.5247 187.356H51.5206V185.6C49.9228 187.198 47.8095 188 45.1856 188C42.1892 188 39.6981 186.938 37.7124 184.809C35.7266 182.681 34.7363 179.934 34.7363 176.565C34.7363 173.196 35.7266 170.409 37.7124 168.28C39.6981 166.152 42.1892 165.09 45.1856 165.09C47.8095 165.09 49.9228 165.891 51.5206 167.489V165.733H59.5247V187.356ZM50.2342 179.95C51.0917 179.036 51.5206 177.908 51.5206 176.565C51.5206 175.223 51.0917 174.054 50.2342 173.14C49.3766 172.226 48.3352 171.772 47.1101 171.772C45.7982 171.772 44.7415 172.221 43.9401 173.12C43.1387 174.018 42.7405 175.167 42.7405 176.565C42.7405 177.964 43.1387 179.072 43.9401 179.97C44.7415 180.868 45.7931 181.318 47.1101 181.318C48.3352 181.318 49.3817 180.863 50.2342 179.95Z" fill="#2B6DDD"/>
<path d="M80.2922 165.605L79.991 173.87H78.7047C76.3922 173.87 74.6209 174.406 73.3958 175.478C72.1655 176.55 71.553 178.326 71.553 180.807V187.356H63.5488V165.733H71.553V170.016C73.1507 166.989 75.55 165.478 78.7455 165.478C79.404 165.478 79.9145 165.518 80.2871 165.605H80.2922Z" fill="#2B6DDD"/>
<path d="M89.0716 180.251C89.4442 181.649 90.5111 182.349 92.2824 182.349C92.997 182.349 93.5535 182.226 93.9516 181.986C94.3498 181.741 94.5489 181.435 94.5489 181.067C94.5489 180.409 93.8904 179.985 92.5785 179.781L88.2548 179.051C83.972 178.28 81.8331 176.141 81.8331 172.629C81.8331 170.317 82.7468 168.484 84.5743 167.126C86.4018 165.769 88.7142 165.095 91.5116 165.095C94.309 165.095 96.6367 165.621 98.4029 166.677C100.174 167.734 101.313 169.219 101.828 171.128L94.6357 172.542C94.5489 172.001 94.2273 171.506 93.6709 171.067C93.1145 170.623 92.41 170.404 91.5524 170.404C90.2099 170.404 89.5412 170.832 89.5412 171.69C89.5412 172.262 90.0108 172.645 90.9552 172.844L95.8812 173.829C98.0201 174.227 99.6229 175.018 100.675 176.203C101.731 177.387 102.257 178.877 102.257 180.679C102.257 182.992 101.307 184.789 99.4086 186.075C97.5096 187.361 95.0747 187.999 92.1089 187.999C89.143 187.999 86.8714 187.479 84.9572 186.437C83.0429 185.396 81.8586 183.834 81.4043 181.751L89.0664 180.251H89.0716Z" fill="#2B6DDD"/>
<path d="M13.1409 140.501C18.2354 140.511 25.234 140.94 32.2682 142.686C32.304 142.625 32.3397 142.563 32.3703 142.507C36.3111 135.999 38.5674 124.636 38.5674 111.328C38.5674 110.863 38.5674 110.343 38.5725 109.766C38.5878 106.555 38.6134 101.808 38.2305 96.5956C29.7261 92.6548 19.5729 91.8891 13.1205 91.8789H13.1103C12.0689 91.8789 11.0838 92.175 10.3436 92.711C9.59318 93.2521 9.17969 93.9718 9.17969 94.7426V137.642C9.17969 139.22 10.9561 140.496 13.1409 140.501Z" fill="#2B6DDD"/>
<path d="M94.4557 94.293V139.965C94.4557 141.537 92.6792 142.823 90.4995 142.823C86.0227 142.833 79.2233 143.165 72.1992 144.431C72.8169 145.672 73.4141 146.769 73.9655 147.678L74.7413 148.964C82.1176 147.663 89.208 147.315 93.9758 147.31C96.3546 147.31 99.4787 145.907 99.4787 144.191V97.4017C99.4787 96.3399 96.1147 94.4257 94.4557 94.2981V94.293Z" fill="#2B6DDD"/>
<path d="M29.6635 148.607C30.1535 147.402 30.6691 146.126 31.149 145.023C23.1091 143.262 14.9671 142.828 9.85729 142.823C7.67248 142.823 5.89605 141.537 5.89605 139.965V94.293C4.23702 94.4206 0.873047 96.3348 0.873047 97.3966V144.186C0.873047 145.901 3.99711 147.3 6.381 147.305C11.9196 147.315 20.6027 147.785 29.2245 149.674L29.6584 148.607H29.6635Z" fill="#2B6DDD"/>
<path d="M91.1731 137.642V94.7426C91.1731 93.9718 90.7597 93.2521 90.0093 92.711C89.264 92.175 88.2839 91.8789 87.2425 91.8789H87.2323C81.5202 91.8891 72.9137 92.4864 65.1137 95.3552C64.3276 101.302 63.9805 107.249 63.9805 112.073C63.9805 122.813 67.6252 134.37 71.0658 142.022C77.0689 140.828 82.8423 140.506 87.217 140.501C89.4018 140.501 91.1731 139.215 91.1731 137.642Z" fill="#2B6DDD"/>
<path d="M35.8553 83.8439C36.667 77.5039 24.0839 71.807 19.7552 80.2655C26.1003 77.56 28.3821 89.3314 34.7527 85.1099C34.7527 85.1099 31.6542 79.9439 28.6271 78.9587C28.6271 78.9587 32.7057 79.2956 35.8553 83.8439ZM45.4981 47.1463C48.7957 39.0962 34.2627 27.1818 25.6 36.7735C34.8906 35.4514 33.7471 51.7252 43.5992 48.4224C43.5992 48.4224 41.348 40.5408 37.7135 38.1824C37.7135 38.1824 42.956 40.061 45.493 47.1514L45.4981 47.1463ZM68.8112 40.1426C69.7045 33.5627 83.8548 31.235 85.9171 40.8777C80.2815 36.4622 74.8297 47.6516 69.5769 41.7098C69.5769 41.7098 74.0691 37.3606 77.3718 37.187C77.3718 37.187 73.191 36.4264 68.8061 40.1477L68.8112 40.1426ZM55.7994 40.3162C58.2445 34.3488 47.4685 25.5075 41.0417 32.6234C47.9331 31.6433 47.0857 43.7108 54.3956 41.2606C54.3956 41.2606 52.7264 35.4157 50.0311 33.6648C50.0311 33.6648 53.9209 35.0584 55.8045 40.3162H55.7994ZM16.6311 56.7533C15.7633 50.3622 2.01125 48.0957 0 57.468C5.47733 53.1749 10.776 64.053 15.8807 58.2745C15.8807 58.2745 11.5111 54.0478 8.30023 53.8794C8.30023 53.8794 12.3636 53.1392 16.626 56.7533H16.6311ZM86.4071 77.8918C87.3004 71.3119 101.451 68.9841 103.518 78.6269C97.8824 74.2062 92.4306 85.4008 87.1779 79.459C87.1779 79.459 91.67 75.1098 94.9779 74.9362C94.9779 74.9362 90.7971 74.1756 86.4122 77.8969L86.4071 77.8918ZM67.4074 81.6846C68.3008 75.1047 82.451 72.7769 84.5133 82.4197C78.8777 77.999 73.4259 89.1936 68.1731 83.2518C68.1731 83.2518 72.6653 78.9026 75.9731 78.729C75.9731 78.729 71.7924 77.9684 67.4074 81.6897V81.6846ZM59.0613 33.6291C57.9331 24.7928 75.4678 16.8601 81.4913 28.6418C72.65 24.8694 69.4697 41.2708 60.5978 35.3953C60.5978 35.3953 64.9112 28.1926 69.1328 26.8245C69.1328 26.8245 63.4513 27.2941 59.0562 33.6342L59.0613 33.6291ZM25.3397 34.7827C24.3443 27.4422 8.55035 24.8439 6.24303 35.6046C12.532 30.6734 18.6168 43.1646 24.4821 36.5285C24.4821 36.5285 19.4642 31.674 15.7786 31.48C15.7786 31.48 20.4443 30.6326 25.3397 34.7827ZM56.4783 28.3202C60.9245 22.4804 51.6799 9.59617 42.5272 15.5227C50.3884 16.4722 45.9014 29.484 54.6508 28.9481C54.6508 28.9481 54.5385 22.0363 52.0934 19.3155C52.0934 19.3155 55.9576 21.9904 56.4783 28.3253V28.3202ZM40.1331 28.3457C40.9498 21.9444 28.2545 16.2016 23.8848 24.7316C30.2861 22.0006 32.5934 33.8792 39.0151 29.6219C39.0151 29.6219 35.8911 24.4049 32.8334 23.4146C32.8334 23.4146 36.9529 23.7515 40.128 28.3457H40.1331ZM87.3106 40.6378C88.2039 34.0578 102.354 31.7301 104.422 41.3729C98.786 36.9522 93.3342 48.1468 88.0814 42.2049C88.0814 42.2049 92.5736 37.8557 95.8814 37.6822C95.8814 37.6822 91.7007 36.9216 87.3157 40.6429L87.3106 40.6378ZM20.9395 75.9061C20.1329 69.9591 7.34053 67.856 5.47221 76.5697C10.5667 72.5779 15.4978 82.6902 20.2452 77.3201C20.2452 77.3201 16.1819 73.3895 13.1956 73.2313C13.1956 73.2313 16.9731 72.5421 20.9395 75.9061ZM61.68 112.073C61.68 126.749 68.1476 142.502 71.9965 148.867C68.3875 151.277 59.3675 151.251 50.4292 157.699C50.2455 157.831 50.0005 157.806 49.8422 157.648C48.5099 156.279 38.8926 153.16 31.5368 150.098C32.0268 148.903 33.594 144.922 34.329 143.707C38.178 137.341 40.8579 126.014 40.8579 111.338C40.8579 101.675 42.0831 65.4058 21.3682 64.5635C25.697 64.7932 31.5878 70.49 31.5878 70.49C24.7067 78.2798 17.5601 63.614 10.1736 69.4027C17.7388 56.9575 31.1897 60.6533 36.3658 70.0714C37.836 60.5716 33.6603 47.5189 22.4198 46.595C27.6725 48.2999 33.0325 57.2536 33.0325 57.2536C22.0012 64.5635 18.0451 44.1702 7.05469 48.8615C25.3346 34.7878 45.2939 50.2703 40.3934 75.9878C40.3934 75.9878 43.2265 80.2451 44.2423 83.3692C43.4205 69.8264 42.4761 65.0076 42.4659 64.9259C46.9427 67.9938 50.2046 79.8827 51.588 94.0686C52.272 87.6979 53.2828 81.4957 54.5385 75.8653C35.9881 58.3 51.9096 34.0272 67.0093 42.7613C59.7198 41.7251 60.6182 54.4919 52.8846 51.8987C52.8846 51.8987 54.6508 45.717 57.5044 43.8589C49.0867 46.8757 47.6421 60.5052 56.075 69.7141C58.3568 61.5262 61.1899 55.1504 64.263 52.1846C64.2528 52.2305 63.6147 55.2832 62.7162 60.296C65.876 55.3699 71.6341 52.6185 76.5346 52.0978C79.5362 51.0105 83.0635 50.1427 85.7282 50.7094C85.7282 50.7094 78.944 47.5036 69.7658 51.8426C74.2937 41.0309 99.4904 43.5271 98.6073 60.9187C91.4863 51.4393 78.3672 65.4415 71.6137 56.8809C67.7545 59.6119 64.5386 63.9152 65.6923 70.4951C69.2196 61.5772 83.3034 57.1055 91.7211 70.6891C84.3346 64.9004 77.1931 79.5662 70.3069 71.7764C70.3069 71.7764 76.1926 66.0745 80.5214 65.8499C63.63 62.782 61.6698 102.69 61.6698 112.088L61.68 112.073Z" fill="#2B6DDD"/>
</svg>
