<svg width="105" height="144" viewBox="0 0 105 144" fill="none" xmlns="http://www.w3.org/2000/svg">
<path d="M13.1409 126.501C18.2354 126.511 25.234 126.94 32.2682 128.686C32.304 128.625 32.3397 128.563 32.3703 128.507C36.3111 121.999 38.5674 110.636 38.5674 97.3278C38.5674 96.8633 38.5674 96.3426 38.5725 95.7657C38.5878 92.5549 38.6134 87.8075 38.2305 82.5956C29.7261 78.6548 19.5729 77.8891 13.1205 77.8789H13.1103C12.0689 77.8789 11.0838 78.175 10.3436 78.711C9.59318 79.2521 9.17969 79.9718 9.17969 80.7426V123.642C9.17969 125.22 10.9561 126.496 13.1409 126.501Z" fill="#2B6DDD"/>
<path d="M94.4557 80.293V125.965C94.4557 127.537 92.6792 128.823 90.4995 128.823C86.0227 128.833 79.2233 129.165 72.1992 130.431C72.8169 131.672 73.4141 132.769 73.9655 133.678L74.7413 134.964C82.1176 133.663 89.208 133.315 93.9758 133.31C96.3546 133.31 99.4787 131.907 99.4787 130.191V83.4017C99.4787 82.3399 96.1147 80.4257 94.4557 80.2981V80.293Z" fill="#2B6DDD"/>
<path d="M29.6635 134.607C30.1535 133.402 30.6691 132.126 31.149 131.023C23.1091 129.262 14.9671 128.828 9.85729 128.823C7.67248 128.823 5.89605 127.537 5.89605 125.965V80.293C4.23702 80.4206 0.873047 82.3348 0.873047 83.3966V130.186C0.873047 131.901 3.99711 133.3 6.381 133.305C11.9196 133.315 20.6027 133.785 29.2245 135.674L29.6584 134.607H29.6635Z" fill="#2B6DDD"/>
<path d="M91.1731 123.642V80.7426C91.1731 79.9718 90.7597 79.2521 90.0093 78.711C89.264 78.175 88.2839 77.8789 87.2425 77.8789H87.2323C81.5202 77.8891 72.9137 78.4864 65.1137 81.3552C64.3276 87.3022 63.9805 93.2491 63.9805 98.0731C63.9805 108.813 67.6252 120.37 71.0658 128.022C77.0689 126.828 82.8423 126.506 87.217 126.501C89.4018 126.501 91.1731 125.215 91.1731 123.642Z" fill="#2B6DDD"/>
<path d="M35.8553 69.8439C36.667 63.5039 24.0839 57.807 19.7552 66.2655C26.1003 63.56 28.3821 75.3314 34.7527 71.1099C34.7527 71.1099 31.6542 65.9439 28.6271 64.9587C28.6271 64.9587 32.7057 65.2956 35.8553 69.8439ZM45.4981 33.1463C48.7957 25.0962 34.2627 13.1818 25.6 22.7735C34.8906 21.4514 33.7471 37.7252 43.5992 34.4224C43.5992 34.4224 41.348 26.5408 37.7135 24.1824C37.7135 24.1824 42.956 26.061 45.493 33.1514L45.4981 33.1463ZM68.8112 26.1426C69.7045 19.5627 83.8548 17.235 85.9171 26.8777C80.2815 22.4622 74.8297 33.6516 69.5769 27.7098C69.5769 27.7098 74.0691 23.3606 77.3718 23.187C77.3718 23.187 73.191 22.4264 68.8061 26.1477L68.8112 26.1426ZM55.7994 26.3162C58.2445 20.3488 47.4685 11.5075 41.0417 18.6234C47.9331 17.6433 47.0857 29.7108 54.3956 27.2606C54.3956 27.2606 52.7264 21.4157 50.0311 19.6648C50.0311 19.6648 53.9209 21.0584 55.8045 26.3162H55.7994ZM16.6311 42.7533C15.7633 36.3622 2.01125 34.0957 0 43.468C5.47733 39.1749 10.776 50.053 15.8807 44.2745C15.8807 44.2745 11.5111 40.0478 8.30023 39.8794C8.30023 39.8794 12.3636 39.1392 16.626 42.7533H16.6311ZM86.4071 63.8918C87.3004 57.3119 101.451 54.9841 103.518 64.6269C97.8824 60.2062 92.4306 71.4008 87.1779 65.459C87.1779 65.459 91.67 61.1098 94.9779 60.9362C94.9779 60.9362 90.7971 60.1756 86.4122 63.8969L86.4071 63.8918ZM67.4074 67.6846C68.3008 61.1047 82.451 58.7769 84.5133 68.4197C78.8777 63.999 73.4259 75.1936 68.1731 69.2518C68.1731 69.2518 72.6653 64.9026 75.9731 64.729C75.9731 64.729 71.7924 63.9684 67.4074 67.6897V67.6846ZM59.0613 19.6291C57.9331 10.7928 75.4678 2.86014 81.4913 14.6418C72.65 10.8694 69.4697 27.2708 60.5978 21.3953C60.5978 21.3953 64.9112 14.1926 69.1328 12.8245C69.1328 12.8245 63.4513 13.2941 59.0562 19.6342L59.0613 19.6291ZM25.3397 20.7827C24.3443 13.4422 8.55035 10.8439 6.24303 21.6046C12.532 16.6734 18.6168 29.1646 24.4821 22.5285C24.4821 22.5285 19.4642 17.674 15.7786 17.48C15.7786 17.48 20.4443 16.6326 25.3397 20.7827ZM56.4783 14.3202C60.9245 8.48042 51.6799 -4.40383 42.5272 1.52272C50.3884 2.47219 45.9014 15.484 54.6508 14.9481C54.6508 14.9481 54.5385 8.03631 52.0934 5.31551C52.0934 5.31551 55.9576 7.99036 56.4783 14.3253V14.3202ZM40.1331 14.3457C40.9498 7.94442 28.2545 2.20165 23.8848 10.7316C30.2861 8.00057 32.5934 19.8792 39.0151 15.6219C39.0151 15.6219 35.8911 10.4049 32.8334 9.41457C32.8334 9.41457 36.9529 9.75148 40.128 14.3457H40.1331ZM87.3106 26.6378C88.2039 20.0578 102.354 17.7301 104.422 27.3729C98.786 22.9522 93.3342 34.1468 88.0814 28.2049C88.0814 28.2049 92.5736 23.8557 95.8814 23.6822C95.8814 23.6822 91.7007 22.9216 87.3157 26.6429L87.3106 26.6378ZM20.9395 61.9061C20.1329 55.9591 7.34053 53.856 5.47221 62.5697C10.5667 58.5779 15.4978 68.6902 20.2452 63.3201C20.2452 63.3201 16.1819 59.3895 13.1956 59.2313C13.1956 59.2313 16.9731 58.5421 20.9395 61.9061ZM61.68 98.0728C61.68 112.749 68.1476 128.502 71.9965 134.867C68.3875 137.277 59.3675 137.251 50.4292 143.699C50.2455 143.831 50.0005 143.806 49.8422 143.648C48.5099 142.279 38.8926 139.16 31.5368 136.098C32.0268 134.903 33.594 130.922 34.329 129.707C38.178 123.341 40.8579 112.014 40.8579 97.3378C40.8579 87.6746 42.0831 51.4058 21.3682 50.5635C25.697 50.7932 31.5878 56.49 31.5878 56.49C24.7067 64.2798 17.5601 49.614 10.1736 55.4027C17.7388 42.9575 31.1897 46.6533 36.3658 56.0714C37.836 46.5716 33.6603 33.5189 22.4198 32.595C27.6725 34.2999 33.0325 43.2536 33.0325 43.2536C22.0012 50.5635 18.0451 30.1702 7.05469 34.8615C25.3346 20.7878 45.2939 36.2703 40.3934 61.9878C40.3934 61.9878 43.2265 66.2451 44.2423 69.3692C43.4205 55.8264 42.4761 51.0076 42.4659 50.9259C46.9427 53.9938 50.2046 65.8827 51.588 80.0686C52.272 73.6979 53.2828 67.4957 54.5385 61.8653C35.9881 44.3 51.9096 20.0272 67.0093 28.7613C59.7198 27.7251 60.6182 40.4919 52.8846 37.8987C52.8846 37.8987 54.6508 31.717 57.5044 29.8589C49.0867 32.8757 47.6421 46.5052 56.075 55.7141C58.3568 47.5262 61.1899 41.1504 64.263 38.1846C64.2528 38.2305 63.6147 41.2832 62.7162 46.296C65.876 41.3699 71.6341 38.6185 76.5346 38.0978C79.5362 37.0105 83.0635 36.1427 85.7282 36.7094C85.7282 36.7094 78.944 33.5036 69.7658 37.8426C74.2937 27.0309 99.4904 29.5271 98.6073 46.9187C91.4863 37.4393 78.3672 51.4415 71.6137 42.8809C67.7545 45.6119 64.5386 49.9152 65.6923 56.4951C69.2196 47.5772 83.3034 43.1055 91.7211 56.6891C84.3346 50.9004 77.1931 65.5662 70.3069 57.7764C70.3069 57.7764 76.1926 52.0745 80.5214 51.8499C63.63 48.782 61.6698 88.6904 61.6698 98.0882L61.68 98.0728Z" fill="#2B6DDD"/>
</svg>
