<svg width="17" height="17" viewBox="0 0 17 17" fill="none" xmlns="http://www.w3.org/2000/svg">
<path fill-rule="evenodd" clip-rule="evenodd" d="M4.25 1.48413V15.5159C4.25 16.3355 4.90408 17 5.71094 17H15.5391C16.3459 17 17 16.3355 17 15.5159V3.90536C17 3.50892 16.8439 3.12895 16.5664 2.85017L14.1567 0.428938C13.8832 0.154132 13.514 0 13.1293 0H5.71094C4.90408 0 4.25 0.664466 4.25 1.48413ZM5.17969 15.5159V1.48413C5.17969 1.18607 5.41754 0.944444 5.71094 0.944444H12.9492V4.18254C12.9492 4.7414 13.3952 5.19444 13.9453 5.19444H16.0703V15.5159C16.0703 15.8139 15.8325 16.0556 15.5391 16.0556H5.71094C5.41754 16.0556 5.17969 15.8139 5.17969 15.5159ZM16.0703 4.25V3.90536C16.0703 3.7612 16.0135 3.62303 15.9126 3.52166L13.8789 1.47823V4.18254C13.8789 4.2198 13.9086 4.25 13.9453 4.25H16.0703Z" fill="white"/>
<path fill-rule="evenodd" clip-rule="evenodd" d="M10.8906 6.97266C10.8906 6.71593 11.0987 6.50781 11.3555 6.50781H14.4102C14.6669 6.50781 14.875 6.71593 14.875 6.97266C14.875 7.22938 14.6669 7.4375 14.4102 7.4375H11.3555C11.0987 7.4375 10.8906 7.22938 10.8906 6.97266Z" fill="white"/>
<path fill-rule="evenodd" clip-rule="evenodd" d="M10.8906 9.09766C10.8906 8.84093 11.0987 8.63281 11.3555 8.63281H14.4102C14.6669 8.63281 14.875 8.84093 14.875 9.09766C14.875 9.35438 14.6669 9.5625 14.4102 9.5625H11.3555C11.0987 9.5625 10.8906 9.35438 10.8906 9.09766Z" fill="white"/>
<path fill-rule="evenodd" clip-rule="evenodd" d="M10.8906 11.2227C10.8906 10.9659 11.0987 10.7578 11.3555 10.7578H14.4102C14.6669 10.7578 14.875 10.9659 14.875 11.2227C14.875 11.4794 14.6669 11.6875 14.4102 11.6875H11.3555C11.0987 11.6875 10.8906 11.4794 10.8906 11.2227Z" fill="white"/>
<path d="M0 4.91406C0 4.47396 0.356773 4.11719 0.796875 4.11719H8.76562C9.20573 4.11719 9.5625 4.47396 9.5625 4.91406V12.8828C9.5625 13.3229 9.20573 13.6797 8.76562 13.6797H0.796875C0.356773 13.6797 0 13.3229 0 12.8828V4.91406Z" fill="white"/>
<path d="M2.65625 11.5661L4.14883 8.78793L2.79425 6.24219H3.82562L4.70084 7.95267L5.55789 6.24219H6.57837L5.22379 8.82788L6.71637 11.5661H5.65231L4.68268 9.72488L3.71304 11.5661H2.65625Z" fill="#1570EF"/>
</svg>
