<svg width="15" height="15" viewBox="0 0 15 15" fill="none" xmlns="http://www.w3.org/2000/svg">
<path d="M6.5 13.3403C6.5 13.7545 6.83579 14.0903 7.25 14.0903C7.66421 14.0903 8 13.7545 8 13.3403H7.25H6.5ZM8 7.74459C8 7.33038 7.66421 6.99459 7.25 6.99459C6.83579 6.99459 6.5 7.33038 6.5 7.74459H7.25H8ZM5.8494 11.4308C5.56743 11.1274 5.09287 11.11 4.78945 11.392C4.48603 11.6739 4.46863 12.1485 4.7506 12.4519L5.3 11.9413L5.8494 11.4308ZM6.51461 13.2484L7.06401 12.7378L7.06401 12.7378L6.51461 13.2484ZM7.98539 13.2484L8.53479 13.7589L8.53479 13.7589L7.98539 13.2484ZM9.7494 12.4519C10.0314 12.1485 10.014 11.6739 9.71055 11.3919C9.40713 11.11 8.93257 11.1274 8.6506 11.4308L9.2 11.9413L9.7494 12.4519ZM7.04914 13.7158L6.8016 14.4237L6.8016 14.4237L7.04914 13.7158ZM7.45086 13.7158L7.20332 13.0078L7.20332 13.0078L7.45086 13.7158ZM11.1458 4.31635L11.3049 3.58341L11.1458 4.31635ZM4.06417 3.5523L4.80134 3.69043H4.80134L4.06417 3.5523ZM10.4358 3.5523L9.69866 3.69043L9.69866 3.69043L10.4358 3.5523ZM3.35415 4.31635L3.19512 3.58341H3.19512L3.35415 4.31635ZM11.4809 10.2722C11.106 10.4484 10.945 10.8951 11.1213 11.27C11.2975 11.6448 11.7443 11.8059 12.1191 11.6296L11.8 10.9509L11.4809 10.2722ZM2.38089 11.6296C2.75574 11.8059 3.20248 11.6448 3.37873 11.27C3.55497 10.8951 3.39396 10.4484 3.01911 10.2722L2.7 10.9509L2.38089 11.6296ZM7.25 13.3403H8L8 7.74459H7.25H6.5L6.5 13.3403H7.25ZM5.3 11.9413L4.7506 12.4519L5.96521 13.7589L6.51461 13.2484L7.06401 12.7378L5.8494 11.4308L5.3 11.9413ZM7.98539 13.2484L8.53479 13.7589L9.7494 12.4519L9.2 11.9413L8.6506 11.4308L7.43599 12.7378L7.98539 13.2484ZM6.51461 13.2484L5.96521 13.7589C6.08538 13.8882 6.20601 14.0189 6.3169 14.1202C6.43313 14.2264 6.5901 14.3498 6.8016 14.4237L7.04914 13.7158L7.29668 13.0078C7.35976 13.0299 7.37817 13.058 7.3286 13.0128C7.27368 12.9626 7.20125 12.8855 7.06401 12.7378L6.51461 13.2484ZM7.98539 13.2484L7.43599 12.7378C7.29875 12.8855 7.22632 12.9626 7.1714 13.0128C7.12183 13.058 7.14023 13.0299 7.20332 13.0078L7.45086 13.7158L7.6984 14.4237C7.9099 14.3498 8.06687 14.2264 8.1831 14.1202C8.29399 14.0189 8.41462 13.8882 8.53479 13.7589L7.98539 13.2484ZM7.04914 13.7158L6.8016 14.4237C7.09241 14.5254 7.40758 14.5254 7.6984 14.4237L7.45086 13.7158L7.20332 13.0078C7.23305 12.9974 7.26696 12.9974 7.29667 13.0078L7.04914 13.7158ZM11.1458 4.31635L10.9868 5.0493C12.099 5.29061 13 6.37405 13 7.74459H13.75H14.5C14.5 5.72805 13.1637 3.98672 11.3049 3.58341L11.1458 4.31635ZM4.06417 3.5523L4.80134 3.69043C5.04289 2.40128 6.08141 1.5 7.25 1.5V0.75V0C5.27101 0 3.68449 1.50621 3.327 3.41418L4.06417 3.5523ZM7.25 0.75V1.5C8.41859 1.5 9.45711 2.40128 9.69866 3.69043L10.4358 3.5523L11.173 3.41418C10.8155 1.50621 9.22899 0 7.25 0V0.75ZM0.75 7.74459H1.5C1.5 6.37405 2.40099 5.29061 3.51318 5.0493L3.35415 4.31635L3.19512 3.58341C1.33626 3.98672 0 5.72805 0 7.74459H0.75ZM13.75 7.74459H13C13 8.9008 12.3544 9.86145 11.4809 10.2722L11.8 10.9509L12.1191 11.6296C13.5413 10.961 14.5 9.45662 14.5 7.74459H13.75ZM2.7 10.9509L3.01911 10.2722C2.14558 9.86145 1.5 8.9008 1.5 7.74459H0.75H0C0 9.45662 0.958746 10.961 2.38089 11.6296L2.7 10.9509ZM4.06417 3.5523L3.327 3.41418C3.30656 3.52325 3.22638 3.57662 3.19512 3.58341L3.35415 4.31635L3.51318 5.0493C4.18573 4.90338 4.67987 4.33872 4.80134 3.69043L4.06417 3.5523ZM11.1458 4.31635L11.3049 3.58341C11.2736 3.57662 11.1934 3.52325 11.173 3.41418L10.4358 3.5523L9.69866 3.69043C9.82013 4.33872 10.3143 4.90338 10.9868 5.0493L11.1458 4.31635Z" fill="#64748B"/>
</svg>
