<svg width="45" height="45" viewBox="0 0 45 45" fill="none" xmlns="http://www.w3.org/2000/svg">
<path d="M35.0437 21.6187C33.9749 21.3375 32.7186 21.1875 31.2186 21.1875C29.1374 21.1875 28.3687 21.6937 27.2999 22.5C27.2437 22.5375 27.1874 22.5937 27.1312 22.65L25.3499 24.5437C23.8499 26.1188 21.1499 26.1375 19.6499 24.525L17.8687 22.65C17.8124 22.5937 17.7562 22.5375 17.6999 22.5C16.6312 21.6937 15.8624 21.1875 13.7812 21.1875C12.2812 21.1875 11.0249 21.3375 9.95615 21.6187C5.49365 22.8187 5.49365 26.3625 5.49365 29.475V31.2187C5.49365 35.925 5.49365 41.25 15.5249 41.25H29.4749C36.1311 41.25 39.5061 37.875 39.5061 31.2187V29.475C39.5061 26.3625 39.5061 22.8187 35.0437 21.6187ZM26.8687 34.5H18.1312C17.4187 34.5 16.8374 33.9188 16.8374 33.1875C16.8374 32.4563 17.4187 31.875 18.1312 31.875H26.8687C27.5812 31.875 28.1624 32.4563 28.1624 33.1875C28.1624 33.9188 27.5812 34.5 26.8687 34.5Z" fill="#BFD0E5"/>
<path d="M23.7562 8.0625L24.975 9.28125C25.4625 9.76875 26.2688 9.76875 26.7563 9.28125C27.2437 8.79375 27.2437 7.9875 26.7563 7.5L23.3812 4.125C23.2687 4.0125 23.1187 3.91875 22.9687 3.84375C22.8187 3.7875 22.6687 3.75 22.5 3.75C22.3312 3.75 22.1812 3.7875 22.0125 3.84375C21.8625 3.9 21.75 3.99375 21.6375 4.0875C21.6187 4.10625 21.6188 4.10625 21.6 4.10625L18.225 7.5C17.7375 7.9875 17.7375 8.79375 18.225 9.28125C18.7125 9.76875 19.5187 9.76875 20.0062 9.28125L21.225 8.0625V11.25H23.7562V8.0625Z" fill="#BFD0E5"/>
<path d="M36.0189 18.975C35.9439 18.9375 35.8502 18.9187 35.7752 18.9H35.7564C34.4252 18.5437 32.9439 18.375 31.2189 18.375C28.3314 18.375 26.9627 19.2188 25.7252 20.1562C25.4627 20.3438 25.2752 20.5312 25.0877 20.7188L23.3064 22.6125C23.1189 22.8 22.8189 22.9125 22.5002 22.9125C22.3877 22.9125 21.9752 22.8938 21.6939 22.5938L19.8564 20.6625C19.6689 20.4563 19.4439 20.2875 19.3877 20.25C18.0377 19.2188 16.6689 18.375 13.7814 18.375C12.0564 18.375 10.5752 18.5437 9.2252 18.9C9.1502 18.9187 9.05645 18.9375 8.98145 18.975C9.0002 15.2437 9.3752 11.25 17.2689 11.25H21.2439V17.025C21.2439 17.7188 21.8064 18.2812 22.5002 18.2812C23.1939 18.2812 23.7564 17.7188 23.7564 17.025V11.25H27.7314C35.6252 11.25 36.0002 15.2437 36.0189 18.975Z" fill="#BFD0E5"/>
</svg>
