<svg width="14" height="14" viewBox="0 0 14 14" fill="none" xmlns="http://www.w3.org/2000/svg">
<path d="M7 1.16675V5.25008L8.16667 4.08341" stroke="#64748B" stroke-width="1.5" stroke-linecap="round" stroke-linejoin="round"/>
<path d="M7.00016 5.24992L5.8335 4.08325" stroke="#64748B" stroke-width="1.5" stroke-linecap="round" stroke-linejoin="round"/>
<path d="M1.15479 7.58325H3.72728C3.94895 7.58325 4.14729 7.70575 4.24645 7.90409L4.92895 9.26909C5.12728 9.66575 5.52979 9.91659 5.97312 9.91659H8.03229C8.47562 9.91659 8.87812 9.66575 9.07645 9.26909L9.75895 7.90409C9.85812 7.70575 10.0623 7.58325 10.2781 7.58325H12.8215" stroke="#64748B" stroke-width="1.5" stroke-linecap="round" stroke-linejoin="round"/>
<path d="M4.08317 2.40918C2.01817 2.71251 1.1665 3.92585 1.1665 6.41668V8.75001C1.1665 11.6667 2.33317 12.8333 5.24984 12.8333H8.74984C11.6665 12.8333 12.8332 11.6667 12.8332 8.75001V6.41668C12.8332 3.92585 11.9815 2.71251 9.9165 2.40918" stroke="#64748B" stroke-width="1.5" stroke-linecap="round" stroke-linejoin="round"/>
</svg>
