<svg width="20" height="20" viewBox="0 0 20 20" fill="none" xmlns="http://www.w3.org/2000/svg">
<path d="M7.91667 9.58337L5.07499 11.0378C4.28817 11.4405 3.69145 12.1373 3.45543 12.9891C3.05795 14.4236 2.5 16.7239 2.5 18.3334M12.0833 9.58337L14.925 11.0378C15.7118 11.4405 16.3085 12.1373 16.5446 12.9891C16.9421 14.4236 17.5 16.7239 17.5 18.3334" stroke="#A2845E" stroke-width="1.5" stroke-linecap="round"/>
<path d="M5.8335 18.3334C5.8335 17.3728 6.25016 14.1667 6.66797 13.3334" stroke="#A2845E" stroke-width="1.5" stroke-linecap="round"/>
<path d="M6.6665 14.1322C7.86309 14.3289 10.705 13.778 12.4998 10" stroke="#A2845E" stroke-width="1.5" stroke-linecap="round"/>
<path d="M10 16.6667C10 16.6667 14.1667 15 15 11.25" stroke="#A2845E" stroke-width="1.5" stroke-linecap="round"/>
<path d="M16.6665 13.75C16.2875 15.5896 15.4165 17.5 14.1665 18.3333" stroke="#A2845E" stroke-width="1.5" stroke-linecap="round"/>
<path d="M12.9169 7.54851L13.2673 5.75238C13.6797 3.63868 12.1026 1.66663 9.99984 1.66663C7.89706 1.66663 6.31996 3.63868 6.73235 5.75238L7.08277 7.54851C7.36088 8.97392 8.58179 9.99996 9.99984 9.99996C11.4179 9.99996 12.6388 8.97392 12.9169 7.54851Z" stroke="#A2845E" stroke-width="1.5" stroke-linecap="round"/>
<path d="M6.6665 4.99996L9.19139 4.28012C9.72219 4.12879 10.2775 4.12879 10.8083 4.28012L13.3332 4.99996" stroke="#A2845E" stroke-width="1.5" stroke-linecap="round" stroke-linejoin="round"/>
</svg>
