<svg width="22" height="22" viewBox="0 0 22 22" fill="none" xmlns="http://www.w3.org/2000/svg">
<mask id="mask0_140_38198" style="mask-type:alpha" maskUnits="userSpaceOnUse" x="0" y="0" width="22" height="22">
<g clip-path="url(#clip0_140_38198)">
<path d="M17.4166 10.0829H19.25M18.3333 9.16619V10.9995M11 2.74952H11.3602C10.1826 3.84375 9.42567 5.31604 9.22098 6.91047C9.01629 8.5049 9.37678 10.1207 10.2398 11.4769C11.1028 12.8331 12.4138 13.844 13.9448 14.3339C15.4759 14.8238 17.1302 14.7617 18.6202 14.1584C18.0471 15.5375 17.1103 16.7351 15.9098 17.6236C14.7093 18.5121 13.2902 19.058 11.8038 19.2031C10.3174 19.3483 8.81945 19.0872 7.46978 18.4478C6.1201 17.8084 4.96932 16.8146 4.14017 15.5724C3.31102 14.3302 2.83462 12.8863 2.76177 11.3946C2.68893 9.90288 3.02238 8.41938 3.72655 7.10233C4.43073 5.78527 5.47921 4.68408 6.76016 3.91619C8.04111 3.14831 9.50649 2.74255 11 2.74219V2.74952ZM15.5833 3.66619C15.5833 4.15242 15.7765 4.61873 16.1203 4.96255C16.4641 5.30637 16.9304 5.49952 17.4166 5.49952C16.9304 5.49952 16.4641 5.69267 16.1203 6.03649C15.7765 6.38031 15.5833 6.84662 15.5833 7.33285C15.5833 6.84662 15.3901 6.38031 15.0463 6.03649C14.7025 5.69267 14.2362 5.49952 13.75 5.49952C14.2362 5.49952 14.7025 5.30637 15.0463 4.96255C15.3901 4.61873 15.5833 4.15242 15.5833 3.66619Z" stroke="black" stroke-width="1.83333" stroke-linecap="round" stroke-linejoin="round"/>
</g>
</mask>
<g mask="url(#mask0_140_38198)">
<rect width="22" height="22" fill="#94A3B8"/>
</g>
<defs>
<clipPath id="clip0_140_38198">
<rect width="22" height="22" fill="white"/>
</clipPath>
</defs>
</svg>
