<svg width="22" height="22" viewBox="0 0 22 22" fill="none" xmlns="http://www.w3.org/2000/svg">
<mask id="mask0_140_38205" style="mask-type:alpha" maskUnits="userSpaceOnUse" x="0" y="0" width="22" height="22">
<g clip-path="url(#clip0_140_38205)">
<path d="M13.7502 15.5833V16.5C13.7502 17.2293 13.4604 17.9288 12.9447 18.4445C12.429 18.9603 11.7295 19.25 11.0002 19.25C10.2708 19.25 9.57134 18.9603 9.05562 18.4445C8.53989 17.9288 8.25016 17.2293 8.25016 16.5V15.5833M12.8335 4.58333C12.8335 4.0971 12.6403 3.63079 12.2965 3.28697C11.9527 2.94315 11.4864 2.75 11.0002 2.75C10.5139 2.75 10.0476 2.94315 9.7038 3.28697C9.35998 3.63079 9.16683 4.0971 9.16683 4.58333C8.11412 5.08111 7.21671 5.85597 6.57078 6.82486C5.92485 7.79375 5.55476 8.92015 5.50016 10.0833V12.8333C5.43118 13.4032 5.22935 13.949 4.91092 14.4266C4.59249 14.9043 4.16636 15.3005 3.66683 15.5833H18.3335C17.834 15.3005 17.4078 14.9043 17.0894 14.4266C16.771 13.949 16.5691 13.4032 16.5002 12.8333V10.0833C16.4456 8.92015 16.0755 7.79375 15.4295 6.82486C14.7836 5.85597 13.8862 5.08111 12.8335 4.58333Z" stroke="black" stroke-width="1.83333" stroke-linecap="round" stroke-linejoin="round"/>
</g>
</mask>
<g mask="url(#mask0_140_38205)">
<rect width="22" height="22" transform="matrix(-1 0 0 1 22 0)" fill="#94A3B8"/>
</g>
<defs>
<clipPath id="clip0_140_38205">
<rect width="22" height="22" fill="white" transform="matrix(-1 0 0 1 22 0)"/>
</clipPath>
</defs>
</svg>
