<svg width="55" height="55" viewBox="0 0 55 55" fill="none" xmlns="http://www.w3.org/2000/svg">
<path d="M27.5 49.2803C25.277 49.2803 23.279 48.1261 22.1495 46.1933C21.6815 45.3878 21.9515 44.3551 22.757 43.8848C23.558 43.4168 24.593 43.6868 25.0655 44.4923C26.0983 46.263 28.9018 46.263 29.9345 44.4923C30.4048 43.6868 31.4398 43.4168 32.243 43.8848C33.0485 44.3528 33.3207 45.3878 32.8505 46.1933C31.721 48.1261 29.723 49.2803 27.5 49.2803ZM47.0187 41.574C47.3 40.989 47.2213 40.296 46.8185 39.7898C46.7758 39.738 42.6763 34.5181 42.6763 28.4678V20.5815C42.6763 12.2138 35.8678 5.4053 27.5 5.4053C19.1323 5.4053 12.3238 12.2138 12.3238 20.5815V28.4678C12.3238 34.5181 8.22427 39.738 8.18152 39.7898C7.77877 40.296 7.70005 40.9913 7.9813 41.574C8.26255 42.1568 8.85202 42.5303 9.50002 42.5303H45.5C46.148 42.5303 46.7375 42.1568 47.0187 41.574ZM15.6988 28.4678V20.5815C15.6988 14.0745 20.993 8.7803 27.5 8.7803C34.007 8.7803 39.3013 14.0745 39.3013 20.5815V28.4678C39.3013 32.8238 40.9888 36.6983 42.3793 39.1553H12.6185C14.0112 36.6983 15.6988 32.8238 15.6988 28.4678ZM8.92853 18.5115C9.31328 14.6663 10.8658 11.1045 13.4218 8.21104C14.0383 7.51129 13.9708 6.44481 13.2733 5.82831C12.5735 5.20956 11.507 5.27705 10.8905 5.9768C7.86655 9.40355 6.02602 13.6223 5.57152 18.1763C5.47702 19.1033 6.15424 19.9313 7.08124 20.0235C7.13749 20.028 7.19604 20.0326 7.25229 20.0326C8.10729 20.0303 8.84303 19.38 8.92853 18.5115ZM47.9188 20.0213C48.8458 19.9291 49.523 19.1011 49.4285 18.1741C48.974 13.6223 47.1335 9.40356 44.1095 5.97456C43.4952 5.27706 42.4265 5.20729 41.7268 5.82604C41.027 6.44254 40.9617 7.50906 41.5782 8.20881C44.132 11.1023 45.6868 14.6641 46.0715 18.5093C46.1593 19.3801 46.8928 20.028 47.7478 20.028C47.804 20.0303 47.8603 20.0281 47.9188 20.0213Z" fill="#9479F4"/>
</svg>
