<svg width="55" height="55" viewBox="0 0 55 55" fill="none" xmlns="http://www.w3.org/2000/svg">
<path d="M40.1562 49.2803H14.8438C8.85875 49.2803 5.5625 45.984 5.5625 39.999V14.6865C5.5625 8.70152 8.85875 5.40527 14.8438 5.40527H40.1562C46.1413 5.40527 49.4375 8.70152 49.4375 14.6865V39.999C49.4375 45.984 46.1413 49.2803 40.1562 49.2803ZM14.8438 8.78027C10.7038 8.78027 8.9375 10.5465 8.9375 14.6865V39.999C8.9375 44.139 10.7038 45.9053 14.8438 45.9053H40.1562C44.2962 45.9053 46.0625 44.139 46.0625 39.999V14.6865C46.0625 10.5465 44.2962 8.78027 40.1562 8.78027H14.8438ZM34.25 40.2803C31.0798 40.2803 29.1875 38.388 29.1875 35.2178V19.4678C29.1875 16.2975 31.0798 14.4053 34.25 14.4053C37.4202 14.4053 39.3125 16.2975 39.3125 19.4678V35.2178C39.3125 38.388 37.4202 40.2803 34.25 40.2803ZM34.25 17.7803C32.9247 17.7803 32.5625 18.1425 32.5625 19.4678V35.2178C32.5625 36.543 32.9247 36.9053 34.25 36.9053C35.5753 36.9053 35.9375 36.543 35.9375 35.2178V19.4678C35.9375 18.1425 35.5753 17.7803 34.25 17.7803ZM20.75 40.2803C17.5798 40.2803 15.6875 38.388 15.6875 35.2178V28.4678C15.6875 25.2975 17.5798 23.4053 20.75 23.4053C23.9202 23.4053 25.8125 25.2975 25.8125 28.4678V35.2178C25.8125 38.388 23.9202 40.2803 20.75 40.2803ZM20.75 26.7803C19.4248 26.7803 19.0625 27.1425 19.0625 28.4678V35.2178C19.0625 36.543 19.4248 36.9053 20.75 36.9053C22.0753 36.9053 22.4375 36.543 22.4375 35.2178V28.4678C22.4375 27.1425 22.0753 26.7803 20.75 26.7803Z" fill="#9479F4"/>
</svg>
