<svg width="45" height="45" viewBox="0 0 45 45" fill="none" xmlns="http://www.w3.org/2000/svg">
<path d="M44.6042 27.5056C44.6019 23.0281 38.9049 19.5789 31.1042 19.1424V8.87787C31.1019 3.06612 23.4767 0.462891 15.9167 0.462891C8.35667 0.462891 0.731422 3.06387 0.729172 8.87787V33.6729C0.729172 39.4847 8.35667 42.0879 15.9167 42.0879C16.6974 42.0879 17.4984 42.0159 18.2949 41.9371C21.2064 43.5639 25.3172 44.3379 29.4167 44.3379C36.9744 44.3379 44.6042 41.7347 44.6042 35.9229V27.5056C44.6042 27.5079 44.6042 27.5079 44.6042 27.5056ZM41.2292 27.5101C41.2292 29.8906 36.1779 32.5524 29.4167 32.5524C22.6554 32.5524 17.6042 29.8906 17.6042 27.5101C17.6042 26.6371 18.295 25.7282 19.4897 24.9249C19.5302 24.9024 19.5617 24.8708 19.6 24.8461C21.679 23.4961 25.2159 22.468 29.4167 22.468C36.1779 22.468 41.2292 25.1296 41.2292 27.5101ZM27.7292 16.843C27.7292 17.8577 26.8381 18.7058 25.9899 19.2976C22.8601 19.6688 20.1579 20.5442 18.1307 21.7772C17.4107 21.8379 16.6861 21.8829 15.9189 21.8829C9.55587 21.8829 4.10637 19.111 4.10637 16.843V14.476C7.03362 16.393 11.4819 17.2974 15.9189 17.2974C20.3559 17.2974 24.8041 16.393 27.7314 14.476V16.843H27.7292ZM4.10417 22.0606C6.81092 23.8921 10.7957 25.0373 14.767 25.2263C14.425 25.9486 14.2292 26.7092 14.2292 27.5079C14.2292 27.5079 14.2292 27.5079 14.2292 27.5101V30.2281C8.62217 29.7984 4.10417 27.3256 4.10417 25.2601V22.0606ZM15.9167 3.83789C21.7239 3.83789 27.7292 5.72345 27.7292 8.8802C27.7292 12.1562 21.6429 13.9224 15.9167 13.9224C10.1904 13.9224 4.10417 12.1562 4.10417 8.8802C4.10417 5.72345 10.1094 3.83789 15.9167 3.83789ZM4.10417 33.6729V30.4756C6.68942 32.2239 10.4357 33.3467 14.2292 33.6077V35.9229C14.2292 36.9467 14.4767 37.8647 14.9087 38.6927C9.43443 38.488 4.10417 36.6452 4.10417 33.6729ZM29.4167 40.9629C25.7739 40.9629 22.0547 40.2204 19.7889 38.8884C18.4412 38.0964 17.6064 37.0974 17.6064 35.9229V32.9214C20.3469 34.7799 24.5454 35.9274 29.4189 35.9274C34.2924 35.9274 38.4909 34.7799 41.2314 32.9214V35.9229C41.2291 39.0774 35.2239 40.9629 29.4167 40.9629Z" fill="#9479F4"/>
</svg>
