<svg width="45" height="36" viewBox="0 0 45 36" fill="none" xmlns="http://www.w3.org/2000/svg">
<path d="M36.1667 0.962891H9.16667C3.72617 0.962891 0.729172 3.95989 0.729172 9.40039V27.4004C0.729172 32.8409 3.72617 35.8379 9.16667 35.8379H36.1667C41.6072 35.8379 44.6042 32.8409 44.6042 27.4004V9.40039C44.6042 3.95989 41.6072 0.962891 36.1667 0.962891ZM41.2292 27.4004C41.2292 30.9486 39.7149 32.4629 36.1667 32.4629H9.16667C5.61842 32.4629 4.10417 30.9486 4.10417 27.4004V15.5879H41.2292V27.4004ZM41.2292 12.2129H4.10417V9.40039C4.10417 5.85214 5.61842 4.33789 9.16667 4.33789H36.1667C39.7149 4.33789 41.2292 5.85214 41.2292 9.40039V12.2129ZM9.72917 25.1504C9.72917 24.2189 10.4852 23.4629 11.4167 23.4629H18.1667C19.0982 23.4629 19.8542 24.2189 19.8542 25.1504C19.8542 26.0819 19.0982 26.8379 18.1667 26.8379H11.4167C10.4852 26.8379 9.72917 26.0819 9.72917 25.1504Z" fill="#9479F4"/>
</svg>
