<svg width="55" height="55" viewBox="0 0 55 55" fill="none" xmlns="http://www.w3.org/2000/svg">
<path d="M47.75 36.9053H46.9625C47.0975 35.9603 47.1875 35.0378 47.1875 34.0928C47.1875 24.8003 40.7075 16.9928 32.0225 14.9453C32.36 14.2703 32.5625 13.5278 32.5625 12.7178C32.5625 9.92777 30.29 7.65527 27.5 7.65527C24.71 7.65527 22.4375 9.92777 22.4375 12.7178C22.4375 13.5278 22.64 14.2703 22.9775 14.9453C14.2925 16.9928 7.8125 24.8003 7.8125 34.0928C7.8125 35.0378 7.90251 35.9603 8.03751 36.9053H7.25C6.3275 36.9053 5.5625 37.6703 5.5625 38.5928V41.9678C5.5625 44.7578 7.835 47.0303 10.625 47.0303H44.375C47.165 47.0303 49.4375 44.7578 49.4375 41.9678V38.5928C49.4375 37.6703 48.6725 36.9053 47.75 36.9053ZM25.8125 12.7178C25.8125 11.7953 26.5775 11.0303 27.5 11.0303C28.4225 11.0303 29.1875 11.7953 29.1875 12.7178C29.1875 13.6403 28.4225 14.4053 27.5 14.4053C26.5775 14.4053 25.8125 13.6403 25.8125 12.7178ZM11.1875 34.0928C11.1875 25.0928 18.5 17.7803 27.5 17.7803C36.5 17.7803 43.8125 25.0928 43.8125 34.0928C43.8125 35.0153 43.7 35.9603 43.5425 36.9053H11.4575C11.3 35.9603 11.1875 35.0153 11.1875 34.0928ZM46.0625 41.9678C46.0625 42.8903 45.2975 43.6553 44.375 43.6553H10.625C9.7025 43.6553 8.9375 42.8903 8.9375 41.9678V40.2803H46.0625V41.9678ZM38.0975 26.4428C38.5925 27.2303 38.345 28.2653 37.5575 28.7603C37.2875 28.9403 36.9725 29.0078 36.68 29.0078C36.1175 29.0078 35.555 28.7153 35.24 28.2203C34.07 26.3528 31.865 24.9128 29.48 24.4853C28.5575 24.3278 27.95 23.4503 28.1075 22.5278C28.265 21.6053 29.1425 20.9978 30.065 21.1553C33.4175 21.7403 36.4325 23.7203 38.12 26.4203L38.0975 26.4428Z" fill="#9479F4"/>
</svg>
