<svg width="55" height="55" viewBox="0 0 55 55" fill="none" xmlns="http://www.w3.org/2000/svg">
<path d="M29.1875 7.09277V16.0928C29.1875 20.7953 25.79 24.6878 21.3125 25.4753V47.5928C21.3125 48.5153 20.5475 49.2803 19.625 49.2803C18.7025 49.2803 17.9375 48.5153 17.9375 47.5928V25.4753C13.46 24.6653 10.0625 20.7728 10.0625 16.0928V7.09277C10.0625 6.17027 10.8275 5.40527 11.75 5.40527C12.6725 5.40527 13.4375 6.17027 13.4375 7.09277V16.0928C13.4375 19.5128 16.205 22.2803 19.625 22.2803C23.045 22.2803 25.8125 19.5128 25.8125 16.0928V7.09277C25.8125 6.17027 26.5775 5.40527 27.5 5.40527C28.4225 5.40527 29.1875 6.17027 29.1875 7.09277ZM21.875 18.9053C22.7975 18.9053 23.5625 18.1403 23.5625 17.2178V7.09277C23.5625 6.17027 22.7975 5.40527 21.875 5.40527C20.9525 5.40527 20.1875 6.17027 20.1875 7.09277V17.2178C20.1875 18.1403 20.9525 18.9053 21.875 18.9053ZM17.375 18.9053C18.2975 18.9053 19.0625 18.1403 19.0625 17.2178V7.09277C19.0625 6.17027 18.2975 5.40527 17.375 5.40527C16.4525 5.40527 15.6875 6.17027 15.6875 7.09277V17.2178C15.6875 18.1403 16.4525 18.9053 17.375 18.9053ZM44.9375 7.09277V47.5928C44.9375 48.5153 44.1725 49.2803 43.25 49.2803C42.3275 49.2803 41.5625 48.5153 41.5625 47.5928V35.7803H34.25C32.6975 35.7803 31.4375 34.5203 31.4375 32.9678V20.5928C31.4375 5.58527 43.1375 5.40527 43.25 5.40527C44.1725 5.40527 44.9375 6.17027 44.9375 7.09277ZM41.5625 9.02777C39.065 9.68027 34.8125 12.0653 34.8125 20.5928V32.4053H41.5625V9.02777Z" fill="#9479F4"/>
</svg>
