<svg width="55" height="55" viewBox="0 0 55 55" fill="none" xmlns="http://www.w3.org/2000/svg">
<path d="M41 7.65527H14C8.5595 7.65527 5.5625 10.6523 5.5625 16.0928V38.5928C5.5625 44.0333 8.5595 47.0303 14 47.0303H41C46.4405 47.0303 49.4375 44.0333 49.4375 38.5928V16.0928C49.4375 10.6523 46.4405 7.65527 41 7.65527ZM14 11.0303H41C44.5482 11.0303 46.0625 12.5445 46.0625 16.0928V21.1553H8.9375V16.0928C8.9375 12.5445 10.4517 11.0303 14 11.0303ZM41 43.6553H14C10.4517 43.6553 8.9375 42.141 8.9375 38.5928V24.5303H46.0625V38.5928C46.0625 42.141 44.5482 43.6553 41 43.6553Z" fill="#9479F4"/>
</svg>
