<svg width="54" height="55" viewBox="0 0 54 55" fill="none" xmlns="http://www.w3.org/2000/svg">
<path d="M36 49.2803H18C12.5595 49.2803 9.5625 46.2833 9.5625 40.8428V13.8428C9.5625 8.40227 12.5595 5.40527 18 5.40527H36C41.4405 5.40527 44.4375 8.40227 44.4375 13.8428V40.8428C44.4375 46.2833 41.4405 49.2803 36 49.2803ZM18 8.78027C14.4517 8.78027 12.9375 10.2945 12.9375 13.8428V40.8428C12.9375 44.391 14.4517 45.9053 18 45.9053H36C39.5483 45.9053 41.0625 44.391 41.0625 40.8428V13.8428C41.0625 10.2945 39.5483 8.78027 36 8.78027H18ZM32.0625 13.8428C32.0625 12.9113 31.3065 12.1553 30.375 12.1553H23.625C22.6935 12.1553 21.9375 12.9113 21.9375 13.8428C21.9375 14.7743 22.6935 15.5303 23.625 15.5303H30.375C31.3065 15.5303 32.0625 14.7743 32.0625 13.8428ZM27 38.5928C25.758 38.5928 24.75 39.6008 24.75 40.8428C24.75 42.0848 25.758 43.0928 27 43.0928C28.242 43.0928 29.25 42.0848 29.25 40.8428C29.25 39.6008 28.242 38.5928 27 38.5928Z" fill="#9479F4"/>
</svg>
