<svg width="41" height="45" viewBox="0 0 41 45" fill="none" xmlns="http://www.w3.org/2000/svg">
<path d="M31.9167 44.3379H9.41667C3.97617 44.3379 0.979172 41.3409 0.979172 35.9004V8.90039C0.979172 3.45989 3.97617 0.462891 9.41667 0.462891H31.9167C37.3572 0.462891 40.3542 3.45989 40.3542 8.90039V35.9004C40.3542 41.3409 37.3572 44.3379 31.9167 44.3379ZM9.41667 3.83789C5.86842 3.83789 4.35417 5.35214 4.35417 8.90039V35.9004C4.35417 39.4486 5.86842 40.9629 9.41667 40.9629H31.9167C35.4649 40.9629 36.9792 39.4486 36.9792 35.9004V8.90039C36.9792 5.35214 35.4649 3.83789 31.9167 3.83789H9.41667ZM31.3542 22.4004C31.3542 21.4689 30.5982 20.7129 29.6667 20.7129H11.6667C10.7352 20.7129 9.97917 21.4689 9.97917 22.4004C9.97917 23.3319 10.7352 24.0879 11.6667 24.0879H29.6667C30.5982 24.0879 31.3542 23.3319 31.3542 22.4004ZM24.6042 31.4004C24.6042 30.4689 23.8482 29.7129 22.9167 29.7129H11.6667C10.7352 29.7129 9.97917 30.4689 9.97917 31.4004C9.97917 32.3319 10.7352 33.0879 11.6667 33.0879H22.9167C23.8482 33.0879 24.6042 32.3319 24.6042 31.4004ZM31.3542 13.4004C31.3542 12.4689 30.5982 11.7129 29.6667 11.7129H11.6667C10.7352 11.7129 9.97917 12.4689 9.97917 13.4004C9.97917 14.3319 10.7352 15.0879 11.6667 15.0879H29.6667C30.5982 15.0879 31.3542 14.3319 31.3542 13.4004Z" fill="#9479F4"/>
</svg>
