<svg width="54" height="55" viewBox="0 0 54 55" fill="none" xmlns="http://www.w3.org/2000/svg">
<path d="M27 18.905C22.347 18.905 18.5625 22.6895 18.5625 27.3425C18.5625 31.9955 22.347 35.78 27 35.78C31.653 35.78 35.4375 31.9955 35.4375 27.3425C35.4375 22.6895 31.653 18.905 27 18.905ZM27 32.405C24.2078 32.405 21.9375 30.1347 21.9375 27.3425C21.9375 24.5502 24.2078 22.28 27 22.28C29.7923 22.28 32.0625 24.5502 32.0625 27.3425C32.0625 30.1347 29.7923 32.405 27 32.405ZM47.7181 31.7367C46.1566 30.8322 45.1845 29.1492 45.1823 27.3425C45.18 25.5402 46.1453 23.8595 47.7271 22.9437C48.8858 22.271 49.2818 20.7792 48.6113 19.6182L44.8493 13.1247C44.1788 11.966 42.687 11.5677 41.526 12.236C39.9533 13.1427 37.9981 13.1427 36.4208 12.227C34.8661 11.3247 33.8986 9.64847 33.8986 7.85072C33.8986 6.50297 32.8006 5.40723 31.4528 5.40723H22.554C21.204 5.40723 20.1083 6.50297 20.1083 7.85072C20.1083 9.64847 19.1408 11.3247 17.5815 12.2315C16.0088 13.1427 14.0558 13.1449 12.4831 12.2382C11.3198 11.5677 9.83032 11.9682 9.15982 13.127L5.3933 19.6272C4.7228 20.786 5.12102 22.2754 6.29102 22.9549C7.85027 23.8572 8.8223 25.5379 8.8268 27.3402C8.8313 29.1447 7.86379 30.83 6.28429 31.7457C5.72179 32.072 5.31679 32.5962 5.15029 33.2262C4.98379 33.8539 5.06931 34.5087 5.39556 35.0735L9.15529 41.5625C9.82579 42.7235 11.3176 43.1262 12.4831 42.4535C14.0558 41.5467 16.0066 41.549 17.5568 42.4467L17.5613 42.4489C17.568 42.4534 17.5748 42.458 17.5838 42.4625C19.1385 43.3647 20.1038 45.0409 20.1015 46.8409C20.1015 48.1887 21.1973 49.2845 22.545 49.2845H31.4528C32.8006 49.2845 33.8963 48.1887 33.8963 46.8432C33.8963 45.0432 34.8638 43.3669 36.4253 42.4602C37.9958 41.5489 39.9488 41.5445 41.5238 42.4535C42.6848 43.124 44.1743 42.7257 44.8471 41.5669L48.6135 35.0667C49.2818 33.9035 48.8836 32.4117 47.7181 31.7367ZM42.3698 39.1032C39.9173 38.0344 37.071 38.1807 34.7265 39.5375C32.4023 40.8852 30.8678 43.268 30.5708 45.905H23.4226C23.1301 43.268 21.591 40.8807 19.2668 39.5352C16.9268 38.1785 14.0761 38.0344 11.6303 39.1032L8.7593 34.1464C10.9081 32.5647 12.2063 30.0267 12.1973 27.3267C12.1905 24.6447 10.8945 22.1247 8.75704 20.543L11.6303 15.5839C14.0783 16.6504 16.9291 16.5064 19.2736 15.1474C21.5956 13.8019 23.13 11.417 23.427 8.78223H30.5708C30.8656 11.4192 32.4023 13.802 34.7311 15.152C37.0688 16.5087 39.9195 16.6527 42.3698 15.5862L45.243 20.543C43.0988 22.1225 41.8028 24.656 41.8073 27.3515C41.8095 30.038 43.1056 32.5624 45.2453 34.1487L42.3698 39.1032Z" fill="#9479F4"/>
</svg>
