<svg width="55" height="55" viewBox="0 0 55 55" fill="none" xmlns="http://www.w3.org/2000/svg">
<path d="M24.7279 32.9681V39.7181C24.7279 40.6496 23.9719 41.4056 23.0404 41.4056C22.1089 41.4056 21.3529 40.6496 21.3529 39.7181V32.9681C21.3529 32.0366 22.1089 31.2806 23.0404 31.2806C23.9719 31.2806 24.7279 32.0366 24.7279 32.9681ZM32.0404 31.2806C31.1089 31.2806 30.3529 32.0366 30.3529 32.9681V39.7181C30.3529 40.6496 31.1089 41.4056 32.0404 41.4056C32.9719 41.4056 33.7279 40.6496 33.7279 39.7181V32.9681C33.7279 32.0366 32.9719 31.2806 32.0404 31.2806ZM46.0109 26.1011L44.4538 41.6824C43.9431 46.7944 41.1979 49.2806 36.0589 49.2806H19.0265C13.8875 49.2806 11.1404 46.7966 10.6319 41.6824L9.07922 26.1483C7.00697 25.1471 5.5647 23.0434 5.5647 20.5931C5.5647 17.1799 8.33895 14.4056 11.7522 14.4056H16.6054L21.5578 6.2201C22.0393 5.4236 23.0721 5.16709 23.8753 5.65084C24.6718 6.13234 24.9282 7.17187 24.4444 7.96837L20.5498 14.4079H34.3895L30.5534 7.95934C30.0764 7.15834 30.3396 6.12334 31.1406 5.64634C31.9416 5.16709 32.9765 5.43484 33.4535 6.23359L38.318 14.4101H43.25C46.6632 14.4101 49.4375 17.1844 49.4375 20.5976C49.4375 23.0074 48.0336 25.0819 46.0109 26.1011ZM8.9375 20.5931C8.9375 22.1434 10.1997 23.4056 11.75 23.4056H43.25C44.8003 23.4056 46.0625 22.1434 46.0625 20.5931C46.0625 19.0429 44.8003 17.7806 43.25 17.7806H11.75C10.1997 17.7806 8.9375 19.0429 8.9375 20.5931ZM42.5524 26.7806H12.5309L13.9865 41.3471C14.2835 44.3036 15.1723 45.9056 19.0243 45.9056H36.0567C39.8885 45.9056 40.8042 44.2339 41.0945 41.3471L42.5524 26.7806Z" fill="#9479F4"/>
</svg>
