<svg width="54" height="55" viewBox="0 0 54 55" fill="none" xmlns="http://www.w3.org/2000/svg">
<path d="M24.2279 32.9681V39.7181C24.2279 40.6496 23.4719 41.4056 22.5404 41.4056C21.6089 41.4056 20.8529 40.6496 20.8529 39.7181V32.9681C20.8529 32.0366 21.6089 31.2806 22.5404 31.2806C23.4719 31.2806 24.2279 32.0366 24.2279 32.9681ZM31.5404 31.2806C30.6089 31.2806 29.8529 32.0366 29.8529 32.9681V39.7181C29.8529 40.6496 30.6089 41.4056 31.5404 41.4056C32.4719 41.4056 33.2279 40.6496 33.2279 39.7181V32.9681C33.2279 32.0366 32.4719 31.2806 31.5404 31.2806ZM45.5109 26.1011L43.9538 41.6824C43.4431 46.7944 40.6979 49.2806 35.5589 49.2806H18.5265C13.3875 49.2806 10.6404 46.7966 10.1319 41.6824L8.57922 26.1483C6.50697 25.1471 5.0647 23.0434 5.0647 20.5931C5.0647 17.1799 7.83895 14.4056 11.2522 14.4056H16.1054L21.0578 6.2201C21.5393 5.4236 22.5721 5.16709 23.3753 5.65084C24.1718 6.13234 24.4282 7.17187 23.9444 7.96837L20.0498 14.4079H33.8895L30.0534 7.95934C29.5764 7.15834 29.8396 6.12334 30.6406 5.64634C31.4416 5.16709 32.4765 5.43484 32.9535 6.23359L37.818 14.4101H42.75C46.1632 14.4101 48.9375 17.1844 48.9375 20.5976C48.9375 23.0074 47.5336 25.0819 45.5109 26.1011ZM8.4375 20.5931C8.4375 22.1434 9.69975 23.4056 11.25 23.4056H42.75C44.3003 23.4056 45.5625 22.1434 45.5625 20.5931C45.5625 19.0429 44.3003 17.7806 42.75 17.7806H11.25C9.69975 17.7806 8.4375 19.0429 8.4375 20.5931ZM42.0524 26.7806H12.0309L13.4865 41.3471C13.7835 44.3036 14.6723 45.9056 18.5243 45.9056H35.5567C39.3885 45.9056 40.3042 44.2339 40.5945 41.3471L42.0524 26.7806Z" fill="#9479F4"/>
</svg>
