<svg width="54" height="55" viewBox="0 0 54 55" fill="none" xmlns="http://www.w3.org/2000/svg">
<path d="M41.625 16.6553H36.5625V14.9678C36.5625 9.69377 32.274 5.40527 27 5.40527C21.726 5.40527 17.4375 9.69377 17.4375 14.9678V16.6553H12.375C9.585 16.6553 7.3125 18.9255 7.3125 21.7178V40.8428C7.3125 46.2833 10.3095 49.2803 15.75 49.2803H38.25C43.6905 49.2803 46.6875 46.2833 46.6875 40.8428V21.7178C46.6875 18.9255 44.415 16.6553 41.625 16.6553ZM20.8125 14.9678C20.8125 11.5545 23.5868 8.78027 27 8.78027C30.4132 8.78027 33.1875 11.5545 33.1875 14.9678V16.6553H20.8125V14.9678ZM43.3125 40.8428C43.3125 44.391 41.7982 45.9053 38.25 45.9053H15.75C12.2017 45.9053 10.6875 44.391 10.6875 40.8428V21.7178C10.6875 20.7863 11.4458 20.0303 12.375 20.0303H17.4375V25.0928C17.4375 26.0243 18.1935 26.7803 19.125 26.7803C20.0565 26.7803 20.8125 26.0243 20.8125 25.0928V20.0303H33.1875V25.0928C33.1875 26.0243 33.9435 26.7803 34.875 26.7803C35.8065 26.7803 36.5625 26.0243 36.5625 25.0928V20.0303H41.625C42.5542 20.0303 43.3125 20.7863 43.3125 21.7178V40.8428Z" fill="#9479F4"/>
</svg>
