<svg width="54" height="55" viewBox="0 0 54 55" fill="none" xmlns="http://www.w3.org/2000/svg">
<path d="M27 51.53C25.2698 51.53 23.6858 50.7358 22.6486 49.3543L19.2758 44.8543C18.8865 44.3391 18.27 44.0308 17.6243 44.0308H14.2493C8.32502 44.0308 5.0625 40.7682 5.0625 34.844V12.344C5.0625 6.41974 8.32502 3.15723 14.2493 3.15723H39.7507C45.675 3.15723 48.9375 6.41974 48.9375 12.344V34.844C48.9375 40.7682 45.675 44.0308 39.7507 44.0308H36.3757C35.73 44.0308 35.1112 44.339 34.7242 44.8565L31.3492 49.3543C30.3142 50.7358 28.7302 51.53 27 51.53ZM14.2493 6.53003C10.1745 6.53003 8.4375 8.26705 8.4375 12.3418V34.8418C8.4375 38.9165 10.1745 40.6536 14.2493 40.6536H17.6243C19.3253 40.6536 20.9519 41.4658 21.9757 42.8271L25.3507 47.3293C26.1382 48.3778 27.8663 48.3778 28.6493 47.3293L32.0265 42.8293C33.0503 41.468 34.6769 40.6536 36.3779 40.6536H39.7529C43.8277 40.6536 45.5647 38.9143 45.5647 34.8418V12.3418C45.5647 8.26705 43.8277 6.53003 39.7529 6.53003H14.2493ZM33.0661 35.78C32.5846 35.78 32.1007 35.663 31.6552 35.429L27 32.9788L22.3492 35.4268C21.3187 35.9668 20.0992 35.8813 19.161 35.1973C18.2205 34.5133 17.757 33.3748 17.955 32.2273L18.8438 27.0411L14.9535 23.2453C14.1457 22.4578 13.8599 21.299 14.2086 20.2257C14.5574 19.1525 15.4687 18.3853 16.5847 18.2233L21.96 17.4403L24.2864 12.7197C24.8016 11.6757 25.8389 11.03 27.0022 11.03C28.1654 11.03 29.205 11.6781 29.718 12.7221L32.0444 17.4425L37.4219 18.2255C38.5357 18.3875 39.4448 19.1548 39.7958 20.2281C40.1445 21.3013 39.8587 22.46 39.0509 23.2475L35.1606 27.0433L36.0516 32.2341C36.2474 33.3816 35.7839 34.52 34.8434 35.2017C34.3102 35.5842 33.6916 35.78 33.0661 35.78ZM27 29.5453C27.4702 29.5453 27.9406 29.6578 28.3681 29.885L32.6025 32.1147L31.7947 27.392C31.6305 26.4357 31.9454 25.4615 32.6407 24.7842L36.0676 21.4385L31.3289 20.75C30.3704 20.6105 29.5448 20.0076 29.1173 19.1368L27.0022 14.846L24.8873 19.139C24.4598 20.0075 23.6318 20.6105 22.6755 20.75L17.9371 21.4385L21.3637 24.7842C22.059 25.4592 22.3739 26.4357 22.2097 27.392L21.4019 32.1125L25.6366 29.8828C26.0596 29.6578 26.5298 29.5453 27 29.5453ZM36.9338 21.5645H36.9564H36.9338ZM26.6872 14.2115C26.6872 14.2138 26.6872 14.2138 26.6872 14.2115C26.6872 14.2138 26.6872 14.2138 26.6872 14.2115Z" fill="#9479F4"/>
</svg>
