<svg width="45" height="45" viewBox="0 0 45 45" fill="none" xmlns="http://www.w3.org/2000/svg">
<path d="M37.3184 4.96289H30.0644C28.8921 2.04689 26.2619 0.462891 22.3334 0.462891H8.83337C3.39287 0.462891 0.395874 3.45989 0.395874 8.90039V35.9004C0.395874 41.3409 3.39287 44.3379 8.83337 44.3379H22.3334C26.2619 44.3379 28.8944 42.7539 30.0644 39.8379H37.3184C41.7374 39.8379 44.2709 37.3044 44.2709 32.8854V11.9154C44.2709 7.49638 41.7374 4.96289 37.3184 4.96289ZM22.3334 40.9629H8.83337C5.28512 40.9629 3.77087 39.4486 3.77087 35.9004V8.90039C3.77087 5.35214 5.28512 3.83789 8.83337 3.83789H22.3334C25.8816 3.83789 27.3959 5.35214 27.3959 8.90039V35.9004C27.3959 39.4486 25.8816 40.9629 22.3334 40.9629ZM40.8959 32.8854C40.8959 35.4594 39.8924 36.4629 37.3184 36.4629H30.7304C30.7394 36.2716 30.7709 36.0984 30.7709 35.9004V8.90039C30.7709 8.70239 30.7371 8.52914 30.7304 8.33789H37.3184C39.8924 8.33789 40.8959 9.34138 40.8959 11.9154V32.8854Z" fill="#9479F4"/>
</svg>
