<svg width="45" height="27" viewBox="0 0 45 27" fill="none" xmlns="http://www.w3.org/2000/svg">
<path d="M44.2709 2.15039V11.497C44.2709 12.4285 43.5149 13.1845 42.5834 13.1845C41.6519 13.1845 40.8959 12.4285 40.8959 11.497V6.22522L27.3666 19.7543C25.8299 21.2911 23.3346 21.2911 21.7979 19.7543L15.9794 13.936C15.7589 13.7155 15.4034 13.7155 15.1829 13.936L3.27363 25.8452C2.94513 26.1737 2.51313 26.3401 2.08113 26.3401C1.64913 26.3401 1.21713 26.1759 0.888633 25.8452C0.229383 25.1859 0.229383 24.1171 0.888633 23.4578L12.7979 11.5486C14.3346 10.0119 16.8299 10.0119 18.3666 11.5486L24.1851 17.367C24.4056 17.5875 24.7611 17.5875 24.9816 17.367L38.5109 3.83789H33.2391C32.3076 3.83789 31.5516 3.08189 31.5516 2.15039C31.5516 1.21889 32.3076 0.462891 33.2391 0.462891H42.5834C42.8039 0.462891 43.0221 0.508128 43.2291 0.593628C43.6409 0.764628 43.9694 1.09314 44.1404 1.50714C44.2259 1.71189 44.2709 1.92989 44.2709 2.15039Z" fill="#9479F4"/>
</svg>
