<svg width="34" height="35" viewBox="0 0 34 35" fill="none" xmlns="http://www.w3.org/2000/svg">
<path d="M29.0842 12.3421L20.5842 3.84206C20.3845 3.64231 20.1153 3.5304 19.8333 3.5304H11.3333C7.90784 3.5304 6.02084 5.4174 6.02084 8.8429V25.8429C6.02084 29.2684 7.90784 31.1554 11.3333 31.1554H24.0833C27.5088 31.1554 29.3958 29.2684 29.3958 25.8429V13.0929C29.3958 12.811 29.284 12.5404 29.0842 12.3421ZM20.8958 7.15849L25.7677 12.0304H24.0833C21.8493 12.0304 20.8958 11.077 20.8958 8.8429V7.15849ZM24.0833 29.0304H11.3333C9.09926 29.0304 8.14584 28.077 8.14584 25.8429V8.8429C8.14584 6.60881 9.09926 5.6554 11.3333 5.6554H18.7708V8.8429C18.7708 12.2684 20.6578 14.1554 24.0833 14.1554H27.2708V25.8429C27.2708 28.077 26.3174 29.0304 24.0833 29.0304ZM13.8125 17.3429C13.8125 17.9294 13.3365 18.4054 12.75 18.4054C12.1635 18.4054 11.6875 17.9294 11.6875 17.3429C11.6875 16.7564 12.1635 16.2804 12.75 16.2804C13.3365 16.2804 13.8125 16.7564 13.8125 17.3429ZM13.8125 23.0096C13.8125 23.5961 13.3365 24.0721 12.75 24.0721C12.1635 24.0721 11.6875 23.5961 11.6875 23.0096C11.6875 22.4231 12.1635 21.9471 12.75 21.9471C13.3365 21.9471 13.8125 22.4231 13.8125 23.0096ZM23.7292 17.3429C23.7292 17.9294 23.2532 18.4054 22.6667 18.4054H16.2917C15.7052 18.4054 15.2292 17.9294 15.2292 17.3429C15.2292 16.7564 15.7052 16.2804 16.2917 16.2804H22.6667C23.2532 16.2804 23.7292 16.7564 23.7292 17.3429ZM23.7292 23.0096C23.7292 23.5961 23.2532 24.0721 22.6667 24.0721H16.2917C15.7052 24.0721 15.2292 23.5961 15.2292 23.0096C15.2292 22.4231 15.7052 21.9471 16.2917 21.9471H22.6667C23.2532 21.9471 23.7292 22.4231 23.7292 23.0096Z" fill="#9479F4"/>
</svg>
