<svg width="55" height="63" viewBox="0 0 55 63" fill="none" xmlns="http://www.w3.org/2000/svg">
<path d="M35.9939 53.2804C35.4292 53.2804 34.862 53.1454 34.3378 52.8709L27.5339 49.3091L20.6691 52.8663C19.4609 53.4963 18.0232 53.3974 16.914 52.5896C15.8115 51.7864 15.2714 50.4521 15.5009 49.1089L16.797 41.5849L11.1066 36.0297C10.1594 35.1094 9.82628 33.7595 10.2313 32.5062C10.6385 31.2507 11.703 30.3529 13.0103 30.1639L20.8537 29.0299L24.3028 22.1403C24.9103 20.9186 26.1322 20.1605 27.4979 20.1605C28.8637 20.1605 30.0853 20.9186 30.6928 22.1403L34.0928 28.9961L41.9878 30.1661C43.2951 30.3551 44.3615 31.2507 44.7665 32.5084C45.1738 33.7617 44.8387 35.1116 43.8915 36.0319L38.2192 41.5355L39.4994 49.1201C39.7312 50.4611 39.189 51.7954 38.0888 52.5987C37.4655 53.0487 36.7342 53.2804 35.9939 53.2804ZM27.5001 45.9252C28.0491 45.9252 28.598 46.0557 29.0975 46.3189L35.9017 49.8807L36.1738 49.6894L34.8755 42.1587C34.6865 41.0382 35.0557 39.9019 35.8657 39.1122L41.5401 33.6064L33.6585 32.3689C32.5358 32.2069 31.5658 31.5026 31.0663 30.4901L27.6688 23.6367C27.6508 23.6029 27.6172 23.5309 27.4979 23.5309L23.9271 30.4924C23.4276 31.5027 22.4601 32.2046 21.3374 32.3689L13.4939 33.5029L19.1302 39.11C19.9425 39.902 20.3113 41.0381 20.1223 42.1541L18.8264 49.6826L19.103 49.8761L25.9003 46.3189C26.402 46.0557 26.9511 45.9252 27.5001 45.9252ZM15.6876 24.5929V11.0929C15.6876 10.1614 14.9316 9.4054 14.0001 9.4054C13.0686 9.4054 12.3126 10.1614 12.3126 11.0929V24.5929C12.3126 25.5244 13.0686 26.2804 14.0001 26.2804C14.9316 26.2804 15.6876 25.5244 15.6876 24.5929ZM29.1876 15.5929V11.0929C29.1876 10.1614 28.4316 9.4054 27.5001 9.4054C26.5686 9.4054 25.8126 10.1614 25.8126 11.0929V15.5929C25.8126 16.5244 26.5686 17.2804 27.5001 17.2804C28.4316 17.2804 29.1876 16.5244 29.1876 15.5929ZM42.6876 24.5929V11.0929C42.6876 10.1614 41.9316 9.4054 41.0001 9.4054C40.0686 9.4054 39.3126 10.1614 39.3126 11.0929V24.5929C39.3126 25.5244 40.0686 26.2804 41.0001 26.2804C41.9316 26.2804 42.6876 25.5244 42.6876 24.5929Z" fill="#FFB93E"/>
</svg>
