<svg width="61" height="61" viewBox="0 0 61 61" fill="none" xmlns="http://www.w3.org/2000/svg">
<rect x="0.5" y="0.342896" width="60" height="60" rx="30" fill="#F6F4FE"/>
<path d="M36.1667 44.1554H24.8333C21.4078 44.1554 19.5208 42.2684 19.5208 38.8429V21.8429C19.5208 18.4174 21.4078 16.5304 24.8333 16.5304H36.1667C39.5922 16.5304 41.4792 18.4174 41.4792 21.8429V38.8429C41.4792 42.2684 39.5922 44.1554 36.1667 44.1554ZM24.8333 18.6554C22.5992 18.6554 21.6458 19.6088 21.6458 21.8429V38.8429C21.6458 41.077 22.5992 42.0304 24.8333 42.0304H36.1667C38.4007 42.0304 39.3542 41.077 39.3542 38.8429V21.8429C39.3542 19.6088 38.4007 18.6554 36.1667 18.6554H24.8333ZM33.6875 21.8429C33.6875 21.2564 33.2115 20.7804 32.625 20.7804H28.375C27.7885 20.7804 27.3125 21.2564 27.3125 21.8429C27.3125 22.4294 27.7885 22.9054 28.375 22.9054H32.625C33.2115 22.9054 33.6875 22.4294 33.6875 21.8429ZM30.5 37.4262C29.718 37.4262 29.0833 38.0609 29.0833 38.8429C29.0833 39.6249 29.718 40.2596 30.5 40.2596C31.282 40.2596 31.9167 39.6249 31.9167 38.8429C31.9167 38.0609 31.282 37.4262 30.5 37.4262Z" fill="#9479F4"/>
</svg>
