<svg width="55" height="63" viewBox="0 0 55 63" fill="none" xmlns="http://www.w3.org/2000/svg">
<path d="M42.4375 18.5111V17.8429C42.4375 12.4024 39.4405 9.4054 34 9.4054H11.5C8.08675 9.4054 5.3125 12.1796 5.3125 15.5929V44.8429C5.3125 50.2834 8.3095 53.2804 13.75 53.2804H40.75C46.1905 53.2804 49.1875 50.2834 49.1875 44.8429V26.8429C49.1875 21.9941 46.807 19.0871 42.4375 18.5111ZM45.8125 39.7804H37.375C35.2038 39.7804 33.4375 38.0141 33.4375 35.8429C33.4375 33.6716 35.2038 31.9054 37.375 31.9054H45.8125V39.7804ZM11.5 12.7804H34C37.5482 12.7804 39.0625 14.2946 39.0625 17.8429V18.4054H11.5C9.94975 18.4054 8.6875 17.1431 8.6875 15.5929C8.6875 14.0426 9.94975 12.7804 11.5 12.7804ZM40.75 49.9054H13.75C10.2017 49.9054 8.6875 48.3911 8.6875 44.8429V21.1031C9.53125 21.5351 10.4875 21.7804 11.5 21.7804H40.75C44.2982 21.7804 45.8125 23.2946 45.8125 26.8429V28.5304H37.375C33.343 28.5304 30.0625 31.8109 30.0625 35.8429C30.0625 39.8749 33.343 43.1554 37.375 43.1554H45.8125V44.8429C45.8125 48.3911 44.2982 49.9054 40.75 49.9054ZM38.5225 33.5929H38.545C39.7893 33.5929 40.795 34.6009 40.795 35.8429C40.795 37.0849 39.7893 38.0929 38.545 38.0929C37.303 38.0929 36.2838 37.0849 36.2838 35.8429C36.2838 34.6009 37.2805 33.5929 38.5225 33.5929Z" fill="#AD9879"/>
</svg>
