<svg width="55" height="63" viewBox="0 0 55 63" fill="none" xmlns="http://www.w3.org/2000/svg">
<path d="M49.6875 24.5929C49.6875 21.1797 46.9132 18.4054 43.5 18.4054H38.6108L33.7439 10.2289C33.2669 9.43014 32.232 9.16239 31.431 9.64164C30.6322 10.1186 30.3668 11.1536 30.8438 11.9546L34.6824 18.4031H20.8426L24.7373 11.9636C25.221 11.1671 24.9644 10.1299 24.1679 9.64614C23.3647 9.16239 22.3321 9.4189 21.8506 10.2154L16.8983 18.4009H12C8.58675 18.4009 5.8125 21.1752 5.8125 24.5884C5.8125 27.0387 7.25478 29.1424 9.32703 30.1436L10.8794 45.6777C11.3901 50.7897 14.1353 53.2759 19.2743 53.2759H36.3067C41.4457 53.2759 44.1931 50.7919 44.7016 45.6777L46.2584 30.0964C48.2834 29.0816 49.6875 27.0071 49.6875 24.5929ZM12 21.7804H43.5C45.0503 21.7804 46.3125 23.0427 46.3125 24.5929C46.3125 26.1432 45.0503 27.4054 43.5 27.4054H12C10.4497 27.4054 9.1875 26.1432 9.1875 24.5929C9.1875 23.0427 10.4497 21.7804 12 21.7804ZM41.3467 45.3469C41.0564 48.2336 40.1406 49.9054 36.3089 49.9054H19.2765C15.4245 49.9054 14.5357 48.3034 14.2387 45.3469L12.7831 30.7804H42.8048L41.3467 45.3469ZM33.4426 35.3457C34.1018 36.0049 34.1018 37.0736 33.4426 37.7329L27.4418 43.7337C27.1246 44.0509 26.697 44.2287 26.2493 44.2287C25.8015 44.2287 25.3717 44.0509 25.0567 43.7337L22.0574 40.7344C21.3982 40.0751 21.3982 39.0064 22.0574 38.3472C22.7167 37.6879 23.7855 37.6902 24.4448 38.3472L26.2515 40.1539L31.0596 35.3479C31.7166 34.6864 32.7833 34.6864 33.4426 35.3457Z" fill="#27C65D"/>
</svg>
