<svg width="61" height="61" viewBox="0 0 61 61" fill="none" xmlns="http://www.w3.org/2000/svg">
<rect x="0.25" y="0.342896" width="60" height="60" rx="30" fill="#F6F4FE"/>
<path d="M30.25 45.5721C29.1606 45.5721 28.1633 45.072 27.5102 44.2022L25.3866 41.3688C25.1415 41.0444 24.7533 40.8503 24.3468 40.8503H22.2218C18.4917 40.8503 16.4375 38.7961 16.4375 35.066V20.8994C16.4375 17.1693 18.4917 15.1151 22.2218 15.1151H38.2782C42.0083 15.1151 44.0625 17.1693 44.0625 20.8994V35.066C44.0625 38.7961 42.0083 40.8503 38.2782 40.8503H36.1532C35.7467 40.8503 35.3571 41.0444 35.1134 41.3702L32.9884 44.2022C32.3367 45.072 31.3394 45.5721 30.25 45.5721ZM22.2218 17.2387C19.6562 17.2387 18.5625 18.3324 18.5625 20.898V35.0647C18.5625 37.6302 19.6562 38.7239 22.2218 38.7239H24.3468C25.4178 38.7239 26.442 39.2353 27.0865 40.0924L29.2115 42.9271C29.7074 43.5873 30.7955 43.5873 31.2885 42.9271L33.4148 40.0938C34.0594 39.2367 35.0836 38.7239 36.1546 38.7239H38.2796C40.8452 38.7239 41.9389 37.6288 41.9389 35.0647V20.898C41.9389 18.3324 40.8452 17.2387 38.2796 17.2387H22.2218ZM34.0694 35.6554C33.7662 35.6554 33.4615 35.5817 33.181 35.4344L30.25 33.8917L27.3217 35.433C26.6729 35.773 25.9051 35.7192 25.3143 35.2885C24.7222 34.8579 24.4303 34.141 24.555 33.4185L25.1146 30.1531L22.6652 27.7632C22.1566 27.2673 21.9766 26.5377 22.1962 25.8619C22.4158 25.1862 22.9895 24.7032 23.6922 24.6012L27.0767 24.1081L28.5414 21.1359C28.8658 20.4786 29.519 20.0721 30.2514 20.0721C30.9838 20.0721 31.6383 20.4801 31.9613 21.1374L33.4261 24.1095L36.8119 24.6026C37.5132 24.7046 38.0856 25.1877 38.3066 25.8634C38.5262 26.5392 38.3462 27.2687 37.8376 27.7646L35.3882 30.1545L35.9492 33.4227C36.0724 34.1452 35.7806 34.862 35.1884 35.2913C34.8527 35.5321 34.4632 35.6554 34.0694 35.6554ZM30.25 31.7298C30.5461 31.7298 30.8422 31.8007 31.1114 31.9437L33.7775 33.3476L33.2689 30.374C33.1655 29.7719 33.3638 29.1585 33.8015 28.7321L35.9592 26.6255L32.9756 26.1921C32.3721 26.1042 31.8523 25.7246 31.5831 25.1764L30.2514 22.4747L28.9198 25.1777C28.6506 25.7246 28.1293 26.1042 27.5272 26.1921L24.5437 26.6255L26.7012 28.7321C27.139 29.1571 27.3373 29.7719 27.2339 30.374L26.7253 33.3462L29.3916 31.9424C29.6579 31.8007 29.9539 31.7298 30.25 31.7298ZM36.5046 26.7049H36.5188H36.5046ZM30.053 22.0752C30.053 22.0766 30.053 22.0766 30.053 22.0752C30.053 22.0766 30.053 22.0766 30.053 22.0752Z" fill="#9479F4"/>
</svg>
