<svg width="61" height="61" viewBox="0 0 61 61" fill="none" xmlns="http://www.w3.org/2000/svg">
<rect x="0.75" y="0.342896" width="60" height="60" rx="30" fill="#F6F4FE"/>
<path d="M39.9583 23.6137H36.7708V22.5512C36.7708 19.2306 34.0707 16.5304 30.75 16.5304C27.4293 16.5304 24.7292 19.2306 24.7292 22.5512V23.6137H21.5417C19.785 23.6137 18.3542 25.0431 18.3542 26.8012V38.8429C18.3542 42.2684 20.2412 44.1554 23.6667 44.1554H37.8333C41.2588 44.1554 43.1458 42.2684 43.1458 38.8429V26.8012C43.1458 25.0431 41.715 23.6137 39.9583 23.6137ZM26.8542 22.5512C26.8542 20.4021 28.6009 18.6554 30.75 18.6554C32.8991 18.6554 34.6458 20.4021 34.6458 22.5512V23.6137H26.8542V22.5512ZM41.0208 38.8429C41.0208 41.077 40.0674 42.0304 37.8333 42.0304H23.6667C21.4326 42.0304 20.4792 41.077 20.4792 38.8429V26.8012C20.4792 26.2147 20.9566 25.7387 21.5417 25.7387H24.7292V28.9262C24.7292 29.5127 25.2052 29.9887 25.7917 29.9887C26.3782 29.9887 26.8542 29.5127 26.8542 28.9262V25.7387H34.6458V28.9262C34.6458 29.5127 35.1218 29.9887 35.7083 29.9887C36.2948 29.9887 36.7708 29.5127 36.7708 28.9262V25.7387H39.9583C40.5434 25.7387 41.0208 26.2147 41.0208 26.8012V38.8429Z" fill="#9479F4"/>
</svg>
