<svg width="61" height="61" viewBox="0 0 61 61" fill="none" xmlns="http://www.w3.org/2000/svg">
<rect x="0.25" y="0.342896" width="60" height="60" rx="30" fill="#F6F4FE"/>
<path d="M42.3342 25.3421L33.8342 16.8421C33.6345 16.6423 33.3653 16.5304 33.0833 16.5304H24.5833C21.1578 16.5304 19.2708 18.4174 19.2708 21.8429V38.8429C19.2708 42.2684 21.1578 44.1554 24.5833 44.1554H37.3333C40.7588 44.1554 42.6458 42.2684 42.6458 38.8429V26.0929C42.6458 25.811 42.534 25.5404 42.3342 25.3421ZM34.1458 20.1585L39.0177 25.0304H37.3333C35.0993 25.0304 34.1458 24.077 34.1458 21.8429V20.1585ZM37.3333 42.0304H24.5833C22.3493 42.0304 21.3958 41.077 21.3958 38.8429V21.8429C21.3958 19.6088 22.3493 18.6554 24.5833 18.6554H32.0208V21.8429C32.0208 25.2684 33.9078 27.1554 37.3333 27.1554H40.5208V38.8429C40.5208 41.077 39.5674 42.0304 37.3333 42.0304ZM27.0625 30.3429C27.0625 30.9294 26.5865 31.4054 26 31.4054C25.4135 31.4054 24.9375 30.9294 24.9375 30.3429C24.9375 29.7564 25.4135 29.2804 26 29.2804C26.5865 29.2804 27.0625 29.7564 27.0625 30.3429ZM27.0625 36.0096C27.0625 36.5961 26.5865 37.0721 26 37.0721C25.4135 37.0721 24.9375 36.5961 24.9375 36.0096C24.9375 35.4231 25.4135 34.9471 26 34.9471C26.5865 34.9471 27.0625 35.4231 27.0625 36.0096ZM36.9792 30.3429C36.9792 30.9294 36.5032 31.4054 35.9167 31.4054H29.5417C28.9552 31.4054 28.4792 30.9294 28.4792 30.3429C28.4792 29.7564 28.9552 29.2804 29.5417 29.2804H35.9167C36.5032 29.2804 36.9792 29.7564 36.9792 30.3429ZM36.9792 36.0096C36.9792 36.5961 36.5032 37.0721 35.9167 37.0721H29.5417C28.9552 37.0721 28.4792 36.5961 28.4792 36.0096C28.4792 35.4231 28.9552 34.9471 29.5417 34.9471H35.9167C36.5032 34.9471 36.9792 35.4231 36.9792 36.0096Z" fill="#9479F4"/>
</svg>
