<svg width="55" height="63" viewBox="0 0 55 63" fill="none" xmlns="http://www.w3.org/2000/svg">
<path d="M49.3183 33.6243C49.3183 33.6131 49.3249 33.6041 49.3249 33.5929C49.3249 33.5614 49.3093 33.5366 49.307 33.5051C49.2823 33.3521 49.2485 33.1992 49.2148 33.0462C49.199 33.0012 49.1946 32.9539 49.1766 32.9112C49.0843 32.5197 48.9897 32.1281 48.8412 31.7433L46.5058 25.9744C45.473 23.3577 44.4042 20.6532 38.6802 20.6532H33.6853V16.7157C33.6853 13.9234 31.4128 11.6532 28.6228 11.6532H10.6228C7.8328 11.6532 5.5603 13.9234 5.5603 16.7157V41.4657C5.5603 44.0869 7.56945 46.2221 10.1232 46.4786C10.1029 46.6834 10.0603 46.8814 10.0603 47.0907C10.0603 50.5017 12.8346 53.2782 16.2478 53.2782C19.6611 53.2782 22.4353 50.5017 22.4353 47.0907C22.4353 46.8972 22.3947 46.7149 22.379 46.5282H32.6188C32.6008 46.7149 32.5625 46.8972 32.5625 47.0907C32.5625 50.5017 35.3368 53.2782 38.75 53.2782C42.1632 53.2782 44.9375 50.5017 44.9375 47.0907C44.9375 46.8814 44.8971 46.6811 44.8746 46.4786C47.4284 46.2221 49.4375 44.0869 49.4375 41.4657V34.8956C49.4375 34.4704 49.3813 34.0473 49.3183 33.6243ZM38.6824 24.0304C42.1092 24.0304 42.4289 24.8337 43.3739 27.2277L45.266 31.9054H33.6875V24.0304H38.6824ZM16.25 49.9054C14.6997 49.9054 13.4375 48.6431 13.4375 47.0929C13.4375 45.5426 14.6997 44.2804 16.25 44.2804C17.8003 44.2804 19.0625 45.5426 19.0625 47.0929C19.0625 48.6431 17.8003 49.9054 16.25 49.9054ZM38.75 49.9054C37.1998 49.9054 35.9375 48.6431 35.9375 47.0929C35.9375 45.5426 37.1998 44.2804 38.75 44.2804C40.3003 44.2804 41.5625 45.5426 41.5625 47.0929C41.5625 48.6431 40.3003 49.9054 38.75 49.9054ZM44.375 43.1554H43.484C42.3478 41.7919 40.6603 40.9054 38.75 40.9054C36.8398 40.9054 35.1522 41.7919 34.016 43.1554H20.9818C19.8456 41.7919 18.1581 40.9054 16.2478 40.9054C14.3376 40.9054 12.65 41.7919 11.5138 43.1554H10.6228C9.69355 43.1554 8.9353 42.3994 8.9353 41.4679V35.2804H22.9978C23.9293 35.2804 24.6853 34.5244 24.6853 33.5929C24.6853 32.6614 23.9293 31.9054 22.9978 31.9054H8.9353V16.7179C8.9353 15.7864 9.69355 15.0304 10.6228 15.0304H28.6228C29.5521 15.0304 30.3103 15.7864 30.3103 16.7179V35.2804H46.0603V41.4679C46.0626 42.3994 45.3042 43.1554 44.375 43.1554Z" fill="#6EA2EE"/>
</svg>
