<svg width="55" height="63" viewBox="0 0 55 63" fill="none" xmlns="http://www.w3.org/2000/svg">
<path d="M12.6301 30.3754V45.9679C12.6301 46.8904 11.8651 47.6554 10.9426 47.6554C10.0201 47.6554 9.25507 46.8904 9.25507 45.9679V30.3754C5.99257 29.6104 3.5625 26.7079 3.5625 23.2204V16.7179C3.5625 15.7954 4.3275 15.0304 5.25 15.0304C6.1725 15.0304 6.9375 15.7954 6.9375 16.7179V23.2204C6.9375 24.8179 7.88257 26.1904 9.25507 26.8429V16.7404C9.25507 15.8179 10.0201 15.0529 10.9426 15.0529C11.8651 15.0529 12.6301 15.8179 12.6301 16.7404V26.8429C14.0026 26.2129 14.9475 24.8404 14.9475 23.2204V16.7179C14.9475 15.7954 15.7125 15.0304 16.635 15.0304C17.5575 15.0304 18.3225 15.7954 18.3225 16.7179V23.2204C18.3225 26.7079 15.8926 29.6104 12.6301 30.3754ZM51.9375 15.5929V47.0929C51.9375 48.0154 51.1725 48.7804 50.25 48.7804C49.3275 48.7804 48.5625 48.0154 48.5625 47.0929V37.5304H43.2525C41.835 37.5304 40.6875 36.3829 40.6875 34.9654V26.1004C40.6875 14.0629 50.16 13.9054 50.25 13.9054C51.1725 13.9054 51.9375 14.6704 51.9375 15.5929ZM48.5625 17.6179C46.7175 18.2929 44.0625 20.2504 44.0625 26.1004V34.1554H48.5625V17.6179ZM39.27 39.3754C36.66 43.1554 32.34 45.4054 27.75 45.4054C23.16 45.4054 18.84 43.1554 16.2525 39.3979C15.735 38.6329 14.6774 38.4304 13.9124 38.9704C13.1474 39.4879 12.9449 40.5454 13.4849 41.3104C16.7024 45.9904 22.035 48.8029 27.7725 48.8029C33.51 48.8029 38.8425 46.0129 42.0825 41.3329C42.6225 40.5679 42.42 39.5104 41.655 38.9929C40.89 38.4529 39.8325 38.6554 39.315 39.4204L39.27 39.3754ZM21.72 18.6304C23.5875 17.7304 25.6125 17.2579 27.7275 17.2579C31.4175 17.2579 34.9049 18.6754 37.5374 21.2629C37.8749 21.5779 38.3025 21.7579 38.73 21.7579C39.1575 21.7579 39.6074 21.6004 39.9224 21.2629C40.5749 20.5879 40.5749 19.5304 39.9224 18.8779C36.6599 15.6604 32.3175 13.8829 27.7275 13.8829C25.095 13.8829 22.5749 14.4454 20.2349 15.5704C19.4024 15.9754 19.0425 16.9879 19.4475 17.8204C19.8525 18.6529 20.865 19.0129 21.6975 18.6079L21.72 18.6304ZM27.7275 21.7579C32.9925 21.7579 37.29 26.0554 37.29 31.3204C37.29 36.5854 32.9925 40.8829 27.7275 40.8829C22.4625 40.8829 18.165 36.5854 18.165 31.3204C18.165 26.0554 22.4625 21.7579 27.7275 21.7579ZM27.7275 25.1329C24.3075 25.1329 21.54 27.9004 21.54 31.3204C21.54 34.7404 24.3075 37.5079 27.7275 37.5079C31.1475 37.5079 33.915 34.7404 33.915 31.3204C33.915 27.9004 31.1475 25.1329 27.7275 25.1329Z" fill="#DD5183"/>
</svg>
