<svg width="60" height="61" viewBox="0 0 60 61" fill="none" xmlns="http://www.w3.org/2000/svg">
<rect y="0.342896" width="60" height="60" rx="30" fill="#F6F4FE"/>
<path d="M43.7375 31.7794C43.7375 31.7723 43.7416 31.7666 43.7416 31.7596C43.7416 31.7397 43.7318 31.7241 43.7304 31.7043C43.7148 31.608 43.6935 31.5117 43.6723 31.4153C43.6623 31.387 43.6596 31.3573 43.6482 31.3303C43.5901 31.0838 43.5306 30.8373 43.4371 30.595L41.9666 26.9627C41.3164 25.3152 40.6434 23.6123 37.0394 23.6123H33.8945V21.1332C33.8945 19.3751 32.4636 17.9457 30.707 17.9457H19.3736C17.617 17.9457 16.1861 19.3751 16.1861 21.1332V36.7165C16.1861 38.3669 17.4511 39.7113 19.0591 39.8728C19.0463 40.0017 19.0195 40.1264 19.0195 40.2582C19.0195 42.4058 20.7662 44.154 22.9153 44.154C25.0644 44.154 26.8111 42.4058 26.8111 40.2582C26.8111 40.1363 26.7856 40.0216 26.7757 39.904H33.223C33.2116 40.0216 33.1875 40.1363 33.1875 40.2582C33.1875 42.4058 34.9343 44.154 37.0833 44.154C39.2324 44.154 40.9792 42.4058 40.9792 40.2582C40.9792 40.1264 40.9537 40.0003 40.9396 39.8728C42.5475 39.7113 43.8125 38.3669 43.8125 36.7165V32.5798C43.8125 32.312 43.7771 32.0457 43.7375 31.7794ZM37.0408 25.7387C39.1984 25.7387 39.3997 26.2445 39.9947 27.7518L41.186 30.6971H33.8958V25.7387H37.0408ZM22.9167 42.0304C21.9406 42.0304 21.1458 41.2356 21.1458 40.2596C21.1458 39.2835 21.9406 38.4887 22.9167 38.4887C23.8928 38.4887 24.6875 39.2835 24.6875 40.2596C24.6875 41.2356 23.8928 42.0304 22.9167 42.0304ZM37.0833 42.0304C36.1073 42.0304 35.3125 41.2356 35.3125 40.2596C35.3125 39.2835 36.1073 38.4887 37.0833 38.4887C38.0594 38.4887 38.8542 39.2835 38.8542 40.2596C38.8542 41.2356 38.0594 42.0304 37.0833 42.0304ZM40.625 37.7804H40.064C39.3486 36.9219 38.2861 36.3637 37.0833 36.3637C35.8806 36.3637 34.8181 36.9219 34.1027 37.7804H25.896C25.1805 36.9219 24.118 36.3637 22.9153 36.3637C21.7125 36.3637 20.65 36.9219 19.9346 37.7804H19.3736C18.7885 37.7804 18.3111 37.3044 18.3111 36.7179V32.8221H27.1653C27.7518 32.8221 28.2278 32.3461 28.2278 31.7596C28.2278 31.1731 27.7518 30.6971 27.1653 30.6971H18.3111V21.1346C18.3111 20.5481 18.7885 20.0721 19.3736 20.0721H30.707C31.292 20.0721 31.7695 20.5481 31.7695 21.1346V32.8221H41.6861V36.7179C41.6875 37.3044 41.2101 37.7804 40.625 37.7804Z" fill="#9479F4"/>
</svg>
