<svg width="54" height="63" viewBox="0 0 54 63" fill="none" xmlns="http://www.w3.org/2000/svg">
<path d="M45.1125 27.8104L44.91 26.2804H47.25C48.1725 26.2804 48.9375 25.5154 48.9375 24.5929C48.9375 23.6704 48.1725 22.9054 47.25 22.9054H44.4825L44.235 20.9704C43.695 17.6629 43.065 13.9054 35.91 13.9054H18.09C10.935 13.9054 10.305 17.6629 9.74252 21.0154L9.49502 22.9054H6.72751C5.80501 22.9054 5.04001 23.6704 5.04001 24.5929C5.04001 25.5154 5.80501 26.2804 6.72751 26.2804H9.06751L8.86502 27.8104C7.76252 28.1929 6.95251 28.8004 6.48001 29.3404C5.35501 30.6229 4.86001 32.4004 5.10751 34.3579L5.98502 41.3779C6.30002 43.9429 7.20001 47.1829 10.665 48.3079V51.5704C10.665 52.4929 11.43 53.2579 12.3525 53.2579C13.275 53.2579 14.04 52.4929 14.04 51.5704V48.7579H39.915V51.5704C39.915 52.4929 40.68 53.2579 41.6025 53.2579C42.525 53.2579 43.29 52.4929 43.29 51.5704V48.3079C46.755 47.1604 47.655 43.9429 47.97 41.3779L48.8475 34.3579C49.095 32.4004 48.6 30.6229 47.475 29.3404C46.98 28.7779 46.1925 28.1929 45.09 27.8104H45.1125ZM18.09 17.2804H35.91C40.2075 17.2804 40.3875 18.3379 40.905 21.4654L41.67 27.4054H12.3525L13.095 21.5104C13.6125 18.3379 13.7925 17.2804 18.09 17.2804ZM44.64 40.9729C44.2125 44.3254 43.2225 45.4054 40.5 45.4054H13.5C10.7775 45.4054 9.76502 44.3254 9.36002 40.9729L8.48251 33.9529C8.37001 32.9854 8.55001 32.1304 9.04501 31.5904C9.51751 31.0504 10.26 30.7804 11.2725 30.7804H42.75C43.7625 30.7804 44.505 31.0504 44.9775 31.5904C45.45 32.1304 45.6525 32.9629 45.54 33.9529L44.6625 40.9729H44.64ZM40.5675 36.9004C40.8825 37.2154 41.0625 37.6429 41.0625 38.0929C41.0625 38.3179 41.0175 38.5429 40.9275 38.7454C40.8375 38.9479 40.725 39.1279 40.5675 39.2854C40.2525 39.6004 39.825 39.7804 39.375 39.7804C38.925 39.7804 38.4975 39.6004 38.1825 39.2854C38.025 39.1279 37.9125 38.9479 37.8225 38.7454C37.7325 38.5429 37.6875 38.3179 37.6875 38.0929C37.6875 37.6429 37.8675 37.2154 38.1825 36.9004C38.8125 36.2704 39.9375 36.2704 40.5675 36.9004ZM15.8175 36.9004C16.1325 37.2154 16.3125 37.6429 16.3125 38.0929C16.3125 38.3179 16.2675 38.5204 16.1775 38.7454C16.0875 38.9479 15.975 39.1279 15.8175 39.2854C15.66 39.4429 15.48 39.5554 15.2775 39.6454C15.075 39.7354 14.85 39.7804 14.625 39.7804C14.175 39.7804 13.7475 39.6004 13.4325 39.2854C13.275 39.1279 13.1625 38.9479 13.0725 38.7454C12.9825 38.5204 12.9375 38.3179 12.9375 38.0929C12.9375 37.8679 12.9825 37.6429 13.0725 37.4404C13.1625 37.2379 13.275 37.0579 13.4325 36.9004C13.59 36.7429 13.77 36.6304 13.9725 36.5404C14.4 36.3604 14.85 36.3604 15.2775 36.5404C15.48 36.6079 15.66 36.7429 15.8175 36.9004ZM34.3125 38.0929C34.3125 39.0154 33.5475 39.7804 32.625 39.7804H21.375C20.4525 39.7804 19.6875 39.0154 19.6875 38.0929C19.6875 37.1704 20.4525 36.4054 21.375 36.4054H32.625C33.5475 36.4054 34.3125 37.1704 34.3125 38.0929Z" fill="#6EA2EE"/>
</svg>
