<svg width="61" height="61" viewBox="0 0 61 61" fill="none" xmlns="http://www.w3.org/2000/svg">
<rect x="0.5" y="0.342896" width="60" height="60" rx="30" fill="#F6F4FE"/>
<path d="M40.0625 22.2636V21.8429C40.0625 18.4174 38.1755 16.5304 34.75 16.5304H20.5833C18.4342 16.5304 16.6875 18.2771 16.6875 20.4262V38.8429C16.6875 42.2684 18.5745 44.1554 22 44.1554H39C42.4255 44.1554 44.3125 42.2684 44.3125 38.8429V27.5096C44.3125 24.4566 42.8137 22.6263 40.0625 22.2636ZM42.1875 35.6554H36.875C35.5079 35.6554 34.3958 34.5433 34.3958 33.1762C34.3958 31.8091 35.5079 30.6971 36.875 30.6971H42.1875V35.6554ZM20.5833 18.6554H34.75C36.9841 18.6554 37.9375 19.6088 37.9375 21.8429V22.1971H20.5833C19.6072 22.1971 18.8125 21.4023 18.8125 20.4262C18.8125 19.4501 19.6072 18.6554 20.5833 18.6554ZM39 42.0304H22C19.7659 42.0304 18.8125 41.077 18.8125 38.8429V23.8956C19.3438 24.1676 19.9458 24.3221 20.5833 24.3221H39C41.2341 24.3221 42.1875 25.2755 42.1875 27.5096V28.5721H36.875C34.3363 28.5721 32.2708 30.6376 32.2708 33.1762C32.2708 35.7149 34.3363 37.7804 36.875 37.7804H42.1875V38.8429C42.1875 41.077 41.2341 42.0304 39 42.0304ZM37.5975 31.7596H37.6117C38.3951 31.7596 39.0284 32.3942 39.0284 33.1762C39.0284 33.9582 38.3951 34.5929 37.6117 34.5929C36.8297 34.5929 36.1879 33.9582 36.1879 33.1762C36.1879 32.3942 36.8155 31.7596 37.5975 31.7596Z" fill="#9479F4"/>
</svg>
