<svg width="61" height="61" viewBox="0 0 61 61" fill="none" xmlns="http://www.w3.org/2000/svg">
<rect x="0.75" y="0.342896" width="60" height="60" rx="30" fill="#F6F4FE"/>
<path d="M30.7628 28.5721C27.4421 28.5721 24.742 25.8705 24.742 22.5512C24.742 19.232 27.4421 16.5304 30.7628 16.5304C34.0835 16.5304 36.7836 19.232 36.7836 22.5512C36.7836 25.8705 34.0835 28.5721 30.7628 28.5721ZM30.7628 18.6554C28.6137 18.6554 26.867 20.4021 26.867 22.5512C26.867 24.7003 28.6137 26.4471 30.7628 26.4471C32.9119 26.4471 34.6586 24.7003 34.6586 22.5512C34.6586 20.4021 32.9105 18.6554 30.7628 18.6554ZM36.4123 44.1554H25.0877C21.6593 44.1554 19.7708 42.2784 19.7708 38.8699C19.7708 35.1001 21.9043 30.6971 27.9167 30.6971H33.5833C39.5957 30.6971 41.7292 35.0987 41.7292 38.8699C41.7292 42.2784 39.8407 44.1554 36.4123 44.1554ZM27.9167 32.8221C22.3307 32.8221 21.8958 37.4504 21.8958 38.8699C21.8958 41.0855 22.8507 42.0304 25.0877 42.0304H36.4123C38.6493 42.0304 39.6042 41.0855 39.6042 38.8699C39.6042 37.4518 39.1692 32.8221 33.5833 32.8221H27.9167Z" fill="#9479F4"/>
</svg>
