<svg width="61" height="61" viewBox="0 0 61 61" fill="none" xmlns="http://www.w3.org/2000/svg">
<rect x="0.25" y="0.342896" width="60" height="60" rx="30" fill="#F6F4FE"/>
<path d="M39.4583 23.6137H36.2708V22.5512C36.2708 19.2306 33.5707 16.5304 30.25 16.5304C26.9293 16.5304 24.2292 19.2306 24.2292 22.5512V23.6137H21.0417C19.285 23.6137 17.8542 25.0431 17.8542 26.8012V38.8429C17.8542 42.2684 19.7412 44.1554 23.1667 44.1554H37.3333C40.7588 44.1554 42.6458 42.2684 42.6458 38.8429V26.8012C42.6458 25.0431 41.215 23.6137 39.4583 23.6137ZM26.3542 22.5512C26.3542 20.4021 28.1009 18.6554 30.25 18.6554C32.3991 18.6554 34.1458 20.4021 34.1458 22.5512V23.6137H26.3542V22.5512ZM40.5208 38.8429C40.5208 41.077 39.5674 42.0304 37.3333 42.0304H23.1667C20.9326 42.0304 19.9792 41.077 19.9792 38.8429V26.8012C19.9792 26.2147 20.4566 25.7387 21.0417 25.7387H24.2292V28.9262C24.2292 29.5127 24.7052 29.9887 25.2917 29.9887C25.8782 29.9887 26.3542 29.5127 26.3542 28.9262V25.7387H34.1458V28.9262C34.1458 29.5127 34.6218 29.9887 35.2083 29.9887C35.7948 29.9887 36.2708 29.5127 36.2708 28.9262V25.7387H39.4583C40.0434 25.7387 40.5208 26.2147 40.5208 26.8012V38.8429Z" fill="#9479F4"/>
</svg>
