<svg width="55" height="55" viewBox="0 0 55 55" fill="none" xmlns="http://www.w3.org/2000/svg">
<path d="M46.807 35.3146C45.3175 34.4708 43.5513 34.4933 42.082 35.3753L37.6495 38.0348C36.9543 36.0683 35.0755 34.6554 32.875 34.6554H20.5C19.0577 34.6554 17.746 35.1729 16.693 36.0031C15.9708 35.1841 14.9268 34.6554 13.75 34.6554H9.25C7.07875 34.6554 5.3125 36.4216 5.3125 38.5929V47.5929C5.3125 49.7641 7.07875 51.5304 9.25 51.5304H13.75C14.9245 51.5304 15.9708 51.0016 16.693 50.1826C17.746 51.0129 19.0577 51.5304 20.5 51.5304H33.0932C35.5097 51.5304 37.8813 50.6979 39.7713 49.1881L47.428 43.0613C48.5462 42.1658 49.1875 40.8295 49.1875 39.3985C49.1875 37.6862 48.2965 36.1583 46.807 35.3146ZM14.3125 47.5929C14.3125 47.9034 14.0605 48.1554 13.75 48.1554H9.25C8.9395 48.1554 8.6875 47.9034 8.6875 47.5929V38.5929C8.6875 38.2824 8.9395 38.0304 9.25 38.0304H13.75C14.0605 38.0304 14.3125 38.2824 14.3125 38.5929V40.8429V45.3429V47.5929ZM45.3175 40.4265L37.6608 46.5511C36.3693 47.5839 34.747 48.1532 33.091 48.1532H20.5C18.9497 48.1532 17.6875 46.8909 17.6875 45.3407V40.8407C17.6875 39.2904 18.9497 38.0282 20.5 38.0282H32.875C33.8065 38.0282 34.5625 38.7842 34.5625 39.7157C34.5625 40.6472 33.8065 41.4032 32.875 41.4032H25C24.0685 41.4032 23.3125 42.1592 23.3125 43.0907C23.3125 44.0222 24.0685 44.7782 25 44.7782H32.875C34.7717 44.7782 36.43 43.7296 37.2962 42.1816L43.819 38.2688C44.4085 37.911 44.9418 38.1384 45.1443 38.2509C45.3445 38.3657 45.8125 38.7055 45.8125 39.3985C45.8125 39.8012 45.6325 40.1768 45.3175 40.4265ZM27.25 31.2804C35.0035 31.2804 41.3125 24.9714 41.3125 17.2179C41.3125 9.4644 35.0035 3.1554 27.25 3.1554C19.4965 3.1554 13.1875 9.4644 13.1875 17.2179C13.1875 24.9714 19.4965 31.2804 27.25 31.2804ZM27.25 6.5304C33.1427 6.5304 37.9375 11.3251 37.9375 17.2179C37.9375 23.1106 33.1427 27.9054 27.25 27.9054C21.3573 27.9054 16.5625 23.1106 16.5625 17.2179C16.5625 11.3251 21.3573 6.5304 27.25 6.5304ZM23.1257 16.8669C22.5227 16.0749 22.1875 15.0691 22.1875 14.0431C22.1875 11.9101 23.6095 10.1281 25.5287 9.59036V9.3429C25.5287 8.4114 26.2847 7.6554 27.2162 7.6554C28.1477 7.6554 28.9037 8.4114 28.9037 9.3429V9.56784C30.6925 10.0358 32.074 11.5772 32.2855 13.5369C32.3868 14.4639 31.7162 15.2965 30.7892 15.3977C29.8487 15.4922 29.0275 14.8284 28.9285 13.9014C28.8588 13.2624 28.366 12.7808 27.7787 12.7808H26.7145C26.0777 12.7808 25.558 13.3456 25.558 14.0431C25.558 14.3356 25.648 14.617 25.8122 14.8352C25.981 15.058 26.197 15.2064 26.449 15.2717L28.8903 15.9017C30.9063 16.4282 32.308 18.2776 32.308 20.3971C32.308 21.6188 31.8445 22.7754 31.0007 23.6507C30.4112 24.2604 29.6845 24.6653 28.8993 24.8723V25.0973C28.8993 26.0288 28.1433 26.7848 27.2118 26.7848C26.2803 26.7848 25.5243 26.0288 25.5243 25.0973V24.8545C23.7693 24.364 22.4193 22.8385 22.21 20.9057C22.1088 19.9787 22.7792 19.1462 23.7062 19.0449C24.6467 18.9459 25.4658 19.6143 25.567 20.5413C25.6368 21.1803 26.1295 21.6616 26.7168 21.6616H27.781C28.177 21.6616 28.4492 21.4411 28.5775 21.3106C28.8092 21.0698 28.9375 20.746 28.9375 20.4017C28.9375 19.8167 28.5708 19.3104 28.0465 19.1732L25.6053 18.5431C24.6175 18.2776 23.7377 17.6859 23.1257 16.8669Z" fill="#92929D"/>
</svg>
