<svg width="54" height="54" viewBox="0 0 54 54" fill="none" xmlns="http://www.w3.org/2000/svg">
<path d="M50.8875 43.3042L31.6667 52.2291C28.7209 53.6 25.2792 53.6 22.3333 52.2291L3.1125 43.3042C-0.0374999 41.8458 -0.0374999 37.3541 3.1125 35.8958L3.52088 35.7208L20.4958 43.5666C22.5375 44.5291 24.725 45.025 27 45.025C29.275 45.025 31.4625 44.5291 33.5042 43.5666L50.4791 35.7208L50.8875 35.8958C54.0375 37.3541 54.0375 41.8458 50.8875 43.3042ZM50.8875 23.2667L50.5083 23.0917L36.9167 29.4208L33.5042 30.9958C31.4625 31.9292 29.275 32.425 27 32.425C24.725 32.425 22.5375 31.9292 20.4958 30.9958L17.0834 29.4208L3.49168 23.0917L3.1125 23.2667C-0.0374999 24.7542 -0.0374999 29.2458 3.1125 30.7041L8.71254 33.3L22.3333 39.6C23.8208 40.3 25.3958 40.65 27 40.65C28.6042 40.65 30.1792 40.3 31.6667 39.6L45.2875 33.3L50.8875 30.7041C54.0375 29.2458 54.0375 24.7542 50.8875 23.2667ZM50.8875 10.6958L31.6667 1.77085C30.1792 1.10002 28.6042 0.75 27 0.75C25.3958 0.75 23.8208 1.10002 22.3333 1.77085L3.1125 10.6958C-0.0374999 12.1542 -0.0374999 16.6459 3.1125 18.1042L3.49168 18.2792L6.08747 19.475L8.68334 20.7L22.3333 27.0292C23.8208 27.7 25.3958 28.05 27 28.05C28.6042 28.05 30.1792 27.7 31.6667 27.0292L45.3167 20.7L47.9125 19.475L50.5083 18.2792L50.8875 18.1042C54.0375 16.6459 54.0375 12.1542 50.8875 10.6958Z" fill="white"/>
</svg>
