<svg width="25" height="25" viewBox="0 0 25 25" fill="none" xmlns="http://www.w3.org/2000/svg">
<path d="M11.2549 14.2129C11.0629 14.2129 10.8711 14.1399 10.7251 13.9929C9.07114 12.3379 8.87102 9.77492 10.251 7.89792C10.355 7.73692 10.5182 7.53992 10.7242 7.33292L14.084 3.97192C14.974 3.08192 16.1561 2.59192 17.4141 2.59192C18.6711 2.59192 19.853 3.08192 20.743 3.97092C22.579 5.80792 22.579 8.79493 20.743 10.6319L18.9031 12.4719C18.6101 12.7649 18.1351 12.7649 17.8421 12.4719C17.5491 12.1789 17.5491 11.7039 17.8421 11.4109L19.6819 9.57092C20.9329 8.31992 20.9329 6.28291 19.6819 5.03091C18.4679 3.81791 16.3561 3.81891 15.1441 5.03091L11.785 8.39093C11.654 8.52293 11.5559 8.63993 11.4839 8.74893C10.5219 10.0599 10.659 11.8039 11.785 12.9299C12.078 13.2229 12.078 13.6979 11.785 13.9909C11.639 14.1399 11.4459 14.2129 11.2549 14.2129ZM7.33598 22.0929C6.07898 22.0929 4.89713 21.6029 4.00713 20.7139C2.17113 18.8769 2.17113 15.8899 4.00713 14.0529L5.84697 12.2129C6.13997 11.9199 6.61501 11.9199 6.90801 12.2129C7.20101 12.5059 7.20101 12.9809 6.90801 13.2739L5.06816 15.1139C3.81716 16.3649 3.81716 18.4019 5.06816 19.6539C6.28216 20.8669 8.394 20.8659 9.606 19.6539L12.9651 16.2939C13.3111 15.9479 13.5692 15.5369 13.7142 15.1059C14.1402 13.9189 13.8511 12.6409 12.9651 11.7539C12.6721 11.4609 12.6721 10.9859 12.9651 10.6929C13.2591 10.3999 13.7339 10.4009 14.0259 10.6929C15.3069 11.9749 15.7411 13.8999 15.1312 15.5969C14.9192 16.2319 14.5339 16.8449 14.0259 17.3539L10.667 20.7139C9.77604 21.6029 8.59398 22.0929 7.33598 22.0929Z" fill="#25314C"/>
</svg>
