<svg width="25" height="25" viewBox="0 0 25 25" fill="none" xmlns="http://www.w3.org/2000/svg">
<path d="M22.125 4.8429V8.3429C22.125 8.7569 21.789 9.0929 21.375 9.0929C20.961 9.0929 20.625 8.7569 20.625 8.3429V4.8429C20.625 4.2539 20.464 4.0929 19.875 4.0929H16.375C15.961 4.0929 15.625 3.7569 15.625 3.3429C15.625 2.9289 15.961 2.5929 16.375 2.5929H19.875C21.284 2.5929 22.125 3.4339 22.125 4.8429ZM3.375 9.0929C3.789 9.0929 4.125 8.7569 4.125 8.3429V4.8429C4.125 4.2539 4.286 4.0929 4.875 4.0929H8.375C8.789 4.0929 9.125 3.7569 9.125 3.3429C9.125 2.9289 8.789 2.5929 8.375 2.5929H4.875C3.466 2.5929 2.625 3.4339 2.625 4.8429V8.3429C2.625 8.7569 2.961 9.0929 3.375 9.0929ZM8.375 20.5929H4.875C4.286 20.5929 4.125 20.4319 4.125 19.8429V16.3429C4.125 15.9289 3.789 15.5929 3.375 15.5929C2.961 15.5929 2.625 15.9289 2.625 16.3429V19.8429C2.625 21.2519 3.466 22.0929 4.875 22.0929H8.375C8.789 22.0929 9.125 21.7569 9.125 21.3429C9.125 20.9289 8.789 20.5929 8.375 20.5929ZM21.375 15.5929C20.961 15.5929 20.625 15.9289 20.625 16.3429V19.8429C20.625 20.4319 20.464 20.5929 19.875 20.5929H16.375C15.961 20.5929 15.625 20.9289 15.625 21.3429C15.625 21.7569 15.961 22.0929 16.375 22.0929H19.875C21.284 22.0929 22.125 21.2519 22.125 19.8429V16.3429C22.125 15.9289 21.789 15.5929 21.375 15.5929ZM12.625 10.5929V8.0929C12.625 7.1819 13.214 6.5929 14.125 6.5929H16.625C17.536 6.5929 18.125 7.1819 18.125 8.0929V10.5929C18.125 11.5039 17.536 12.0929 16.625 12.0929H14.125C13.214 12.0929 12.625 11.5039 12.625 10.5929ZM14.125 10.5929H16.6169L16.625 8.10089L14.1331 8.0929L14.125 10.5929ZM12.125 8.0929V10.5929C12.125 11.5039 11.536 12.0929 10.625 12.0929H8.125C7.214 12.0929 6.625 11.5039 6.625 10.5929V8.0929C6.625 7.1819 7.214 6.5929 8.125 6.5929H10.625C11.536 6.5929 12.125 7.1819 12.125 8.0929ZM10.625 8.10089L8.13306 8.0929L8.125 10.5929H10.6169L10.625 8.10089ZM16.625 18.0929H14.125C13.214 18.0929 12.625 17.5039 12.625 16.5929V14.0929C12.625 13.1819 13.214 12.5929 14.125 12.5929H16.625C17.536 12.5929 18.125 13.1819 18.125 14.0929V16.5929C18.125 17.5039 17.536 18.0929 16.625 18.0929ZM16.6169 16.5929L16.625 14.1009L14.1331 14.0929L14.125 16.5929H16.6169ZM12.125 14.0929V16.5929C12.125 17.5039 11.536 18.0929 10.625 18.0929H8.125C7.214 18.0929 6.625 17.5039 6.625 16.5929V14.0929C6.625 13.1819 7.214 12.5929 8.125 12.5929H10.625C11.536 12.5929 12.125 13.1819 12.125 14.0929ZM10.625 14.1009L8.13306 14.0929L8.125 16.5929H10.6169L10.625 14.1009Z" fill="#25314C"/>
</svg>
