<svg width="54" height="55" viewBox="0 0 54 55" fill="none" xmlns="http://www.w3.org/2000/svg">
<path d="M24.2279 32.9679V39.7179C24.2279 40.6494 23.4719 41.4054 22.5404 41.4054C21.6089 41.4054 20.8529 40.6494 20.8529 39.7179V32.9679C20.8529 32.0364 21.6089 31.2804 22.5404 31.2804C23.4719 31.2804 24.2279 32.0364 24.2279 32.9679ZM31.5404 31.2804C30.6089 31.2804 29.8529 32.0364 29.8529 32.9679V39.7179C29.8529 40.6494 30.6089 41.4054 31.5404 41.4054C32.4719 41.4054 33.2279 40.6494 33.2279 39.7179V32.9679C33.2279 32.0364 32.4719 31.2804 31.5404 31.2804ZM45.5109 26.1009L43.9538 41.6822C43.4431 46.7942 40.6979 49.2804 35.5589 49.2804H18.5265C13.3875 49.2804 10.6404 46.7964 10.1319 41.6822L8.57922 26.1482C6.50697 25.1469 5.0647 23.0432 5.0647 20.5929C5.0647 17.1797 7.83895 14.4054 11.2522 14.4054H16.1054L21.0578 6.21992C21.5393 5.42342 22.5721 5.1669 23.3753 5.65065C24.1718 6.13215 24.4282 7.17169 23.9444 7.96819L20.0498 14.4077H33.8895L30.0534 7.95916C29.5764 7.15816 29.8396 6.12316 30.6406 5.64616C31.4416 5.16691 32.4765 5.43466 32.9535 6.23341L37.818 14.4099H42.75C46.1632 14.4099 48.9375 17.1842 48.9375 20.5974C48.9375 23.0072 47.5336 25.0817 45.5109 26.1009ZM8.4375 20.5929C8.4375 22.1432 9.69975 23.4054 11.25 23.4054H42.75C44.3003 23.4054 45.5625 22.1432 45.5625 20.5929C45.5625 19.0427 44.3003 17.7804 42.75 17.7804H11.25C9.69975 17.7804 8.4375 19.0427 8.4375 20.5929ZM42.0524 26.7804H12.0309L13.4865 41.3469C13.7835 44.3034 14.6723 45.9054 18.5243 45.9054H35.5567C39.3885 45.9054 40.3042 44.2337 40.5945 41.3469L42.0524 26.7804Z" fill="#9479F4"/>
</svg>
