<svg width="54" height="54" viewBox="0 0 54 54" fill="none" xmlns="http://www.w3.org/2000/svg">
<path d="M50.3332 30.15V44.5C50.3332 50.3333 47.4165 53.25 41.5832 53.25H33.7956C33.3114 53.25 32.9208 52.8592 32.9208 52.375V43.3975C32.9208 40.4896 30.9518 37.7771 28.0847 37.2929C24.4418 36.6804 21.2541 39.5067 21.2541 43.0417V52.375C21.2541 52.8592 20.8632 53.25 20.379 53.25H12.4165C6.58322 53.25 3.66655 50.3333 3.66655 44.5V30.15C5.38738 30.9667 7.28329 31.375 9.20829 31.375C12.5333 31.375 15.7123 30.2083 18.1623 28.2833C20.6123 30.2083 23.7624 31.375 26.9999 31.375C30.2665 31.375 33.4167 30.2083 35.8667 28.2833C38.3167 30.2083 41.4957 31.375 44.8207 31.375C46.7165 31.375 48.6124 30.9667 50.3332 30.15ZM13.8749 0.75C6.58322 0.75 5.46601 3.14165 4.26434 6.69415L1.23125 15.6571C-0.0462525 19.4312 1.24576 23.7975 4.72826 25.81C6.03784 26.5683 7.56919 27 9.20544 27C13.0846 27 16.9023 24.5792 18.1157 21.1667C19.2998 24.5792 23.1179 27 26.997 27C30.8762 27 34.6939 24.5792 35.8781 21.1667C37.0914 24.5792 40.9124 27 44.7886 27C46.4278 27 47.9562 26.5683 49.2658 25.81C52.7483 23.7975 54.0403 19.4312 52.7628 15.6571L49.7294 6.69415C48.5335 3.14165 47.4165 0.75 40.1249 0.75H13.8749Z" fill="white"/>
</svg>
