<svg width="70" height="70" viewBox="0 0 70 70" fill="none" xmlns="http://www.w3.org/2000/svg">
<g filter="url(#filter0_d_1_1165)">
<path d="M61.25 25.0417H58.2167L58.5667 27.8417C59.7042 28.2792 60.5208 28.9208 61.0167 29.5042C62.3583 30.9917 62.9125 33.1208 62.6208 35.425L61.4833 44.525C61.075 47.8208 60.025 51.4667 56.1458 52.8667V57.8542C56.1458 59.05 55.1542 60.0417 53.9583 60.0417C52.7625 60.0417 51.7708 59.05 51.7708 57.8542V53.4792H18.2292V57.8542C18.2292 59.05 17.2375 60.0417 16.0417 60.0417C14.8458 60.0417 13.8542 59.05 13.8542 57.8542V52.8667C9.975 51.4667 8.92499 47.8208 8.51666 44.525L7.37916 35.425C7.0875 33.1208 7.64167 30.9917 8.98334 29.5042C9.47917 28.9208 10.2958 28.2792 11.4333 27.8417L11.7833 25.0417H8.75C7.55417 25.0417 6.5625 24.05 6.5625 22.8542C6.5625 21.6583 7.55417 20.6667 8.75 20.6667H12.3375L12.6583 18.2167C13.3583 13.8708 14.175 9 23.45 9H46.55C55.825 9 56.6417 13.8708 57.3417 18.1583L57.6625 20.6667H61.25C62.4458 20.6667 63.4375 21.6583 63.4375 22.8542C63.4375 24.05 62.4458 25.0417 61.25 25.0417ZM21.1458 40.3542C21.1458 39.7708 20.9125 39.2167 20.5042 38.8083C20.3 38.6042 20.0667 38.4292 19.8042 38.3417C19.25 38.1083 18.6667 38.1083 18.1125 38.3417C17.85 38.4583 17.6167 38.6042 17.4125 38.8083C17.2083 39.0125 17.0625 39.2458 16.9458 39.5083C16.8292 39.7708 16.7708 40.0625 16.7708 40.3542C16.7708 40.6458 16.8292 40.9083 16.9458 41.2C17.0625 41.4625 17.2083 41.6958 17.4125 41.9C17.8208 42.3083 18.375 42.5417 18.9583 42.5417C19.25 42.5417 19.5417 42.4833 19.8042 42.3667C20.0667 42.25 20.3 42.1042 20.5042 41.9C20.7083 41.6958 20.8542 41.4625 20.9708 41.2C21.0875 40.9083 21.1458 40.6458 21.1458 40.3542ZM44.4792 40.3542C44.4792 39.1583 43.4875 38.1667 42.2917 38.1667H27.7083C26.5125 38.1667 25.5208 39.1583 25.5208 40.3542C25.5208 41.55 26.5125 42.5417 27.7083 42.5417H42.2917C43.4875 42.5417 44.4792 41.55 44.4792 40.3542ZM53.2292 40.3542C53.2292 39.7708 52.9958 39.2167 52.5875 38.8083C51.7708 37.9917 50.3125 37.9917 49.4958 38.8083C49.0875 39.2167 48.8542 39.7708 48.8542 40.3542C48.8542 40.6458 48.9125 40.9375 49.0292 41.2C49.1458 41.4625 49.2917 41.6958 49.4958 41.9C49.9042 42.3083 50.4875 42.5417 51.0417 42.5417C51.625 42.5417 52.1792 42.3083 52.5875 41.9C52.7917 41.6958 52.9375 41.4625 53.0542 41.2C53.1708 40.9375 53.2292 40.6458 53.2292 40.3542ZM54.1042 27.2292L53.025 18.8C52.3541 14.7458 52.1208 13.375 46.55 13.375H23.45C17.8792 13.375 17.6458 14.7458 16.975 18.8583L15.8958 27.2292H54.1042Z" fill="white"/>
</g>
<defs>
<filter id="filter0_d_1_1165" x="-4" y="0" width="78" height="78" filterUnits="userSpaceOnUse" color-interpolation-filters="sRGB">
<feFlood flood-opacity="0" result="BackgroundImageFix"/>
<feColorMatrix in="SourceAlpha" type="matrix" values="0 0 0 0 0 0 0 0 0 0 0 0 0 0 0 0 0 0 127 0" result="hardAlpha"/>
<feOffset dy="4"/>
<feGaussianBlur stdDeviation="2"/>
<feComposite in2="hardAlpha" operator="out"/>
<feColorMatrix type="matrix" values="0 0 0 0 0 0 0 0 0 0 0 0 0 0 0 0 0 0 0.25 0"/>
<feBlend mode="normal" in2="BackgroundImageFix" result="effect1_dropShadow_1_1165"/>
<feBlend mode="normal" in="SourceGraphic" in2="effect1_dropShadow_1_1165" result="shape"/>
</filter>
</defs>
</svg>
