<svg width="19" height="19" viewBox="0 0 19 19" fill="none" xmlns="http://www.w3.org/2000/svg">
<path d="M6.97472 1.58398L4.10889 4.45773" stroke="#94A3B8" stroke-width="1.5" stroke-miterlimit="10" stroke-linecap="round" stroke-linejoin="round"/>
<path d="M12.0254 1.58398L14.8912 4.45773" stroke="#94A3B8" stroke-width="1.5" stroke-miterlimit="10" stroke-linecap="round" stroke-linejoin="round"/>
<path d="M1.5835 6.21419C1.5835 4.74961 2.36725 4.63086 3.341 4.63086H15.6593C16.6331 4.63086 17.4168 4.74961 17.4168 6.21419C17.4168 7.91628 16.6331 7.79753 15.6593 7.79753H3.341C2.36725 7.79753 1.5835 7.91628 1.5835 6.21419Z" stroke="#94A3B8" stroke-width="1.5"/>
<path d="M7.72656 11.084V13.8944" stroke="#94A3B8" stroke-width="1.5" stroke-linecap="round"/>
<path d="M11.3682 11.084V13.8944" stroke="#94A3B8" stroke-width="1.5" stroke-linecap="round"/>
<path d="M2.771 7.91602L3.88725 14.756C4.14058 16.2918 4.75016 17.416 7.01433 17.416H11.7881C14.2502 17.416 14.6143 16.3393 14.8993 14.851L16.2293 7.91602" stroke="#94A3B8" stroke-width="1.5" stroke-linecap="round"/>
</svg>
