<svg width="19" height="20" viewBox="0 0 19 20" fill="none" xmlns="http://www.w3.org/2000/svg">
<path d="M12.3343 9.57588H11.5843C11.5843 10.7476 10.6478 11.683 9.50018 11.683V12.433V13.183C11.4876 13.183 13.0843 11.5646 13.0843 9.57588H12.3343ZM9.50018 12.433V11.683C8.35259 11.683 7.41602 10.7476 7.41602 9.57588H6.66602H5.91602C5.91602 11.5646 7.51277 13.183 9.50018 13.183V12.433ZM6.66602 9.57588H7.41602C7.41602 8.40418 8.35259 7.46875 9.50018 7.46875V6.71875V5.96875C7.51277 5.96875 5.91602 7.58719 5.91602 9.57588H6.66602ZM9.50018 6.71875V7.46875C10.6478 7.46875 11.5843 8.40418 11.5843 9.57588H12.3343H13.0843C13.0843 7.58719 11.4876 5.96875 9.50018 5.96875V6.71875Z" fill="#94A3B8"/>
<path d="M16.712 11.6439L16.0783 11.2427L16.0777 11.2437L16.712 11.6439ZM16.712 7.50186L16.0777 7.90209L16.0783 7.90307L16.712 7.50186ZM2.28779 7.50186L2.92146 7.90307L2.92208 7.90209L2.28779 7.50186ZM2.28779 11.6439L2.92208 11.2437L2.92145 11.2427L2.28779 11.6439ZM9.49988 16.177V16.927C12.6155 16.927 15.4337 15.0751 17.3462 12.0441L16.712 11.6439L16.0777 11.2437C14.3644 13.9589 11.9734 15.427 9.49988 15.427V16.177ZM16.712 11.6439L17.3456 12.0451C17.7963 11.3334 17.9963 10.4303 17.9963 9.57288C17.9963 8.71548 17.7963 7.81238 17.3456 7.10064L16.712 7.50186L16.0783 7.90307C16.3401 8.31663 16.4963 8.9219 16.4963 9.57288C16.4963 10.2239 16.3401 10.8291 16.0783 11.2427L16.712 11.6439ZM16.712 7.50186L17.3462 7.10162C15.4337 4.07066 12.6155 2.21875 9.49988 2.21875V2.96875V3.71875C11.9734 3.71875 14.3644 5.18686 16.0777 7.90209L16.712 7.50186ZM9.49988 2.96875V2.21875C6.38425 2.21875 3.56604 4.07066 1.65351 7.10162L2.28779 7.50186L2.92208 7.90209C4.63538 5.18686 7.02634 3.71875 9.49988 3.71875V2.96875ZM2.28779 7.50186L1.65413 7.10064C1.20348 7.81238 1.00342 8.71548 1.00342 9.57288C1.00342 10.4303 1.20348 11.3334 1.65413 12.0451L2.28779 11.6439L2.92145 11.2427C2.6596 10.8291 2.50342 10.2239 2.50342 9.57288C2.50342 8.9219 2.6596 8.31663 2.92145 7.90307L2.28779 7.50186ZM2.28779 11.6439L1.65351 12.0441C3.56604 15.0751 6.38425 16.927 9.49988 16.927V16.177V15.427C7.02634 15.427 4.63538 13.9589 2.92208 11.2437L2.28779 11.6439Z" fill="#94A3B8"/>
</svg>
