<svg width="24" height="24" viewBox="0 0 24 24" fill="none" xmlns="http://www.w3.org/2000/svg">
<path d="M17.2902 4.14005L17.2202 7.93003C17.2102 8.45003 17.5403 9.14005 17.9603 9.45005L20.4403 11.33C22.0303 12.53 21.7703 14 19.8703 14.6L16.6403 15.61C16.1003 15.78 15.5303 16.3701 15.3903 16.9201L14.6203 19.86C14.0103 22.18 12.4902 22.41 11.2302 20.37L9.47024 17.52C9.15024 17 8.39024 16.6101 7.79024 16.6401L4.45028 16.81C2.06028 16.93 1.38027 15.5501 2.94027 13.7301L4.92025 11.43C5.29025 11 5.46024 10.2 5.29024 9.66004L4.28029 6.43003C3.69029 4.53003 4.75028 3.48005 6.64028 4.10005L9.59029 5.07005C10.0903 5.23005 10.8403 5.12004 11.2603 4.81004L14.3403 2.59004C16.0003 1.39004 17.3302 2.09005 17.2902 4.14005Z" stroke="#64748B" stroke-width="1.5" stroke-linecap="round" stroke-linejoin="round"/>
<path d="M21.9103 22L18.8804 18.97" stroke="#64748B" stroke-width="1.5" stroke-linecap="round" stroke-linejoin="round"/>
</svg>
