<svg width="23" height="22" viewBox="0 0 23 22" fill="none" xmlns="http://www.w3.org/2000/svg">
<path d="M2.60727 11.0877C4.5723 9.29942 8.17344 4.44329 10.3763 1.20383C10.8149 0.558693 11.8082 0.615366 12.2016 1.28908C14.3472 4.96358 17.8283 9.12203 19.6416 11.1082C19.77 11.2488 19.8568 11.4223 19.8908 11.6098L21.3281 19.5445C21.4392 20.1582 20.9677 20.7228 20.3441 20.7228H14.3682C13.9063 20.7228 13.5045 20.4064 13.3961 19.9575L12.049 14.3777C11.8027 13.3573 10.3512 13.3573 10.1049 14.3777L8.75777 19.9575C8.64937 20.4064 8.24758 20.7228 7.7857 20.7228H1.75057C1.12306 20.7228 0.650601 20.1516 0.768319 19.5352L2.26904 11.6775C2.31282 11.4482 2.43468 11.2447 2.60727 11.0877Z" stroke="#64748B" stroke-width="1.5"/>
</svg>
