<svg width="406" height="272" viewBox="0 0 406 272" fill="none" xmlns="http://www.w3.org/2000/svg">
<path d="M88.0283 224.013L129.817 235.231L154.296 146.259L131.625 133.455L88.0283 224.013Z" fill="#FFC08C"/>
<path d="M126.751 140.791C126.751 140.791 126.015 143.072 137.572 148.769" stroke="#D98A4A" stroke-miterlimit="10"/>
<path d="M139.216 148.726C139.216 148.726 156.477 157.068 168.966 138.504C181.462 119.942 182.857 84.0756 180.119 83.6527C177.375 83.228 148.961 84.6043 141.108 111.281C133.248 137.957 139.216 148.726 139.216 148.726Z" fill="#FFC08C"/>
<path d="M147.471 123.297L159.963 126.82C160.586 126.997 161.23 126.635 161.407 126.012C161.584 125.388 161.222 124.745 160.599 124.568L148.107 121.044C147.484 120.867 146.84 121.229 146.663 121.853C146.486 122.476 146.848 123.119 147.471 123.297Z" fill="#99908E"/>
<path d="M183.29 13.4958C183.021 14.4397 183.575 15.4246 184.519 15.6934C185.463 15.9623 186.448 15.4084 186.717 14.4645C186.985 13.5206 186.432 12.5357 185.488 12.2669C184.544 11.998 183.559 12.552 183.29 13.4958Z" fill="#99908E"/>
<path d="M144.101 77.971L187.721 90.3306C190.261 91.0504 192.904 89.5747 193.624 87.0346L205.682 44.4796C206.401 41.9395 204.926 39.2969 202.386 38.5772L158.766 26.2176C156.225 25.4978 153.583 26.9735 152.863 29.5136L140.805 72.0686C140.086 74.6086 141.561 77.2512 144.101 77.971Z" fill="white"/>
<path d="M153.09 28.6972C153.682 26.6092 155.856 25.3927 157.95 25.9869L203.196 38.8069C205.284 39.3993 206.5 41.5734 205.906 43.6674L195.134 81.7645L142.315 66.8003L153.088 28.7032L153.09 28.6972Z" fill="#E49CFF"/>
<path d="M135.731 92.6616C136.323 90.5736 138.497 89.3572 140.591 89.9513L185.837 102.771C187.925 103.364 189.141 105.538 188.547 107.632L182.987 127.755L130.146 112.843L135.729 92.6677L135.731 92.6616Z" fill="#8AC1D1"/>
<path d="M180.2 96.1875L139.586 84.8691" stroke="#8AC1D1" stroke-width="4" stroke-miterlimit="10" stroke-linecap="round"/>
<path d="M213.785 26.4074L153.988 9.2383L124.604 111.578L184.401 128.747L213.785 26.4074Z" fill="white"/>
<path d="M213.376 18.5241L158.521 2.77926C155.946 2.03797 153.253 3.53 152.512 6.10527L121.481 114.186C120.74 116.762 122.232 119.454 124.807 120.195L179.662 135.94C182.237 136.682 184.93 135.189 185.671 132.614L216.702 24.5331C217.444 21.9578 215.952 19.2654 213.376 18.5241ZM184.394 128.745L124.599 111.581L153.999 9.24349L213.795 26.4066L184.394 128.745Z" fill="#333333"/>
<path d="M159.42 127.154L146.945 123.576C146.322 123.399 145.967 122.751 146.143 122.134C146.32 121.511 146.968 121.156 147.591 121.334L160.066 124.911C160.689 125.088 161.044 125.736 160.868 126.353C160.691 126.977 160.043 127.331 159.42 127.154Z" fill="#99908E"/>
<path d="M186.76 14.9449C186.492 15.8888 185.502 16.4348 184.559 16.166C183.615 15.8972 183.069 14.9081 183.338 13.9642C183.606 13.0203 184.595 12.4743 185.539 12.7431C186.483 13.0119 187.029 14.0011 186.76 14.9449Z" fill="#99908E"/>
<path d="M213.798 26.4063L154.019 9.17458L153.066 12.4805L212.845 29.7122L213.798 26.4063Z" fill="#8AC1D1"/>
<path d="M202.877 32.8949L159.283 20.4439C156.744 19.7189 154.098 21.189 153.373 23.7276L141.226 66.2572C140.501 68.7958 141.971 71.4415 144.51 72.1665L188.104 84.6175C190.643 85.3425 193.288 83.8724 194.013 81.3338L206.16 38.8042C206.885 36.2656 205.415 33.62 202.877 32.8949Z" fill="#8AC1D1"/>
<path d="M139.486 76.3997L179.977 88.1609" stroke="#8AC1D1" stroke-width="4" stroke-miterlimit="10" stroke-linecap="round"/>
<path d="M137.574 82.0504L188.834 96.8606" stroke="#8AC1D1" stroke-width="4" stroke-miterlimit="10" stroke-linecap="round"/>
<path d="M135.717 87.5207L186.984 102.333" stroke="#8AC1D1" stroke-width="4" stroke-miterlimit="10" stroke-linecap="round"/>
<path d="M133.861 92.991L185.125 107.809" stroke="#8AC1D1" stroke-width="4" stroke-miterlimit="10" stroke-linecap="round"/>
<path d="M132.002 98.4673L156.013 105.446" stroke="#8AC1D1" stroke-width="4" stroke-miterlimit="10" stroke-linecap="round"/>
<path d="M213.45 59.8254C213.18 61.8278 212.567 66.4353 208.835 68.1225C205.195 69.7656 200.072 67.956 199.132 65.202C197.442 60.2722 208.67 50.741 212.197 52.6085C214.275 53.7045 213.607 58.7093 213.456 59.8273L213.45 59.8254Z" fill="#FFC08C"/>
<path d="M206.763 73.1982C206.493 75.2006 205.88 79.8081 202.148 81.4953C198.509 83.1384 193.386 81.3288 192.445 78.5748C190.756 73.645 201.983 64.1138 205.51 65.9813C207.589 67.0773 206.92 72.0821 206.769 73.2001L206.763 73.1982Z" fill="#FFC08C"/>
<path d="M192.358 76.9892C194.305 75.3089 196.055 74.5548 197.188 74.1842C198.262 73.835 198.615 73.8838 198.868 74.0466C200.031 74.8034 199.976 78.5752 198.162 80.1845C195.953 82.1399 191.83 80.3073 191.647 78.5808C191.589 78.063 191.887 77.5163 192.366 76.9851L192.358 76.9892Z" fill="#F9612F"/>
<path d="M198.904 63.2578C200.893 61.5904 202.679 60.8473 203.836 60.4841C204.934 60.1422 205.299 60.1947 205.558 60.3593C206.757 61.1272 206.733 64.9081 204.876 66.5045C202.625 68.4471 198.382 66.5777 198.181 64.8457C198.123 64.3279 198.421 63.7812 198.912 63.2537L198.904 63.2578Z" fill="#F9612F"/>
<path d="M216.318 47.2586C216.079 48.9219 215.529 52.7658 212.453 54.1998C209.458 55.6059 205.279 54.1507 204.542 51.8731C203.212 47.7898 212.495 39.7559 215.36 41.2698C217.048 42.1607 216.452 46.326 216.318 47.2586Z" fill="#FFC08C"/>
<path d="M204.93 50.8407C206.538 49.5828 207.999 49.0428 208.939 48.7844C209.836 48.5391 210.138 48.5853 210.354 48.7172C211.356 49.3327 211.398 52.2525 209.898 53.458C208.076 54.9203 204.554 53.4028 204.353 52.0589C204.294 51.6525 204.532 51.2386 204.924 50.8389L204.93 50.8407Z" fill="#F9612F"/>
<g style="mix-blend-mode:multiply" opacity="0.35">
<path d="M138.782 52.6708C139.679 61.3312 141.021 68.516 142.234 73.9512C143.567 79.9166 144.295 83.1713 145.935 87.3821C150.08 98.0483 153.973 99.2122 155.757 105.296C159.097 116.722 151.528 133.712 145.767 134.056C137.367 134.553 125.269 100.098 132.847 68.9635C134.494 62.1992 136.796 56.6939 138.782 52.6708Z" fill="#2F41BD"/>
</g>
<path d="M141.438 145.051C145.734 143.865 143.381 146.119 145.111 142.011C148.952 132.866 153.355 118.617 150.683 107.132C148.463 97.5934 142.411 91.593 140.091 85.6284C136.316 75.9239 145.447 60.1282 140.514 52.2991C137.654 47.7548 134.839 56.5101 125.681 71.2779C122.516 76.3811 127.794 97.9897 121.112 114.06C116.839 124.337 122.496 150.277 141.436 145.057L141.438 145.051Z" fill="#FFC08C"/>
<path d="M137.032 55.2534C137.764 53.8722 138.647 51.9519 139.293 51.1498C137.876 50.7496 136.432 52.7416 133.812 57.2223C134.272 57.8693 134.841 58.0958 135.302 58.0524C135.966 57.986 136.128 56.9633 137.034 55.2474L137.032 55.2534Z" fill="#F9612F"/>
<path d="M190.752 56.8982C187.9 66.2275 178.027 71.4768 168.698 68.6245C159.369 65.7723 154.119 55.8998 156.972 46.5705C159.824 37.2412 169.696 31.9919 179.026 34.8442C188.355 37.6964 193.604 47.5689 190.752 56.8982Z" fill="#9DDBED"/>
<path d="M183.533 49.8964C183.365 49.4569 183.025 49.1292 182.586 48.9949L172.48 45.9054C172.192 45.8172 171.891 45.9819 171.805 46.2646C171.719 46.5473 171.881 46.8536 172.164 46.94L182.269 50.0295C182.426 50.0773 182.493 50.203 182.516 50.276C182.567 50.41 182.557 50.5714 182.491 50.7024L176.66 56.3717L176.591 56.4491L174.341 55.7613C174.341 55.7613 174.329 55.7576 174.323 55.7558L168.699 54.0364C168.699 54.0364 168.65 53.9819 168.658 53.912L170.645 42.5949L167.998 41.7857C167.709 41.6975 167.409 41.8622 167.323 42.1449C167.236 42.4276 167.399 42.7339 167.682 42.8203L169.414 43.3499L167.593 53.7179C167.203 53.6381 166.77 53.6111 166.364 53.8223C165.941 54.0418 165.634 54.4673 165.442 55.0929C165.251 55.7184 165.281 56.2012 165.502 56.6174C165.813 57.1926 166.42 57.4241 166.919 57.5768C166.979 57.5951 167.034 57.6117 167.088 57.6283L167.382 57.7184C167.187 57.9282 167.032 58.1768 166.942 58.4715C166.631 59.4881 167.207 60.5719 168.224 60.8827C169.24 61.1935 170.324 60.6172 170.635 59.6007C170.725 59.3059 170.736 59.0132 170.685 58.728L172.988 59.4323C172.793 59.6421 172.632 59.8889 172.542 60.1836C172.231 61.2002 172.807 62.284 173.824 62.5948C174.84 62.9056 175.924 62.3293 176.235 61.3128C176.524 60.3684 176.045 59.3736 175.158 58.984C175.119 58.9591 175.087 58.936 175.045 58.9231L167.388 56.5821C167.003 56.4644 166.578 56.3477 166.449 56.1043C166.347 55.9218 166.405 55.6239 166.469 55.4133C166.539 55.1848 166.663 54.8872 166.857 54.7888C167.085 54.6677 167.492 54.7988 167.851 54.9151L168.345 55.0659C168.345 55.0659 168.361 55.0775 168.373 55.0811L178.376 58.1394C178.665 58.2276 178.965 58.0629 179.051 57.7802C179.138 57.4975 178.975 57.1912 178.692 57.1048L177.748 56.8161L183.287 51.4326L183.372 51.327C183.636 50.8946 183.694 50.3599 183.514 49.8969L183.533 49.8964ZM168.548 59.844C168.103 59.7079 167.852 59.2366 167.988 58.7915C168.124 58.3464 168.596 58.0958 169.041 58.2319C169.486 58.368 169.736 58.8393 169.6 59.2844C169.464 59.7295 168.993 59.98 168.548 59.844ZM174.154 61.5579C173.709 61.4218 173.458 60.9506 173.594 60.5054C173.73 60.0603 174.202 59.8098 174.647 59.9459C175.092 60.0819 175.342 60.5532 175.206 60.9983C175.07 61.4434 174.599 61.694 174.154 61.5579Z" fill="white"/>
<g style="mix-blend-mode:multiply" opacity="0.35">
<path d="M188.026 105.874C181.764 98.3031 175.674 90.8771 172.107 87.4846C163.588 79.3812 163.013 92.018 167.801 99.2896C172.783 106.851 180.62 118.435 183.317 122.417L188.027 105.868L188.026 105.874Z" fill="#2F41BD"/>
</g>
<path d="M182.237 118.634C182.237 118.634 173.54 105.688 167.443 96.4375C162.653 89.1719 163.228 76.5351 171.749 84.6324C180.269 92.7358 205.074 124.267 205.074 124.267L182.231 118.632L182.237 118.634Z" fill="#FFC08C"/>
<path d="M182.237 118.633C197.778 107.685 218.206 97.1057 236.108 103.5C236.108 103.5 246.239 123.52 244.794 157.655L223.293 168.327L182.237 118.633Z" fill="#FFC08C"/>
<path d="M191.691 128.93L190.414 148.554L218.029 161.792L211.142 139.034L191.691 128.93Z" fill="#FFC08C"/>
<path d="M190.414 148.554C190.414 148.554 173.219 136.384 171.596 128.462C169.973 120.54 163.59 114.978 166.372 112.527C168.417 110.719 174.77 112.529 178.408 120.015C182.416 128.265 192.985 129.773 192.985 129.773L190.414 148.554Z" fill="#FFC08C"/>
<path d="M204.82 95.0853C206.763 97.0144 211.241 101.449 210 106.864C208.795 112.139 202.643 116.19 198.904 114.955C192.193 112.745 191.095 92.8227 195.99 90.5373C198.875 89.1897 203.729 94.0084 204.82 95.0853Z" fill="#FFC08C"/>
<path d="M218.827 94.5136C220.77 96.4427 225.248 100.877 224.007 106.292C222.802 111.567 216.65 115.619 212.91 114.383C206.2 112.174 205.102 92.251 209.997 89.9656C212.882 88.618 217.736 93.4367 218.827 94.5136Z" fill="#FFC08C"/>
<path d="M231.734 97.7557C233.676 99.6848 238.155 104.119 236.913 109.534C235.709 114.809 229.557 118.861 225.817 117.625C219.106 115.416 218.008 95.4931 222.903 93.2077C225.788 91.8601 230.642 96.6788 231.734 97.7557Z" fill="#FFC08C"/>
<path d="M260.182 250.883L294.685 222.231L245.078 152.211L218.03 161.792L260.182 250.883Z" fill="#FFC08C"/>
<path d="M168.371 117.045C167.627 115.607 166.507 113.719 166.209 112.694C166.207 112.7 166.197 112.71 166.189 112.714C165.882 113.054 165.722 113.446 165.686 113.889C165.68 113.907 165.681 113.927 165.683 113.941C165.68 113.993 165.682 114.052 165.679 114.104C165.684 114.369 165.725 114.664 165.795 114.994C166.178 116.539 167.393 118.522 168.654 120.894C169.191 120.775 169.552 120.497 169.729 120.176C170.064 119.575 169.291 118.832 168.365 117.043L168.371 117.045Z" fill="#F9612F"/>
<path d="M173.621 86.5135C172.939 85.7984 172.308 85.1716 171.754 84.6403C168.12 81.1878 165.937 81.5071 164.992 83.5661C165.521 84.6751 166.252 86.0694 167.151 87.7978C167.431 88.3439 167.711 88.8502 168.284 89.1044C169.797 89.7709 172.505 88.2705 173.621 86.5135Z" fill="#F9612F"/>
<path d="M135 255.5C137.997 245.097 135.296 256.144 136.244 249.192C138.692 231.222 149.345 192.378 152.705 180.356C153.174 178.671 151.954 176.982 150.209 176.923C137.417 176.511 118.974 165.65 113.699 162.38C112.743 161.785 111.514 161.804 110.607 162.467C97.4931 172.059 82.4442 217.367 72.249 231.18C68.7005 235.988 61.8595 245.886 56.0001 255.5L100.5 255.5L135 255.5Z" fill="#9479F4"/>
<path d="M99.7616 241.423C100.377 239.776 103.35 238.936 104.912 240.347C105.984 241.313 106.269 243.222 105.378 244.351C104.24 245.792 101.605 245.42 100.41 244.035C99.8794 243.426 99.4072 242.367 99.7616 241.423Z" fill="white"/>
<path d="M126.786 198.182C127.402 196.535 130.375 195.695 131.936 197.106C133.009 198.072 133.294 199.981 132.403 201.109C131.265 202.551 128.629 202.179 127.435 200.794C126.904 200.185 126.432 199.126 126.786 198.182Z" fill="white"/>
<path d="M84.3321 233.006C84.9475 231.359 87.9208 230.518 89.4823 231.93C90.555 232.896 90.8396 234.805 89.9486 235.933C88.8108 237.374 86.1752 237.003 84.9805 235.618C84.45 235.008 83.9778 233.95 84.3321 233.006Z" fill="white"/>
<path d="M124.606 232.743C125.221 231.096 128.195 230.256 129.756 231.667C130.829 232.633 131.114 234.542 130.223 235.67C129.085 237.112 126.449 236.74 125.254 235.355C124.724 234.746 124.252 233.687 124.606 232.743Z" fill="white"/>
<path d="M105.252 212.77C105.867 211.123 108.841 210.283 110.402 211.694C111.475 212.66 111.759 214.569 110.868 215.698C109.731 217.139 107.095 216.767 105.9 215.382C105.37 214.773 104.897 213.714 105.252 212.77Z" fill="white"/>
<path d="M106.898 176.277C107.514 174.63 110.487 173.789 112.048 175.201C113.121 176.167 113.406 178.075 112.515 179.204C111.377 180.645 108.741 180.274 107.547 178.889C107.016 178.279 106.544 177.221 106.898 176.277Z" fill="white"/>
<path d="M333 256C318.494 241.252 268.351 171.198 263.197 165.314C262.505 164.524 261.258 164.642 260.708 165.54C253.814 176.836 232.313 187.272 227.319 189.579C226.652 189.888 226.209 190.542 226.215 191.274C226.244 207.101 254.615 239.68 260.708 256C278.5 256 278.5 256 278.5 256L333 256Z" fill="#9479F4"/>
<path d="M264.988 197.899C263.942 196.481 264.869 193.535 266.897 192.991C268.294 192.616 270.047 193.421 270.505 194.785C271.092 196.523 269.341 198.527 267.529 198.775C266.732 198.886 265.585 198.7 264.99 197.893L264.988 197.899Z" fill="white"/>
<path d="M259.977 246.519C258.93 245.1 259.857 242.154 261.885 241.61C263.283 241.235 265.036 242.041 265.494 243.404C266.08 245.142 264.33 247.146 262.518 247.394C261.721 247.506 260.574 247.32 259.979 246.513L259.977 246.519Z" fill="white"/>
<path d="M298.229 248.214C297.183 246.795 298.11 243.849 300.137 243.305C301.535 242.93 303.288 243.736 303.746 245.099C304.332 246.837 302.582 248.841 300.77 249.089C299.973 249.201 298.826 249.014 298.231 248.208L298.229 248.214Z" fill="white"/>
<path d="M292.759 218.591C291.713 217.172 292.64 214.226 294.667 213.682C296.065 213.307 297.818 214.112 298.276 215.476C298.862 217.214 297.112 219.218 295.3 219.466C294.503 219.578 293.356 219.391 292.761 218.585L292.759 218.591Z" fill="white"/>
<path d="M268.775 224.689C267.729 223.27 268.656 220.324 270.684 219.78C272.081 219.405 273.834 220.211 274.292 221.574C274.879 223.312 273.128 225.316 271.316 225.564C270.519 225.676 269.372 225.49 268.777 224.683L268.775 224.689Z" fill="white"/>
<path d="M235.779 202.611C234.733 201.192 235.66 198.246 237.687 197.702C239.085 197.327 240.838 198.132 241.296 199.496C241.883 201.234 240.132 203.238 238.32 203.486C237.523 203.597 236.376 203.411 235.781 202.604L235.779 202.611Z" fill="white"/>
<path d="M405.76 255.672C405.76 255.759 314.919 255.834 202.889 255.834C90.8591 255.834 -0.000244138 255.759 -0.000244139 255.672C-0.00024414 255.585 90.8224 255.51 202.889 255.51C314.955 255.51 405.76 255.585 405.76 255.672Z" fill="#263238"/>
</svg>
