<svg width="401" height="270" viewBox="0 0 401 270" fill="none" xmlns="http://www.w3.org/2000/svg">
<g clip-path="url(#clip0_9_3631)">
<mask id="mask0_9_3631" style="mask-type:luminance" maskUnits="userSpaceOnUse" x="43" y="0" width="315" height="270">
<path d="M349.415 190.985C339.649 176.036 322.634 166.357 315.088 150.172C310.62 140.601 309.979 129.775 307.819 119.435C307.495 117.876 307.117 116.338 306.719 114.799C307.826 114.508 308.926 114.205 310.026 113.861C330.922 107.381 349.631 88.132 347.782 66.3316C346.716 53.7643 339.042 42.4457 329.188 34.5624C319.34 26.6792 307.441 21.8196 295.502 17.7498C228.528 -5.08327 154.238 -5.86619 86.7984 15.5562C72.537 20.0851 57.6074 26.3552 49.6904 39.044C41.9827 51.4088 42.6509 67.0268 43.5755 81.5649C44.4597 95.4146 45.8973 110.56 55.6771 120.407C59.3015 124.052 63.0474 126.637 66.881 128.372C61.1576 132.246 55.9403 136.613 51.9785 142.302C41.7735 156.962 42.7589 176.562 46.066 194.124C50.9593 220.055 61.6638 246.897 74.4875 269.966L322.958 268.846C338.367 263.777 349.699 252.931 355.065 237.623C360.43 222.316 358.277 204.572 349.415 190.992V190.985Z" fill="white"/>
</mask>
<g mask="url(#mask0_9_3631)">
<path d="M242.91 29.3052H135.581C125.797 29.3052 117.864 37.2374 117.864 47.0222V268.009C117.864 277.794 125.797 285.726 135.581 285.726H242.91C252.694 285.726 260.627 277.794 260.627 268.009V47.0222C260.627 37.2374 252.694 29.3052 242.91 29.3052Z" fill="#282844"/>
<path d="M252.082 268.01V47.0222C252.082 41.9565 247.975 37.8499 242.91 37.8499L135.581 37.8499C130.516 37.8499 126.409 41.9565 126.409 47.0222L126.409 268.01C126.409 273.075 130.516 277.182 135.581 277.182H242.91C247.975 277.182 252.082 273.075 252.082 268.01Z" fill="#EEEEEE"/>
<path d="M162.525 32.8688H215.953V38.6328C215.953 42.6824 212.666 45.9693 208.616 45.9693H169.861C165.812 45.9693 162.525 42.6824 162.525 38.6328V32.8688Z" fill="#282844"/>
<path d="M199.228 40.4079H172.467C171.549 40.4079 170.8 39.6654 170.8 38.7408C170.8 37.8228 171.542 37.0737 172.467 37.0737H199.228C200.146 37.0737 200.895 37.8161 200.895 38.7408C200.895 39.6587 200.152 40.4079 199.228 40.4079Z" fill="#3B3B5B"/>
<path d="M209.305 38.7408C209.305 39.6587 208.562 40.4079 207.638 40.4079C206.713 40.4079 205.97 39.6654 205.97 38.7408C205.97 37.8161 206.713 37.0737 207.638 37.0737C208.562 37.0737 209.305 37.8161 209.305 38.7408Z" fill="#3B3B5B"/>
<path d="M215.163 271.695H163.328C162.073 271.695 161.06 270.675 161.06 269.427C161.06 268.171 162.079 267.159 163.328 267.159H215.163C216.418 267.159 217.431 268.178 217.431 269.427C217.431 270.682 216.412 271.695 215.163 271.695Z" fill="#282844"/>
<path d="M228.574 65.1375H150.383C146.163 65.1375 142.743 68.5581 142.743 72.7777V127.596C142.743 131.816 146.163 135.236 150.383 135.236H228.574C232.794 135.236 236.214 131.816 236.214 127.596V72.7777C236.214 68.5581 232.794 65.1375 228.574 65.1375Z" fill="#BAC6DB"/>
<path d="M194.755 90.9289C198.457 89.2531 200.099 84.894 198.423 81.1927C196.747 77.4913 192.388 75.8494 188.686 77.5253C184.985 79.2012 183.343 83.5602 185.019 87.2616C186.695 90.9629 191.054 92.6048 194.755 90.9289Z" fill="#D5DBEA"/>
<path d="M236.214 116.291V127.596C236.214 131.814 232.792 135.236 228.574 135.236H186.181L183.859 131.983L192.809 112.936L213.698 101.624C214.427 101.226 215.318 101.287 215.993 101.773L236.214 116.291Z" fill="#B0BDD1"/>
<path d="M214.893 135.236H150.383C146.164 135.236 142.743 131.814 142.743 127.596V123.135C149.08 117.168 164.766 101.955 170.955 95.9482C172.379 94.5646 174.647 94.5916 176.044 96.0022L214.893 135.236Z" fill="#D8DEEA"/>
<path d="M182.935 152.035H149.701C148.091 152.035 146.785 153.341 146.785 154.951V155.849C146.785 157.459 148.091 158.765 149.701 158.765H182.935C184.545 158.765 185.851 157.459 185.851 155.849V154.951C185.851 153.341 184.545 152.035 182.935 152.035Z" fill="#BAC6DB"/>
<path d="M182.935 167.687H149.701C148.091 167.687 146.785 168.993 146.785 170.603V171.501C146.785 173.111 148.091 174.416 149.701 174.416H182.935C184.545 174.416 185.851 173.111 185.851 171.501V170.603C185.851 168.993 184.545 167.687 182.935 167.687Z" fill="#BAC6DB"/>
<path d="M182.935 182.441H149.701C148.091 182.441 146.785 183.747 146.785 185.357V186.255C146.785 187.865 148.091 189.17 149.701 189.17H182.935C184.545 189.17 185.851 187.865 185.851 186.255V185.357C185.851 183.747 184.545 182.441 182.935 182.441Z" fill="#BAC6DB"/>
<path d="M182.935 197.269H149.701C148.091 197.269 146.785 198.575 146.785 200.185V201.083C146.785 202.693 148.091 203.999 149.701 203.999H182.935C184.545 203.999 185.851 202.693 185.851 201.083V200.185C185.851 198.575 184.545 197.269 182.935 197.269Z" fill="#BAC6DB"/>
<path d="M229.775 144.24H199.363C195.807 144.24 192.924 147.123 192.924 150.679V214.858C192.924 218.414 195.807 221.297 199.363 221.297H229.775C233.332 221.297 236.214 218.414 236.214 214.858V150.679C236.214 147.123 233.332 144.24 229.775 144.24Z" fill="#DCE3EF"/>
<path d="M230.147 228.944H153.973C150.622 228.944 147.906 231.661 147.906 235.012V244.67C147.906 248.021 150.622 250.738 153.973 250.738H230.147C233.498 250.738 236.214 248.021 236.214 244.67V235.012C236.214 231.661 233.498 228.944 230.147 228.944Z" fill="#DCE3EF"/>
<g style="mix-blend-mode:soft-light" opacity="0.28">
<path d="M180.431 58.2464H82.3089C72.5021 58.2464 64.5514 66.1971 64.5514 76.0039V93.6805C64.5514 103.487 72.5021 111.438 82.3089 111.438H161.809C161.809 111.438 164.556 115.785 176.672 121.454L175.754 111.438H180.424C190.231 111.438 198.182 103.487 198.182 93.6805V76.0039C198.182 66.1971 190.231 58.2464 180.424 58.2464H180.431Z" fill="black"/>
</g>
<path d="M149.964 136.201V151.266C149.964 151.981 149.694 152.623 149.256 153.108C148.756 153.682 148.014 154.033 147.197 154.033H135.433L128.049 161.41V154.033H124.324C122.792 154.033 121.556 152.791 121.556 151.266V136.201C121.556 134.676 122.792 133.434 124.324 133.434H147.197C148.729 133.434 149.964 134.676 149.964 136.201Z" fill="#B0BDD1"/>
<path d="M130.56 143.275C130.56 144.463 129.595 145.428 128.407 145.428C127.219 145.428 126.254 144.463 126.254 143.275C126.254 142.087 127.219 141.122 128.407 141.122C129.595 141.122 130.56 142.087 130.56 143.275Z" fill="white"/>
<path d="M137.91 143.275C137.91 144.463 136.945 145.428 135.757 145.428C134.569 145.428 133.604 144.463 133.604 143.275C133.604 142.087 134.569 141.122 135.757 141.122C136.945 141.122 137.91 142.087 137.91 143.275Z" fill="white"/>
<path d="M143.1 145.428C144.289 145.428 145.253 144.464 145.253 143.275C145.253 142.086 144.289 141.122 143.1 141.122C141.911 141.122 140.947 142.086 140.947 143.275C140.947 144.464 141.911 145.428 143.1 145.428Z" fill="white"/>
<g style="mix-blend-mode:multiply" opacity="0.5">
<path d="M149.964 136.201V151.266C149.964 151.981 149.694 152.623 149.256 153.108L148.561 152.413H136.79C135.264 152.413 134.022 151.178 134.022 149.646V134.582C134.022 134.177 134.11 133.785 134.279 133.434H147.197C148.729 133.434 149.964 134.676 149.964 136.201Z" fill="#C1E0DB"/>
</g>
<path d="M161.027 130.667H138.146C136.614 130.667 135.379 131.909 135.379 133.434V148.499C135.379 150.031 136.621 151.266 138.146 151.266H149.91L157.294 158.65V151.266H161.027C162.559 151.266 163.794 150.024 163.794 148.499V133.434C163.794 131.902 162.552 130.667 161.027 130.667Z" fill="#7051DD"/>
<path d="M153.96 134.811C154.723 135.466 155.101 136.411 155.101 137.639C155.101 138.786 154.729 139.684 153.987 140.332C153.4 140.852 152.651 141.169 151.746 141.29C151.328 141.344 151.011 141.695 151.011 142.121C151.011 142.586 150.633 142.957 150.174 142.957H148.939C148.473 142.957 148.102 142.58 148.102 142.121V140.197C148.102 139.731 148.48 139.36 148.939 139.36H149.31C150.18 139.36 150.855 139.239 151.335 138.989C151.814 138.739 152.057 138.3 152.057 137.659C152.057 137.248 151.942 136.93 151.712 136.701C151.483 136.471 151.173 136.357 150.788 136.357C150.356 136.357 150.012 136.485 149.769 136.748C149.647 136.876 149.553 137.025 149.492 137.187C149.37 137.511 149.06 137.733 148.709 137.733H147.393C146.866 137.733 146.455 137.254 146.569 136.741C146.644 136.397 146.772 136.066 146.947 135.749C147.278 135.155 147.784 134.683 148.459 134.339C149.134 133.994 149.951 133.826 150.903 133.826C152.178 133.826 153.197 134.156 153.96 134.811ZM151.173 145.279V146.697C151.173 147.162 150.795 147.534 150.336 147.534H148.79C148.324 147.534 147.953 147.156 147.953 146.697V145.279C147.953 144.814 148.331 144.442 148.79 144.442H150.336C150.801 144.442 151.173 144.82 151.173 145.279Z" fill="white"/>
<path d="M287.354 51.443V68.8766C287.354 69.7 287.665 70.4425 288.171 71.0094C288.751 71.6708 289.608 72.0825 290.553 72.0825H304.167L312.711 80.6205V72.0825H317.024C318.799 72.0825 320.23 70.6449 320.23 68.8766V51.443C320.23 49.6747 318.799 48.2371 317.024 48.2371H290.553C288.778 48.2371 287.347 49.6747 287.347 51.443H287.354Z" fill="#B0BDD1"/>
<path d="M309.802 59.63C309.802 61.0069 310.916 62.1205 312.293 62.1205C313.67 62.1205 314.784 61.0069 314.784 59.63C314.784 58.2531 313.67 57.1395 312.293 57.1395C310.916 57.1395 309.802 58.2531 309.802 59.63Z" fill="white"/>
<path d="M301.305 59.63C301.305 61.0069 302.419 62.1205 303.795 62.1205C305.172 62.1205 306.286 61.0069 306.286 59.63C306.286 58.2531 305.172 57.1395 303.795 57.1395C302.419 57.1395 301.305 58.2531 301.305 59.63Z" fill="white"/>
<path d="M292.801 59.63C292.801 61.0069 293.914 62.1205 295.291 62.1205C296.668 62.1205 297.782 61.0069 297.782 59.63C297.782 58.2531 296.668 57.1395 295.291 57.1395C293.914 57.1395 292.801 58.2531 292.801 59.63Z" fill="white"/>
<g style="mix-blend-mode:multiply" opacity="0.5">
<path d="M287.354 51.4431V68.8766C287.354 69.7 287.665 70.4425 288.171 71.0094L288.981 70.1995H302.594C304.362 70.1995 305.793 68.7686 305.793 66.9936V49.56C305.793 49.0875 305.692 48.6353 305.503 48.2304H290.56C288.785 48.2304 287.354 49.668 287.354 51.4363V51.4431Z" fill="#C1E0DB"/>
</g>
<path d="M274.55 45.0447H301.021C302.79 45.0447 304.227 46.4755 304.227 48.2506V65.6842C304.227 67.4525 302.796 68.8901 301.021 68.8901H287.408L278.863 77.4348V68.8901H274.544C272.775 68.8901 271.338 67.4593 271.338 65.6842V48.2506C271.338 46.4823 272.769 45.0447 274.544 45.0447H274.55Z" fill="#7051DD"/>
<path d="M281.104 52.7389C283.696 49.0133 287.381 53.5691 287.381 53.5691C287.381 53.5691 290.81 48.9795 293.408 52.091C296.007 55.2024 290.472 60.9124 287.341 63.1802C287.341 63.1802 278.506 56.4713 281.097 52.7457L281.104 52.7389Z" fill="white"/>
<path d="M287.752 131.045L305.834 128.062L301.264 118.937L287.752 131.045Z" fill="#F2CD33"/>
<path d="M285.269 136.458L293.442 144.571L296.675 139.117L285.269 136.458Z" fill="#F2CD33"/>
<path d="M281.799 125.645L289.318 116.007L284.418 112.869L281.799 125.645Z" fill="#F2CD33"/>
<path d="M170.874 52.7524H72.7518C62.945 52.7524 54.9943 60.7031 54.9943 70.5099V88.1865C54.9943 97.9933 62.945 105.944 72.7518 105.944H152.252C152.252 105.944 154.999 110.291 167.114 115.96L166.197 105.944H170.867C180.674 105.944 188.625 97.9933 188.625 88.1865V70.5099C188.625 60.7031 180.674 52.7524 170.867 52.7524H170.874Z" fill="#7051DD"/>
<path d="M95.1934 70.3345L97.4477 74.897C97.4814 74.9578 97.5422 75.005 97.6097 75.0118L102.645 75.7407C102.82 75.7677 102.894 75.9837 102.766 76.1052L99.1215 79.6621C99.0675 79.7093 99.0473 79.7836 99.0608 79.8511L99.9247 84.8658C99.9517 85.0413 99.7695 85.1763 99.6142 85.0953L95.1057 82.7263C95.0449 82.6925 94.9707 82.6925 94.9032 82.7263L90.3946 85.0953C90.2394 85.1763 90.0504 85.0413 90.0842 84.8658L90.9481 79.8511C90.9616 79.7836 90.9346 79.7093 90.8873 79.6621L87.2427 76.1052C87.1144 75.9837 87.1887 75.761 87.3642 75.7407L92.3992 75.0118C92.4667 74.9983 92.5274 74.9578 92.5612 74.897L94.8155 70.3345C94.8964 70.1725 95.1259 70.1725 95.2002 70.3345H95.1934Z" fill="white"/>
<path d="M114.287 70.3345L116.542 74.897C116.575 74.9578 116.636 75.005 116.704 75.0118L121.739 75.7407C121.914 75.7677 121.988 75.9837 121.86 76.1052L118.215 79.6621C118.161 79.7093 118.141 79.7836 118.155 79.8511L119.019 84.8658C119.046 85.0413 118.863 85.1763 118.708 85.0953L114.2 82.7263C114.139 82.6925 114.065 82.6925 113.997 82.7263L109.489 85.0953C109.333 85.1763 109.144 85.0413 109.178 84.8658L110.042 79.8511C110.055 79.7836 110.028 79.7093 109.981 79.6621L106.337 76.1052C106.208 75.9837 106.283 75.761 106.458 75.7407L111.493 75.0118C111.561 74.9983 111.621 74.9578 111.655 74.897L113.909 70.3345C113.99 70.1725 114.22 70.1725 114.294 70.3345H114.287Z" fill="white"/>
<path d="M133.388 70.3345L135.642 74.897C135.676 74.9578 135.737 75.005 135.804 75.0118L140.839 75.7407C141.015 75.7677 141.089 75.9837 140.961 76.1052L137.316 79.6621C137.262 79.7093 137.242 79.7836 137.255 79.8511L138.119 84.8658C138.146 85.0413 137.964 85.1763 137.809 85.0953L133.3 82.7263C133.24 82.6925 133.165 82.6925 133.098 82.7263L128.589 85.0953C128.434 85.1763 128.245 85.0413 128.279 84.8658L129.143 79.8511C129.156 79.7836 129.129 79.7093 129.082 79.6621L125.437 76.1052C125.309 75.9837 125.383 75.761 125.559 75.7407L130.594 75.0118C130.661 74.9983 130.722 74.9578 130.756 74.897L133.01 70.3345C133.091 70.1725 133.321 70.1725 133.395 70.3345H133.388Z" fill="white"/>
<path d="M152.489 70.3345L154.743 74.897C154.777 74.9578 154.837 75.005 154.905 75.0118L159.94 75.7407C160.115 75.7677 160.19 75.9837 160.061 76.1052L156.417 79.6621C156.363 79.7093 156.342 79.7836 156.356 79.8511L157.22 84.8658C157.247 85.0413 157.065 85.1763 156.909 85.0953L152.401 82.7263C152.34 82.6925 152.266 82.6925 152.198 82.7263L147.69 85.0953C147.535 85.1763 147.346 85.0413 147.379 84.8658L148.243 79.8511C148.257 79.7836 148.23 79.7093 148.183 79.6621L144.538 76.1052C144.41 75.9837 144.484 75.761 144.659 75.7407L149.694 75.0118C149.762 74.9983 149.823 74.9578 149.856 74.897L152.111 70.3345C152.192 70.1725 152.421 70.1725 152.495 70.3345H152.489Z" fill="white"/>
<path d="M171.589 70.3345L173.843 74.897C173.877 74.9578 173.938 75.005 174.005 75.0118L179.04 75.7407C179.216 75.7677 179.29 75.9837 179.162 76.1052L175.517 79.6621C175.463 79.7093 175.443 79.7836 175.457 79.8511L176.32 84.8658C176.347 85.0413 176.165 85.1763 176.01 85.0953L171.501 82.7263C171.441 82.6925 171.366 82.6925 171.299 82.7263L166.79 85.0953C166.635 85.1763 166.446 85.0413 166.48 84.8658L167.344 79.8511C167.357 79.7836 167.33 79.7093 167.283 79.6621L163.638 76.1052C163.51 75.9837 163.584 75.761 163.76 75.7407L168.795 75.0118C168.862 74.9983 168.923 74.9578 168.957 74.897L171.211 70.3345C171.292 70.1725 171.522 70.1725 171.596 70.3345H171.589Z" fill="white"/>
<path d="M71.5234 80.1548C74.5336 80.1548 77.2266 81.5316 79.0084 83.6847C80.5203 81.9433 81.4449 79.6756 81.4449 77.1851C81.4449 71.7046 77.0039 67.2703 71.5301 67.2703C66.0564 67.2703 61.6154 71.7113 61.6154 77.1851C61.6154 79.6756 62.54 81.9433 64.0519 83.6847C65.8269 81.5249 68.5199 80.1548 71.5369 80.1548H71.5234Z" fill="white"/>
<path d="M71.5235 87.1134C74.5134 87.1134 77.1862 85.7837 79.0085 83.6914C77.2334 81.5317 74.5404 80.1615 71.5235 80.1615C68.5065 80.1615 65.8203 81.5384 64.0385 83.6914C65.854 85.7837 68.5335 87.1134 71.5235 87.1134Z" fill="#D5DBEA"/>
<path d="M75.4988 75.2548C75.4988 77.4483 73.717 79.2301 71.5235 79.2301C69.3299 79.2301 67.5481 77.4483 67.5481 75.2548C67.5481 73.0612 69.3299 71.2794 71.5235 71.2794C73.717 71.2794 75.4988 73.0612 75.4988 75.2548Z" fill="#D5DBEA"/>
<path d="M266.843 190.453H248.768V184.088L266.843 182.947V190.453Z" fill="#FEF1E8"/>
<path d="M331.805 262.023H58.8751V293.427H331.805V262.023Z" fill="#9BAABF"/>
<path d="M79.2244 132.975L79.9128 130.809L80.6012 132.975C81.3504 135.337 82.977 137.315 85.1503 138.503C82.977 139.691 81.3504 141.668 80.6012 144.031L79.9128 146.197L79.2244 144.031C78.4752 141.668 76.8486 139.691 74.6753 138.503C76.8486 137.315 78.4752 135.337 79.2244 132.975Z" fill="#F2CD33"/>
<path d="M321.985 173.073L322.674 170.907L323.362 173.073C324.111 175.435 325.738 177.413 327.911 178.601C325.738 179.789 324.111 181.766 323.362 184.129L322.674 186.295L321.985 184.129C321.236 181.766 319.609 179.789 317.436 178.601C319.609 177.413 321.236 175.435 321.985 173.073Z" fill="#F2CD33"/>
<path d="M306.779 196.365L307.346 194.577L307.913 196.365C308.534 198.316 309.877 199.956 311.679 200.941C309.883 201.927 308.534 203.56 307.913 205.517L307.346 207.306L306.779 205.517C306.158 203.567 304.815 201.927 303.013 200.941C304.808 199.956 306.158 198.322 306.779 196.365Z" fill="#F2CD33"/>
<path d="M103.684 156.551L104.21 154.89L104.737 156.551C105.311 158.359 106.559 159.878 108.226 160.789C106.559 161.7 105.311 163.219 104.737 165.028L104.21 166.688L103.684 165.028C103.11 163.219 101.862 161.7 100.195 160.789C101.862 159.878 103.11 158.359 103.684 156.551Z" fill="#F2CD33"/>
<path d="M87.7084 232.832C79.7307 220.994 78.374 204.984 84.2325 191.965C86.8647 198.14 89.551 204.188 91.38 210.647C92.4667 214.494 93.4183 218.429 93.3373 222.424C93.2564 226.42 90.4621 229.93 87.7084 232.825V232.832Z" fill="#BAC6DB"/>
<path d="M101.423 232.872C107.47 219.941 106.33 203.918 98.5276 191.965C96.8807 198.478 95.1664 204.863 94.3632 211.531C93.884 215.5 93.5533 219.536 94.2553 223.471C94.9572 227.405 98.2576 230.436 101.423 232.872Z" fill="#BAC6DB"/>
<path d="M93.6342 237.482C99.6817 224.55 98.541 208.527 90.7388 196.574C89.0919 203.087 87.3776 209.472 86.5744 216.141C86.0952 220.109 85.7645 224.145 86.4664 228.08C87.1684 232.015 90.4688 235.046 93.6342 237.482Z" fill="#AEBDD1"/>
<path d="M105.115 262.023H83.3752L78.8262 228.047H109.198L105.115 262.023Z" fill="#D5DBEA"/>
<path d="M258.271 180.774H256.543C256.133 180.774 255.801 181.107 255.801 181.517V183.244C255.801 183.654 256.133 183.987 256.543 183.987H258.271C258.681 183.987 259.013 183.654 259.013 183.244V181.517C259.013 181.107 258.681 180.774 258.271 180.774Z" fill="#41294B"/>
<path d="M250.57 186.113V187.739L264.71 187.449L264.784 185.127L250.57 186.113Z" fill="#F2DED1"/>
<path d="M327.681 249.266H286.801C286.413 249.266 286.099 249.581 286.099 249.968V261.267C286.099 261.654 286.413 261.969 286.801 261.969H327.681C328.069 261.969 328.383 261.654 328.383 261.267V249.968C328.383 249.581 328.069 249.266 327.681 249.266Z" fill="#D5DBEA"/>
<path d="M327.6 251.656H293.962C293.574 251.656 293.26 251.97 293.26 252.358V258.884C293.26 259.272 293.574 259.586 293.962 259.586H327.6C327.988 259.586 328.302 259.272 328.302 258.884V252.358C328.302 251.97 327.988 251.656 327.6 251.656Z" fill="#AEBDD1"/>
<path d="M327.6 255.786H299.206C298.815 255.786 298.504 255.469 298.504 255.084C298.504 254.693 298.821 254.383 299.206 254.383H327.6C327.992 254.383 328.302 254.7 328.302 255.084C328.302 255.476 327.985 255.786 327.6 255.786Z" fill="#D5DBEA"/>
<path d="M318.981 236.564H278.101C277.713 236.564 277.399 236.878 277.399 237.266V248.565C277.399 248.952 277.713 249.266 278.101 249.266H318.981C319.369 249.266 319.683 248.952 319.683 248.565V237.266C319.683 236.878 319.369 236.564 318.981 236.564Z" fill="#D5DBEA"/>
<path d="M318.907 238.953H285.269C284.881 238.953 284.567 239.268 284.567 239.655V246.182C284.567 246.57 284.881 246.884 285.269 246.884H318.907C319.295 246.884 319.609 246.57 319.609 246.182V239.655C319.609 239.268 319.295 238.953 318.907 238.953Z" fill="#AEBDD1"/>
<path d="M318.907 243.084H290.513C290.121 243.084 289.811 242.767 289.811 242.382C289.811 241.991 290.128 241.68 290.513 241.68H318.907C319.299 241.68 319.609 241.997 319.609 242.382C319.609 242.774 319.292 243.084 318.907 243.084Z" fill="#D5DBEA"/>
<g style="mix-blend-mode:multiply">
<path d="M286.213 256.333C286.22 256.778 286.632 257.102 287.071 257.008C292.335 255.827 320.46 249.503 319.69 249.266C318.914 249.03 291.572 249.226 286.807 249.266C286.416 249.266 286.105 249.59 286.112 249.982L286.213 256.34V256.333Z" fill="#D5DBEA"/>
</g>
<path d="M302.493 170.056C302.493 171.494 301.325 172.661 299.888 172.661C298.45 172.661 297.282 171.494 297.282 170.056C297.282 168.618 298.45 167.451 299.888 167.451C301.325 167.451 302.493 168.618 302.493 170.056Z" fill="#FEF1E8"/>
<path d="M315.148 228.775C316.266 228.775 317.173 227.869 317.173 226.751C317.173 225.632 316.266 224.726 315.148 224.726C314.03 224.726 313.123 225.632 313.123 226.751C313.123 227.869 314.03 228.775 315.148 228.775Z" fill="#FEF1E8"/>
<path d="M65.8067 193.996C66.9249 193.996 67.8315 193.089 67.8315 191.971C67.8315 190.853 66.9249 189.946 65.8067 189.946C64.6884 189.946 63.7819 190.853 63.7819 191.971C63.7819 193.089 64.6884 193.996 65.8067 193.996Z" fill="#FEF1E8"/>
</g>
<path d="M319.852 131.787C318.583 137.052 319.245 142.755 321.674 147.588C324.104 152.42 328.295 156.348 333.27 158.474C335.052 159.237 336.982 159.777 338.919 159.615C340.849 159.46 342.793 158.515 343.799 156.854C344.96 154.931 344.676 152.427 343.758 150.375C342.834 148.323 341.355 146.589 340.093 144.726C337.866 141.446 336.314 137.713 335.517 133.832C334.923 130.944 335.443 126.833 333.857 124.235C329.315 116.79 321.02 126.928 319.845 131.781L319.852 131.787Z" fill="#E9E5F4"/>
</g>
<defs>
<clipPath id="clip0_9_3631">
<rect width="314.945" height="269.92" fill="white" transform="translate(43.0276 0.0399933)"/>
</clipPath>
</defs>
</svg>
