<svg width="401" height="248" viewBox="0 0 401 248" fill="none" xmlns="http://www.w3.org/2000/svg">
<g clip-path="url(#clip0_9_2231)">
<path d="M292.347 247.622C276.059 241.175 268.585 223.804 265.277 207.379C264.723 204.639 263.745 201.842 264.474 199.151C265.203 196.46 267.831 194.112 270.541 194.679C272.783 195.152 274.222 197.289 275.816 198.964C277.934 201.194 280.681 202.801 283.639 203.542C285.583 204.028 287.856 204.072 289.345 202.72C291.381 200.87 290.889 197.563 290.235 194.86C289.008 189.827 287.781 184.794 286.554 179.762C285.894 177.058 285.234 174.299 285.464 171.534C285.695 168.768 286.99 165.94 289.388 164.614C291.793 163.281 295.324 164.009 296.495 166.532C296.981 167.578 297.031 168.774 297.373 169.883C297.716 170.985 298.532 172.107 299.672 172.169C300.824 172.231 301.727 171.203 302.35 170.226C304.493 166.831 305.551 162.863 306.492 158.946C307.433 155.028 308.298 151.041 310.129 147.46C311.961 143.879 314.901 140.69 318.719 139.55C322.543 138.41 327.233 139.824 329.114 143.393C331.002 146.974 329.694 151.372 328.006 155.028C325.502 160.459 322.213 165.517 318.276 169.989C317.566 170.799 316.8 171.671 316.713 172.748C316.551 174.691 318.688 176.074 320.606 176.249C322.78 176.442 324.916 175.713 327.084 175.464C329.251 175.215 331.755 175.601 333.026 177.401C334.788 179.905 333.163 183.349 331.338 185.785C327.682 190.668 323.197 194.903 318.127 198.248C316.308 199.45 314.371 200.584 313.094 202.359C311.824 204.14 311.431 206.8 312.851 208.475C314.271 210.151 316.906 210.17 318.899 209.291C320.893 208.413 322.487 206.837 324.293 205.616C327.675 203.331 332.54 202.452 335.679 205.099C337.747 206.837 338.582 209.746 338.382 212.449C338.189 215.152 337.099 217.7 335.866 220.104C331.568 228.507 325.277 235.943 317.361 240.976C309.451 246.009 301.652 248.712 292.341 247.616" fill="#E8E8E8"/>
<path d="M294.128 236.411C294.577 227.622 295.866 218.024 297.56 208.039C297.99 205.542 298.42 203.081 298.843 200.646C299.267 198.223 299.69 195.819 300.251 193.489C301.347 188.83 302.755 184.433 304.225 180.303C305.695 176.168 307.233 172.3 308.703 168.7C310.179 165.093 311.624 161.761 313.063 158.777C315.928 152.798 318.806 148.257 320.911 145.224C321.958 143.704 322.811 142.546 323.397 141.773C323.683 141.406 323.901 141.113 324.069 140.895C324.225 140.702 324.306 140.602 324.312 140.609C324.318 140.609 324.25 140.721 324.113 140.926C323.957 141.15 323.745 141.449 323.477 141.836C322.917 142.627 322.095 143.804 321.073 145.336C319.024 148.401 316.202 152.954 313.387 158.933C311.967 161.917 310.553 165.249 309.096 168.855C307.644 172.468 306.118 176.336 304.667 180.459C303.216 184.583 301.821 188.967 300.737 193.602C300.183 195.919 299.771 198.298 299.342 200.733C298.924 203.162 298.495 205.629 298.065 208.12C296.371 218.099 295.075 227.672 294.602 236.429" fill="#E0E0E0"/>
<path d="M300.388 193.44C300.357 193.452 300.164 193.066 299.852 192.35C299.535 191.633 299.105 190.587 298.594 189.285C297.573 186.682 296.283 183.044 294.882 179.02C293.474 174.997 292.141 171.384 291.082 168.805C290.559 167.516 290.123 166.476 289.812 165.76C289.507 165.043 289.351 164.638 289.382 164.62C289.413 164.607 289.631 164.981 289.992 165.672C290.36 166.364 290.846 167.385 291.412 168.662C292.559 171.216 293.954 174.822 295.361 178.846C296.738 182.814 297.984 186.407 298.93 189.154C299.366 190.394 299.74 191.434 300.033 192.269C300.288 193.004 300.419 193.421 300.388 193.433V193.44Z" fill="#E0E0E0"/>
<path d="M333.618 178.69C333.624 178.728 333.144 178.902 332.272 179.182C331.4 179.475 330.136 179.886 328.585 180.447C325.483 181.543 321.248 183.212 316.657 185.261C312.067 187.317 307.999 189.354 305.091 190.911C303.633 191.677 302.468 192.331 301.665 192.779C300.861 193.228 300.407 193.464 300.388 193.433C300.369 193.402 300.787 193.109 301.565 192.605C302.344 192.107 303.484 191.403 304.922 190.587C307.788 188.942 311.849 186.85 316.452 184.788C321.055 182.739 325.327 181.113 328.467 180.104C330.036 179.587 331.319 179.22 332.216 178.989C333.113 178.765 333.611 178.653 333.618 178.684V178.69Z" fill="#E0E0E0"/>
<path d="M294.402 235.669C294.402 235.669 294.272 235.551 294.066 235.302C293.823 234.997 293.53 234.629 293.175 234.187C292.403 233.215 291.325 231.777 290.017 229.983C287.395 226.395 283.926 221.331 280.176 215.688C276.427 210.045 273.007 204.95 270.466 201.319C269.22 199.556 268.199 198.098 267.439 197.021C267.115 196.554 266.841 196.168 266.623 195.85C266.442 195.576 266.349 195.433 266.367 195.42C266.38 195.408 266.498 195.539 266.704 195.788C266.947 196.087 267.239 196.46 267.594 196.903C268.367 197.874 269.444 199.313 270.752 201.107C273.375 204.695 276.844 209.758 280.594 215.402C284.343 221.045 287.756 226.133 290.304 229.771C291.55 231.534 292.571 232.991 293.331 234.069C293.655 234.536 293.929 234.928 294.147 235.246C294.328 235.52 294.421 235.663 294.402 235.676V235.669Z" fill="#E0E0E0"/>
<path d="M337.075 209.815C337.075 209.815 336.938 209.933 336.663 210.113C336.333 210.319 335.922 210.574 335.43 210.88C334.284 211.577 332.739 212.518 330.865 213.658C327.009 216.006 321.721 219.307 315.879 222.963C310.036 226.619 304.711 229.877 300.805 232.144C298.856 233.278 297.261 234.181 296.153 234.779C295.636 235.053 295.212 235.277 294.87 235.464C294.571 235.613 294.415 235.688 294.402 235.669C294.396 235.651 294.539 235.551 294.814 235.37C295.144 235.165 295.555 234.91 296.047 234.604C297.193 233.907 298.738 232.972 300.612 231.826C304.468 229.478 309.756 226.177 315.598 222.521C321.435 218.865 326.76 215.607 330.665 213.346C332.621 212.213 334.209 211.309 335.318 210.711C335.835 210.437 336.259 210.213 336.601 210.026C336.9 209.877 337.056 209.802 337.068 209.821L337.075 209.815Z" fill="#E0E0E0"/>
<path d="M157.08 33.8255C157.155 33.7507 160.587 37.2388 164.754 41.6112C168.921 45.9837 172.241 49.5901 172.166 49.6586C172.091 49.7333 168.659 46.2453 164.492 41.8728C160.326 37.5004 157.006 33.9002 157.08 33.8255Z" fill="#E0E0E0"/>
<path d="M294.807 35.9619C294.807 20.7205 281.03 8.69309 265.246 11.6517C255.318 13.514 247.408 21.6237 245.67 31.5707C244.586 37.7869 245.869 43.6417 248.703 48.4689H248.691L248.759 48.5623C249.706 50.1631 250.896 51.3091 252.098 52.9846L266.473 72.0254C268.261 74.3923 271.824 74.3923 273.611 72.0254L287.75 53.2961C287.75 53.2961 290.391 50.1506 291.344 48.5312L291.394 48.4627H291.382C293.543 44.7878 294.801 40.5212 294.801 35.9556L294.807 35.9619ZM270.049 46.7436C264.032 46.7436 259.155 41.8666 259.155 35.8498C259.155 29.8329 264.032 24.956 270.049 24.956C276.065 24.956 280.942 29.8329 280.942 35.8498C280.942 41.8666 276.065 46.7436 270.049 46.7436Z" fill="#CDCDCD"/>
<path d="M313.742 78.4533C313.742 70.2316 306.311 63.7476 297.803 65.3422C292.453 66.345 288.186 70.7174 287.246 76.0865C286.66 79.4375 287.352 82.5954 288.884 85.1989H288.878L288.915 85.2487C289.426 86.1145 290.067 86.7311 290.715 87.6343L298.47 97.9053C299.435 99.1821 301.353 99.1821 302.319 97.9053L309.943 87.8087C309.943 87.8087 311.363 86.1145 311.88 85.2425L311.905 85.2051C313.069 83.2245 313.748 80.9261 313.748 78.4596L313.742 78.4533ZM300.388 84.2646C297.143 84.2646 294.514 81.6362 294.514 78.3911C294.514 75.146 297.143 72.5175 300.388 72.5175C303.633 72.5175 306.262 75.146 306.262 78.3911C306.262 81.6362 303.633 84.2646 300.388 84.2646Z" fill="#E1E1E1"/>
<path d="M338.351 247.672C338.351 247.759 276.613 247.834 200.475 247.834C124.337 247.834 62.5864 247.759 62.5864 247.672C62.5864 247.585 124.312 247.51 200.475 247.51C276.638 247.51 338.351 247.585 338.351 247.672Z" fill="#263238"/>
<path d="M162.692 32.8912L166.791 90.9418C167.457 100.422 175.343 107.765 184.848 107.765C195.312 107.765 203.596 98.9206 202.91 88.4815C202.549 82.9567 202.219 78.4285 202.219 78.4285C202.219 78.4285 216.271 76.2423 216.445 62.1906C216.545 54.0747 215.143 35.6567 213.948 21.549C213.138 12.013 205.153 4.68814 195.579 4.68814H187.09C172.471 5.54146 161.44 18.2914 162.699 32.885L162.692 32.8912Z" fill="#B78876"/>
<path d="M202.238 78.2292C202.238 78.2292 193.356 78.9517 183.92 73.0221C183.92 73.0221 188.248 83.1373 202.269 81.8667L202.238 78.223V78.2292Z" fill="#AA6550"/>
<path d="M209.575 38.5281C209.613 39.5869 208.747 40.4963 207.638 40.5524C206.536 40.6084 205.608 39.8049 205.57 38.7461C205.533 37.6872 206.399 36.7778 207.501 36.7218C208.61 36.6595 209.532 37.4754 209.569 38.5343L209.575 38.5281Z" fill="#263238"/>
<path d="M211.519 35.6443C211.269 35.9059 209.75 34.7785 207.588 34.7847C205.433 34.7598 203.845 35.8685 203.614 35.6069C203.502 35.4886 203.751 35.0152 204.443 34.5169C205.122 34.0186 206.28 33.5328 207.626 33.5328C208.971 33.539 210.105 34.0373 210.752 34.5418C211.419 35.0526 211.643 35.5259 211.519 35.6443Z" fill="#263238"/>
<path d="M188.504 38.5281C188.541 39.5869 187.675 40.4901 186.567 40.5524C185.464 40.6147 184.536 39.8049 184.499 38.7461C184.461 37.6872 185.327 36.7778 186.43 36.7218C187.538 36.6595 188.46 37.4754 188.498 38.5343L188.504 38.5281Z" fill="#263238"/>
<path d="M190.298 36.0491C190.048 36.3107 188.529 35.1833 186.367 35.1896C184.212 35.1647 182.624 36.2733 182.393 36.0117C182.281 35.8934 182.53 35.42 183.222 34.9217C183.901 34.4235 185.059 33.9376 186.405 33.9376C187.75 33.9439 188.884 34.4421 189.531 34.9467C190.192 35.4574 190.422 35.9308 190.298 36.0491Z" fill="#263238"/>
<path d="M198.133 52.0628C198.121 51.9382 199.466 51.7078 201.64 51.4275C202.194 51.3714 202.711 51.2593 202.805 50.8856C202.935 50.487 202.705 49.8953 202.437 49.2537C201.92 47.9208 201.378 46.5194 200.805 45.0556C198.538 39.0762 196.9 34.1618 197.143 34.0746C197.386 33.9874 199.416 38.7585 201.684 44.738C202.225 46.2142 202.749 47.6156 203.247 48.961C203.452 49.5901 203.814 50.3001 203.533 51.1223C203.384 51.5334 202.979 51.8324 202.624 51.9258C202.269 52.0317 201.958 52.0379 201.69 52.0566C199.504 52.1749 198.146 52.1812 198.133 52.0566V52.0628Z" fill="#263238"/>
<path d="M191.774 53.5577C192.123 53.539 192.129 55.881 194.134 57.544C196.14 59.2133 198.638 58.9517 198.656 59.2755C198.688 59.425 198.102 59.7302 197.043 59.7614C196.009 59.7987 194.496 59.4624 193.269 58.4471C192.048 57.4256 191.518 56.0678 191.437 55.1024C191.35 54.1245 191.612 53.539 191.768 53.5577H191.774Z" fill="#263238"/>
<path d="M190.852 27.5845C190.64 28.17 188.485 27.8959 185.95 28.2011C183.409 28.4565 181.366 29.1977 181.029 28.6682C180.88 28.4191 181.235 27.8648 182.063 27.2979C182.879 26.7311 184.187 26.1893 185.707 26.0211C187.227 25.8529 188.622 26.0958 189.544 26.4695C190.472 26.8433 190.939 27.3042 190.852 27.5845Z" fill="#263238"/>
<path d="M210.727 29.397C210.347 29.889 208.859 29.3783 207.071 29.3534C205.284 29.2662 203.77 29.6835 203.421 29.1728C203.265 28.9236 203.508 28.4316 204.169 27.9706C204.823 27.5097 205.913 27.1298 207.14 27.1672C208.367 27.2045 209.432 27.653 210.055 28.1513C210.684 28.6558 210.896 29.1603 210.727 29.397Z" fill="#263238"/>
<path d="M167.432 43.4362C167.196 43.3304 157.778 40.5835 158.083 50.188C158.389 59.7925 167.974 57.5066 167.981 57.2264C167.987 56.9523 167.432 43.4362 167.432 43.4362Z" fill="#B78876"/>
<path d="M164.929 53.6823C164.885 53.6511 164.767 53.8068 164.486 53.9439C164.212 54.0809 163.745 54.1806 163.234 54.0124C162.207 53.6698 161.304 52.0877 161.198 50.3562C161.148 49.4842 161.304 48.6433 161.59 47.9457C161.858 47.2357 162.3 46.7249 162.805 46.619C163.309 46.482 163.683 46.781 163.807 47.0488C163.944 47.3104 163.888 47.5097 163.938 47.5222C163.963 47.5471 164.138 47.354 164.05 46.9616C164.007 46.7748 163.882 46.5505 163.652 46.3699C163.415 46.1893 163.072 46.1021 162.717 46.1519C161.976 46.2266 161.335 46.9305 161.017 47.6966C160.662 48.4689 160.463 49.4095 160.525 50.3936C160.65 52.3244 161.696 54.1058 163.097 54.4671C163.776 54.6228 164.337 54.3986 164.617 54.1619C164.91 53.9127 164.954 53.701 164.916 53.6823H164.929Z" fill="#AA6550"/>
<path d="M162.082 43.1124C163.546 42.7573 166.081 44.1089 166.704 45.4792C167.327 46.8495 167.464 48.4067 168.086 49.7769C168.709 51.1472 170.117 52.393 171.587 52.0442C172.596 51.8075 173.325 50.8545 173.586 49.8517C173.854 48.8489 173.742 47.7838 173.617 46.7561C173.051 42.2715 172.11 37.818 171.93 33.3023C171.749 28.7866 172.39 24.0902 174.764 20.2409C177.137 16.3917 181.497 13.5577 186 13.9252C188.983 14.1681 191.724 15.7252 194.689 16.1363C198.208 16.6284 201.926 15.3889 204.437 12.8787C204.76 12.5549 206.262 11.5707 206.262 11.5707C206.262 11.3403 206.044 9.32845 205.252 8.5997C199.366 3.15591 188.765 1.63613 180.992 3.59191C173.219 5.54769 165.931 11.0351 162.587 18.3225C159.242 25.6038 160.232 35.7377 162.076 43.1061" fill="#263238"/>
<path d="M214.097 19.3876C214.097 19.3876 177.236 7.52837 161.285 39.4188C161.285 39.4188 158.899 31.44 158.899 27.1609C158.899 24.302 160.606 7.28545 178.121 1.93509C178.121 1.93509 204.499 -8.13032 214.097 19.3876Z" fill="#7051DD"/>
<path d="M182.425 20.1849C183.726 22.2902 186.05 23.729 188.516 23.9532C190.983 24.1774 193.53 23.1808 195.187 21.3496C195.916 23.1684 197.865 24.4141 199.821 24.3144C201.777 24.2148 203.589 22.7698 204.119 20.8825C205.19 21.9227 206.305 22.9878 207.707 23.4985C209.108 24.0092 210.883 23.8162 211.805 22.6452C212.739 21.4493 212.471 19.6243 211.55 18.416C210.628 17.2076 209.214 16.4851 207.812 15.8996C203.434 14.0684 198.607 13.1528 193.904 13.7881C189.201 14.4234 184.648 16.7031 181.708 20.4278" fill="#263238"/>
<g opacity="0.4">
<path d="M214.097 19.3876C214.097 19.3876 209.899 14.3985 202.375 14.0622C191.5 13.5826 171.145 19.699 161.285 39.4188C161.285 39.4188 158.899 31.44 158.899 27.1609C158.899 24.302 160.606 7.28545 178.121 1.93509C178.121 1.93509 204.499 -8.13032 214.097 19.3876Z" fill="black"/>
</g>
<path d="M162.829 35.6879C168.298 27.3229 175.835 20.4091 184.306 15.1148C192.777 9.8205 206.791 4.58847 216.451 2.02229C219.348 1.24995 222.375 0.577257 225.327 1.088C228.286 1.59875 231.176 3.56698 231.911 6.47574C232.826 10.1132 226.367 15.7314 223.334 17.9426C220.301 20.1537 214.103 23.3926 214.103 23.3926C214.103 23.3926 214.184 16.6408 203.378 15.2456C188.678 13.3521 162.829 35.6816 162.829 35.6816V35.6879Z" fill="#7051DD"/>
<path d="M193.063 8.13876C193.063 8.13876 198.376 5.19887 203.708 4.51372C202.612 3.71023 202.026 3.32406 200.818 2.77594C198.09 3.31783 195.324 4.0092 192.521 5.56635L193.063 8.13876Z" fill="#E0E0E0"/>
<path d="M222.979 90.5182L211.288 87.9395L206.529 86.7499L202.568 80.6085C202.568 80.6085 200.681 91.5895 193.605 97.5004C191.68 99.1074 189.096 99.6867 186.641 99.1697C185.041 98.8334 183.16 98.416 181.764 98.0486C181.465 97.9676 181.142 97.8617 180.793 97.7371C175.648 95.8872 171.437 92.1127 168.753 87.3478C167.177 84.5574 165.85 81.6923 166.305 80.6023L160.755 92.094L128.055 107.155L109.488 152.486L145.464 163.131L146.585 200.484L139.809 247.597L241.603 247.666L237.996 142.845" fill="#7051DD"/>
<path d="M196.663 131.098C196.663 131.098 196.439 131.116 196.022 131.11C195.567 131.098 194.963 131.085 194.209 131.066C192.608 131.01 190.391 130.929 187.738 130.836H187.613V130.705C187.501 127.896 187.37 124.57 187.233 121.013C187.065 115.887 186.909 111.253 186.797 107.846C186.76 106.196 186.729 104.838 186.704 103.854C186.704 103.411 186.698 103.05 186.698 102.77C186.698 102.521 186.704 102.39 186.716 102.39C186.729 102.39 186.741 102.521 186.76 102.764C186.778 103.044 186.803 103.405 186.828 103.847C186.878 104.832 186.947 106.183 187.028 107.834C187.165 111.241 187.352 115.875 187.557 120.995C187.682 124.551 187.794 127.877 187.887 130.693L187.756 130.562C190.404 130.705 192.621 130.823 194.222 130.911C194.969 130.96 195.573 130.998 196.028 131.029C196.445 131.06 196.663 131.085 196.663 131.098Z" fill="#263238"/>
<path d="M191.114 115.956C191.114 115.956 191.263 115.837 191.599 115.8C191.923 115.757 192.44 115.825 192.939 116.174C193.181 116.348 193.431 116.591 193.593 116.915C193.754 117.239 193.835 117.644 193.767 118.049C193.655 118.846 193.044 119.687 192.104 119.923C191.157 120.141 190.242 119.699 189.737 119.076C189.201 118.441 189.152 117.631 189.289 117.065C189.426 116.479 189.725 116.074 189.961 115.844C190.198 115.613 190.372 115.539 190.379 115.557C190.397 115.582 190.254 115.688 190.055 115.931C189.862 116.174 189.612 116.566 189.513 117.108C189.413 117.638 189.488 118.341 189.961 118.883C190.416 119.419 191.232 119.793 192.023 119.606C192.808 119.413 193.362 118.684 193.468 117.999C193.599 117.295 193.225 116.672 192.795 116.354C192.365 116.018 191.898 115.925 191.593 115.925C191.282 115.925 191.114 115.987 191.101 115.956H191.114Z" fill="#263238"/>
<path d="M190.024 102.795C190.024 102.795 190.179 102.651 190.534 102.564C190.889 102.477 191.456 102.477 192.054 102.788C192.347 102.944 192.646 103.175 192.87 103.511C193.094 103.841 193.231 104.277 193.206 104.726C193.181 105.61 192.59 106.613 191.562 106.937C190.528 107.229 189.488 106.737 188.958 106.027C188.678 105.672 188.541 105.249 188.51 104.856C188.485 104.458 188.56 104.09 188.684 103.785C188.934 103.162 189.351 102.782 189.662 102.602C189.98 102.415 190.186 102.384 190.186 102.402C190.198 102.427 190.011 102.502 189.731 102.708C189.457 102.913 189.102 103.293 188.896 103.866C188.691 104.427 188.684 105.23 189.195 105.847C189.669 106.457 190.603 106.881 191.469 106.625C192.334 106.357 192.87 105.485 192.907 104.713C192.97 103.916 192.465 103.281 191.942 102.988C191.413 102.683 190.889 102.645 190.553 102.689C190.21 102.732 190.03 102.826 190.017 102.795H190.024Z" fill="#263238"/>
<path d="M186.71 153.066C186.71 153.066 186.76 153.035 186.866 152.991C186.99 152.941 187.14 152.885 187.333 152.81C187.75 152.667 188.342 152.405 189.096 152.057C190.584 151.315 192.671 150.051 194.826 147.983C196.993 145.94 199.229 143.15 201.385 139.849C203.552 136.547 205.72 132.779 207.775 128.712C211.892 120.571 214.807 112.823 216.85 107.211C217.872 104.402 218.663 102.116 219.217 100.534C219.491 99.7614 219.703 99.1572 219.859 98.715C219.927 98.5219 219.989 98.3662 220.033 98.2478C220.077 98.142 220.095 98.0921 220.101 98.0921C220.108 98.0921 220.095 98.1482 220.064 98.2603C220.027 98.3849 219.977 98.5468 219.921 98.7399C219.778 99.1821 219.585 99.7988 219.342 100.577C218.825 102.166 218.065 104.464 217.074 107.286C215.087 112.922 212.204 120.696 208.074 128.855C206.012 132.929 203.832 136.709 201.646 140.011C199.466 143.318 197.205 146.115 194.994 148.151C192.802 150.213 190.678 151.465 189.164 152.169C188.392 152.505 187.794 152.748 187.364 152.873C187.171 152.935 187.009 152.985 186.884 153.022C186.778 153.053 186.722 153.066 186.716 153.066H186.71Z" fill="#263238"/>
<path d="M208.155 140.627C208.423 140.627 214.62 140.197 214.62 140.197C214.62 140.197 212.06 144.719 209.401 146.407H203.976L208.155 140.621V140.627Z" fill="#FAFAFA"/>
<path d="M185.626 166.762C185.626 166.762 185.745 166.663 185.981 166.495C186.249 166.314 186.592 166.071 187.028 165.772C187.931 165.143 189.233 164.215 190.796 163.019C193.935 160.634 198.059 157.065 202.487 152.991C204.711 150.961 206.841 149.036 208.678 147.198C210.522 145.361 212.067 143.592 213.244 142.016C214.427 140.447 215.231 139.064 215.741 138.092C216.009 137.613 216.184 137.22 216.315 136.959C216.445 136.697 216.52 136.566 216.526 136.566C216.539 136.566 216.483 136.716 216.371 136.984C216.258 137.251 216.103 137.656 215.847 138.148C215.368 139.145 214.589 140.553 213.418 142.153C212.26 143.76 210.721 145.554 208.878 147.41C207.04 149.273 204.916 151.203 202.693 153.234C198.258 157.307 194.103 160.858 190.921 163.206C189.338 164.383 188.012 165.286 187.084 165.884C186.623 166.183 186.249 166.407 186.006 166.557C185.757 166.706 185.626 166.781 185.62 166.769L185.626 166.762Z" fill="#263238"/>
<path d="M168.161 235.962C168.161 235.962 168.18 235.912 168.236 235.819C168.304 235.713 168.385 235.576 168.491 235.408C168.722 235.047 169.071 234.53 169.538 233.869C170.478 232.555 171.917 230.718 173.823 228.55C177.66 224.24 183.035 218.373 188.952 211.87C194.888 205.392 200.263 199.531 204.169 195.264C206.112 193.165 207.694 191.459 208.809 190.257C209.351 189.684 209.774 189.235 210.08 188.905C210.217 188.762 210.329 188.65 210.416 188.562C210.491 188.488 210.534 188.45 210.54 188.45C210.54 188.45 210.509 188.5 210.441 188.581C210.36 188.681 210.254 188.799 210.129 188.949C209.83 189.285 209.419 189.752 208.902 190.338C207.806 191.558 206.255 193.284 204.337 195.414C200.444 199.699 195.1 205.579 189.189 212.082C183.259 218.559 177.896 224.427 173.991 228.7C172.066 230.842 170.603 232.655 169.631 233.944C169.151 234.592 168.784 235.096 168.541 235.445C168.429 235.607 168.336 235.732 168.261 235.838C168.199 235.925 168.161 235.968 168.155 235.962H168.161Z" fill="#263238"/>
<path d="M222.169 90.2005C222.705 91.004 234.739 92.3432 237.685 95.2831C240.631 98.223 270.055 120.696 270.055 120.696L249.096 148.967L235.548 145.984L222.169 90.2005Z" fill="#7051DD"/>
<path opacity="0.4" d="M266.505 117.986L242.979 147.622L249.089 148.967L270.049 120.696L266.505 117.986Z" fill="black"/>
<path d="M228.579 119.631C228.579 119.631 228.473 119.288 228.336 118.647C228.261 118.329 228.186 117.936 228.13 117.476C228.068 117.015 227.981 116.491 227.95 115.906C227.9 115.32 227.856 114.685 227.856 113.994C227.831 113.302 227.875 112.574 227.912 111.795C228.03 110.25 228.267 108.562 228.691 106.825C229.133 105.093 229.712 103.486 230.335 102.066C230.665 101.368 230.97 100.696 231.319 100.098C231.637 99.4874 231.979 98.9455 232.297 98.4534C232.596 97.9489 232.926 97.5316 233.194 97.1516C233.462 96.7717 233.711 96.4603 233.923 96.2111C234.34 95.7128 234.583 95.4388 234.602 95.4575C234.62 95.4699 234.415 95.7689 234.022 96.2921C233.823 96.5475 233.586 96.8714 233.337 97.2575C233.082 97.6437 232.777 98.0673 232.49 98.5718C232.191 99.0701 231.861 99.612 231.556 100.222C231.22 100.82 230.933 101.487 230.609 102.178C230.011 103.586 229.444 105.18 229.008 106.893C228.591 108.612 228.348 110.282 228.217 111.808C228.174 112.574 228.118 113.296 228.136 113.981C228.118 114.666 228.155 115.296 228.186 115.875C228.199 116.454 228.28 116.977 228.317 117.432C228.354 117.893 228.417 118.285 228.466 118.603C228.566 119.244 228.61 119.606 228.585 119.612L228.579 119.631Z" fill="#263238"/>
<path d="M237.996 142.851C237.915 142.888 236.751 140.31 235.393 137.102C234.035 133.894 233.007 131.266 233.088 131.228C233.169 131.191 234.334 133.763 235.692 136.977C237.043 140.185 238.077 142.813 237.996 142.851Z" fill="#263238"/>
<path d="M145.47 122.334C145.421 122.359 144.916 121.437 143.963 120.029C143.016 118.628 141.571 116.772 139.715 114.965C137.859 113.165 135.959 111.776 134.527 110.873C133.094 109.964 132.154 109.491 132.179 109.434C132.191 109.416 132.434 109.515 132.864 109.721C133.3 109.92 133.91 110.244 134.645 110.68C136.115 111.546 138.058 112.916 139.939 114.735C141.814 116.56 143.247 118.46 144.15 119.905C144.605 120.627 144.947 121.225 145.159 121.655C145.377 122.079 145.483 122.321 145.464 122.334H145.47Z" fill="#263238"/>
<path opacity="0.4" d="M109.488 152.499L110.933 148.967L150.74 159.805L149.164 164.234L109.488 152.499Z" fill="black"/>
<path d="M215.741 138.541H230.896V144.794L211.512 144.67C211.512 144.67 214.508 141.038 215.741 138.534V138.541Z" fill="#FAFAFA"/>
<g opacity="0.2">
<path d="M161.69 93.4706C162.238 98.3289 162.836 103.343 165.234 107.603C167.638 111.864 172.341 115.221 177.18 114.505C180.407 114.025 183.141 111.87 185.34 109.453C187.538 107.043 189.376 104.296 191.78 102.085C193.287 103.592 194.807 105.112 196.613 106.245C198.42 107.379 200.556 108.095 202.674 107.846C204.785 107.591 205.956 106.756 206.623 104.732C204.368 105.436 203.122 105.33 200.88 104.894C198.507 104.433 196.202 103.443 194.078 101.767C192.758 100.727 192.285 99.1635 190.603 99.2631C189.052 99.3503 187.837 100.584 186.816 101.748C185.252 103.536 183.272 105.479 181.416 106.955C179.553 108.432 177.741 109.428 175.361 109.378C171.444 109.291 168.23 106.214 166.068 102.944C164.081 99.9358 162.599 96.5911 161.715 93.0968" fill="black"/>
</g>
<path d="M207.557 87.4101C207.557 87.4101 207.588 87.5285 207.626 87.7589C207.657 87.9894 207.707 88.3257 207.744 88.7617C207.837 89.6337 207.931 90.9044 207.968 92.474C208.049 95.607 207.812 99.9732 206.803 104.67C206.797 104.701 206.791 104.738 206.785 104.769L206.766 104.869L206.666 104.894C204.312 105.479 201.951 105.274 199.958 104.719C197.953 104.165 196.265 103.299 194.988 102.39C193.711 101.481 192.801 100.577 192.272 99.8798C191.979 99.5559 191.817 99.2507 191.68 99.0638C191.556 98.8707 191.493 98.7711 191.5 98.7649C191.568 98.6963 192.527 100.459 195.112 102.203C196.383 103.075 198.058 103.903 200.033 104.433C201.995 104.962 204.299 105.149 206.585 104.582L206.467 104.707C206.473 104.676 206.479 104.645 206.486 104.607C207.489 99.9421 207.763 95.607 207.738 92.4864C207.731 90.9231 207.669 89.6587 207.619 88.7866C207.594 88.3818 207.576 88.0454 207.557 87.7776C207.545 87.5472 207.545 87.4226 207.557 87.4226V87.4101Z" fill="#263238"/>
<path d="M188.635 99.6992C188.635 99.6992 188.578 99.83 188.435 100.073C188.292 100.31 188.068 100.652 187.744 101.069C187.109 101.91 186.068 103.031 184.679 104.302C183.988 104.937 183.209 105.616 182.369 106.326C181.945 106.681 181.521 107.055 181.048 107.423C180.575 107.784 180.058 108.114 179.503 108.413C178.401 109.005 177.118 109.447 175.748 109.553C174.377 109.671 172.907 109.372 171.637 108.643C170.36 107.927 169.326 106.931 168.417 105.928C167.513 104.919 166.704 103.885 165.994 102.863C164.567 100.82 163.546 98.8085 162.817 97.0707C162.101 95.3267 161.671 93.863 161.422 92.8415C161.291 92.3307 161.21 91.9321 161.16 91.658C161.11 91.384 161.085 91.2407 161.098 91.2407C161.11 91.2407 161.154 91.3777 161.222 91.6456C161.291 91.9134 161.391 92.3058 161.54 92.8103C161.827 93.8131 162.288 95.2644 163.029 96.9773C163.776 98.6901 164.81 100.671 166.236 102.689C166.947 103.698 167.756 104.713 168.653 105.71C169.556 106.694 170.572 107.666 171.799 108.357C173.019 109.055 174.408 109.341 175.729 109.229C177.049 109.129 178.289 108.712 179.366 108.139C179.908 107.852 180.413 107.528 180.874 107.186C181.328 106.831 181.764 106.457 182.194 106.108C183.041 105.405 183.826 104.738 184.524 104.115C185.925 102.87 186.978 101.786 187.644 100.976C187.981 100.577 188.217 100.247 188.379 100.023C188.535 99.7988 188.622 99.6805 188.635 99.6867V99.6992Z" fill="#263238"/>
<path d="M175.218 171.266L180.02 164.271C180.02 164.271 183.322 152.792 182.873 151.191C182.425 149.59 180.967 143.605 181.31 143.536C181.652 143.468 185.246 142.128 187.196 146.924C188.41 149.914 188.809 153.844 188.934 156.392C189.002 157.731 190.235 158.69 191.55 158.416C194.869 157.737 200.394 156.697 201.702 157.008C203.608 157.463 205.315 159.899 205.483 160.708C205.651 161.518 204.331 163.362 204.331 163.362C204.331 163.362 205.95 164.19 206.448 165.442C206.517 165.61 206.573 165.778 206.623 165.94C206.94 166.962 206.673 168.07 205.956 168.862L205.452 169.416C205.452 169.416 207.47 169.97 207.719 171.129C207.968 172.287 207.65 173.682 207.65 173.682L205.757 175.638C205.757 175.638 206.641 176.423 206.741 177.494C206.841 178.566 203.994 181.2 203.994 181.2L191.78 185.579L186.934 186.812L175.218 171.266Z" fill="#B78876"/>
<path d="M204.374 163.368C204.387 163.461 202.481 163.804 200.145 164.283C197.803 164.757 195.916 165.187 195.891 165.093C195.878 165.05 196.339 164.888 197.093 164.676C197.847 164.464 198.906 164.202 200.076 163.966C201.247 163.729 202.319 163.555 203.104 163.455C203.882 163.355 204.368 163.324 204.374 163.368Z" fill="#AA6550"/>
<path d="M205.489 169.41C205.514 169.497 204.069 170.014 202.257 170.568C200.444 171.122 198.955 171.496 198.93 171.415C198.906 171.328 200.351 170.811 202.163 170.257C203.976 169.702 205.464 169.329 205.489 169.41Z" fill="#AA6550"/>
<path d="M206.218 175.37C206.255 175.451 204.717 176.205 202.786 177.046C200.855 177.893 199.261 178.51 199.223 178.429C199.186 178.348 200.724 177.594 202.655 176.753C204.586 175.906 206.181 175.289 206.218 175.37Z" fill="#AA6550"/>
<path d="M147.077 214.53L191.998 184.396L180.668 163.866L139.672 184.95L144.324 162.795L116.501 154.567L109.556 192.474C108.485 209.341 122.007 222.957 138.32 218.528C141.44 217.681 144.399 216.33 147.084 214.53H147.077Z" fill="#B78876"/>
<path d="M133.729 196.847C133.729 196.847 133.648 196.653 133.574 196.28C133.499 195.912 133.43 195.364 133.418 194.691C133.381 193.346 133.648 191.44 134.577 189.578C135.505 187.715 136.875 186.358 137.965 185.573C138.513 185.18 138.986 184.906 139.329 184.744C139.665 184.582 139.865 184.508 139.871 184.526C139.896 184.576 139.142 184.937 138.102 185.753C137.062 186.563 135.766 187.908 134.863 189.715C133.96 191.521 133.667 193.365 133.642 194.685C133.611 196.012 133.779 196.828 133.723 196.84L133.729 196.847Z" fill="#AA6550"/>
<path d="M249.089 148.967C249.37 148.587 281.079 167.902 281.079 167.902L291.244 214.212L305.875 219.581C305.875 219.581 310.441 168.046 306.965 160.023C303.49 152.001 268.255 123.144 268.255 123.144L249.089 148.974V148.967Z" fill="#B78876"/>
<path d="M288.006 164.346C288.074 164.389 287.046 165.797 285.259 166.937C283.477 168.089 281.771 168.444 281.758 168.363C281.727 168.264 283.353 167.784 285.078 166.663C286.816 165.554 287.931 164.277 288.006 164.346Z" fill="#AA6550"/>
<path d="M210.952 149.067L213.437 193.514L264.113 190.089L262.581 157.002L255.2 147.068L210.952 149.067Z" fill="#263238"/>
<path d="M199.429 194.505C199.584 195.358 203.882 235.613 203.882 235.613L279.304 230.369L292.067 228.662L286.181 191.172L277.162 189.017L199.422 194.505H199.429Z" fill="#FFA412"/>
<path opacity="0.4" d="M277.174 189.011L199.435 194.498C199.591 195.352 203.888 235.607 203.888 235.607L282.412 230.145L277.174 189.005V189.011Z" fill="black"/>
<path d="M256.514 190.599L213.437 193.514L210.952 149.067L255.2 147.068L256.514 190.599Z" fill="#455A64"/>
<path d="M227.015 148.344L227.925 162.041L230.229 160.721L231.506 162.041L233.094 160.721L235.548 162.041V147.958L227.015 148.344Z" fill="#263238"/>
<path d="M245.022 191.534L242.076 158.173L270.871 166.115L273.649 189.136L245.022 191.534Z" fill="#EAEAEA"/>
<path d="M270.871 166.115C270.871 166.115 270.815 166.202 270.69 166.351C270.547 166.526 270.36 166.738 270.136 167.005C269.619 167.597 268.903 168.413 268.018 169.422C266.168 171.496 263.608 174.368 260.656 177.675L260.544 177.799L260.425 177.675C259.198 176.386 257.872 175.003 256.508 173.57C252.515 169.347 248.896 165.529 246.249 162.726C244.966 161.35 243.92 160.222 243.166 159.413C242.823 159.039 242.549 158.734 242.338 158.503C242.151 158.292 242.057 158.179 242.064 158.173C242.07 158.167 242.182 158.267 242.381 158.46C242.605 158.684 242.892 158.97 243.253 159.332C244.026 160.123 245.097 161.225 246.411 162.571C249.077 165.355 252.714 169.148 256.738 173.346C258.102 174.779 259.423 176.168 260.65 177.463H260.419C263.403 174.187 265.994 171.347 267.862 169.291C268.778 168.307 269.513 167.51 270.049 166.937C270.292 166.681 270.485 166.476 270.64 166.314C270.777 166.177 270.852 166.102 270.858 166.108L270.871 166.115Z" fill="#263238"/>
<path d="M254.726 172.294C254.807 172.337 252.752 176.274 250.142 181.088C247.532 185.903 245.352 189.771 245.271 189.727C245.19 189.684 247.246 185.747 249.855 180.933C252.465 176.118 254.645 172.25 254.726 172.294Z" fill="#263238"/>
<path d="M272.976 189.136C272.901 189.179 270.902 185.99 268.516 182.016C266.131 178.036 264.262 174.772 264.337 174.729C264.412 174.685 266.411 177.868 268.797 181.848C271.182 185.828 273.051 189.092 272.976 189.136Z" fill="#263238"/>
<path d="M260.482 190.232L258.607 168.986L276.944 174.044L278.713 188.706L260.482 190.232Z" fill="#B6B6B6"/>
<path opacity="0.4" d="M260.482 190.232L258.607 168.986L276.944 174.044L278.713 188.706L260.482 190.232Z" fill="white"/>
<path d="M276.944 174.044C276.944 174.044 276.8 174.262 276.489 174.629C276.146 175.028 275.698 175.551 275.156 176.18C273.96 177.532 272.347 179.35 270.485 181.449L270.372 181.574L270.254 181.449C269.469 180.627 268.628 179.749 267.756 178.833C265.197 176.143 262.892 173.701 261.235 171.92C260.438 171.054 259.784 170.338 259.286 169.796C258.831 169.291 258.588 169.005 258.6 168.986C258.619 168.974 258.893 169.229 259.373 169.709C259.89 170.232 260.569 170.923 261.397 171.758C263.097 173.502 265.427 175.918 267.987 178.609C268.853 179.525 269.694 180.409 270.478 181.231H270.248C272.141 179.17 273.786 177.37 275.007 176.043C275.58 175.439 276.047 174.941 276.408 174.554C276.738 174.212 276.925 174.031 276.937 174.044H276.944Z" fill="#263238"/>
<path d="M266.66 177.98C266.741 178.024 265.458 180.54 263.795 183.611C262.132 186.675 260.718 189.129 260.643 189.086C260.562 189.042 261.846 186.526 263.509 183.455C265.172 180.391 266.579 177.936 266.66 177.98Z" fill="#263238"/>
<path d="M278.289 188.706C278.214 188.749 276.919 186.738 275.399 184.203C273.879 181.668 272.708 179.575 272.789 179.531C272.87 179.487 274.159 181.499 275.679 184.034C277.199 186.569 278.37 188.662 278.289 188.706Z" fill="#263238"/>
<path d="M272.173 173.147V174.853L274.851 175.165L274.994 173.863L272.173 173.147Z" fill="white"/>
<path d="M262.718 164.483V166.98L267.775 167.815L268.055 165.915L262.724 164.483H262.718Z" fill="white"/>
<path d="M242.979 203.96L242.73 191.534L232.652 192.213L233.736 204.832L242.979 203.96Z" fill="#CFCFCF"/>
<path d="M275.811 210.48L258.902 212.084L260.321 227.04L277.23 225.436L275.811 210.48Z" fill="#FAFAFA"/>
<path d="M277.218 225.455C277.218 225.455 277.199 225.355 277.174 225.168C277.149 224.963 277.118 224.695 277.081 224.358C277.006 223.63 276.894 222.608 276.757 221.313C276.489 218.684 276.115 214.972 275.661 210.506L275.81 210.631C270.939 211.098 265.134 211.658 258.906 212.256C258.874 212.294 259.18 211.92 259.049 212.082V212.094V212.113V212.144V212.206L259.068 212.331L259.092 212.586L259.142 213.091C259.173 213.427 259.205 213.763 259.236 214.1C259.298 214.766 259.36 215.433 259.423 216.087C259.547 217.401 259.665 218.69 259.784 219.942C260.014 222.452 260.239 224.832 260.444 227.03L260.288 226.9C265.302 226.451 269.507 226.077 272.49 225.816C273.96 225.691 275.131 225.592 275.953 225.523C276.339 225.492 276.645 225.467 276.881 225.455C277.093 225.442 277.205 225.436 277.211 225.442C277.211 225.442 277.118 225.461 276.919 225.486C276.694 225.511 276.396 225.548 276.022 225.585C275.206 225.673 274.047 225.797 272.596 225.947C269.594 226.246 265.365 226.675 260.319 227.186L260.176 227.199L260.164 227.055C259.952 224.857 259.722 222.477 259.479 219.967C259.36 218.715 259.236 217.426 259.111 216.112C259.049 215.458 258.987 214.791 258.924 214.125C258.893 213.788 258.862 213.452 258.831 213.116L258.781 212.611L258.756 212.356L258.744 212.231V212.169L258.737 212.138V212.119V212.113C258.607 212.269 258.912 211.889 258.887 211.932C265.116 211.353 270.921 210.811 275.798 210.356L275.935 210.344L275.947 210.481C276.346 214.984 276.676 218.734 276.912 221.387C277.018 222.67 277.106 223.686 277.162 224.408C277.187 224.732 277.205 224.994 277.218 225.193C277.23 225.367 277.23 225.455 277.224 225.455H277.218Z" fill="#263238"/>
<path d="M274.477 214.087C274.483 214.175 271.531 214.561 267.875 214.947C264.219 215.333 261.248 215.57 261.241 215.483C261.235 215.395 264.187 215.009 267.844 214.623C271.5 214.237 274.471 214 274.477 214.087Z" fill="#263238"/>
<path d="M274.377 216.622C274.384 216.666 273.692 216.847 272.559 217.071C271.425 217.295 269.849 217.557 268.099 217.762C266.349 217.968 264.754 218.08 263.596 218.117C262.443 218.161 261.727 218.142 261.721 218.099C261.721 218.049 262.431 217.986 263.577 217.887C264.723 217.787 266.311 217.638 268.055 217.438C269.799 217.233 271.375 217.009 272.515 216.84C273.655 216.672 274.365 216.573 274.371 216.616L274.377 216.622Z" fill="#263238"/>
<path d="M275.094 222.178C275.1 222.222 274.409 222.403 273.275 222.627C272.141 222.851 270.566 223.113 268.815 223.318C267.065 223.524 265.471 223.636 264.312 223.673C263.16 223.717 262.443 223.698 262.437 223.654C262.437 223.605 263.147 223.542 264.293 223.443C265.439 223.343 267.028 223.194 268.772 222.994C270.516 222.789 272.092 222.564 273.231 222.396C274.371 222.228 275.081 222.128 275.088 222.172L275.094 222.178Z" fill="#263238"/>
<path d="M274.24 219.332C274.253 219.419 271.494 219.886 268.074 220.378C264.655 220.864 261.877 221.188 261.864 221.101C261.852 221.014 264.611 220.546 268.03 220.054C271.45 219.568 274.228 219.245 274.24 219.332Z" fill="#263238"/>
<path d="M289.17 242.496C289.17 242.496 303.091 233.29 304.163 228.575C305.234 223.866 305.875 219.581 305.875 219.581L291.001 213.421L292.478 218.777C292.478 218.777 287.146 221.948 286.598 225.791C286.237 228.351 279.342 232.736 279.342 232.736C278.171 231.322 276.389 230.562 274.558 230.687L268.765 231.098L272.677 239.93L289.164 242.502L289.17 242.496Z" fill="#B78876"/>
<path d="M294.608 229.871C294.608 229.871 294.384 230.001 293.948 230.138C293.512 230.282 292.864 230.425 292.104 230.674C291.332 230.911 290.522 231.403 289.687 232.075C288.859 232.742 287.887 233.489 286.71 233.963C284.374 234.972 281.976 234.903 280.394 234.492C280.002 234.386 279.628 234.299 279.335 234.1C279.043 233.919 278.887 233.577 278.949 233.327C278.987 233.078 279.142 232.923 279.261 232.879C279.385 232.835 279.454 232.86 279.454 232.866C279.454 232.879 279.385 232.879 279.292 232.935C279.198 232.991 279.093 233.134 279.074 233.34C279.043 233.552 279.167 233.788 279.435 233.944C279.69 234.106 280.052 234.181 280.444 234.262C282.001 234.604 284.318 234.629 286.579 233.658C287.719 233.197 288.647 232.493 289.501 231.833C290.348 231.172 291.226 230.662 292.029 230.45C292.82 230.219 293.468 230.113 293.91 230.008C294.353 229.908 294.596 229.839 294.602 229.864L294.608 229.871Z" fill="#AA6550"/>
<path d="M284.966 237.015C284.941 237.058 284.25 236.654 283.066 236.161C281.883 235.676 280.183 235.14 278.239 234.959C277.753 234.91 277.274 234.891 276.813 234.885H276.726L276.682 234.81C275.823 233.452 274.838 232.424 274.091 231.752C273.344 231.073 272.839 230.724 272.87 230.687C272.883 230.674 273.02 230.743 273.256 230.886C273.493 231.035 273.829 231.272 274.228 231.59C275.025 232.231 276.053 233.253 276.95 234.629L276.819 234.555C277.292 234.561 277.778 234.573 278.277 234.629C280.263 234.816 281.989 235.395 283.166 235.943C283.758 236.211 284.212 236.479 284.518 236.672C284.823 236.872 284.985 236.99 284.972 237.009L284.966 237.015Z" fill="#AA6550"/>
<path d="M288.728 234.486C288.759 234.579 287.788 234.928 286.691 235.551C285.595 236.168 284.792 236.822 284.729 236.753C284.667 236.697 285.396 235.912 286.529 235.271C287.663 234.623 288.709 234.405 288.728 234.486Z" fill="#AA6550"/>
<path d="M296.265 217.924C296.252 218.024 295.299 217.906 294.184 218.205C293.069 218.485 292.291 219.058 292.235 218.977C292.173 218.921 292.908 218.198 294.103 217.887C295.299 217.569 296.29 217.843 296.265 217.924Z" fill="#AA6550"/>
<path d="M93.1937 212.605C95.0312 214.785 98.1206 213.732 99.4597 212.181C100.799 210.63 101.235 208.519 101.627 206.507C102.518 201.91 103.396 197.096 102.032 192.617C101.621 191.278 100.992 189.964 99.9455 189.036C98.8991 188.108 97.3669 187.641 96.0527 188.114C94.4955 188.681 93.6422 190.331 93.0629 191.876C91.3501 196.429 90.6649 201.375 91.0822 206.221C91.2753 208.488 91.7549 210.836 93.2 212.592" fill="#5EDA88"/>
<g opacity="0.2">
<path d="M93.1937 212.605C95.0312 214.785 98.1206 213.732 99.4597 212.181C100.799 210.63 101.235 208.519 101.627 206.507C102.518 201.91 103.396 197.096 102.032 192.617C101.621 191.278 100.992 189.964 99.9455 189.036C98.8991 188.108 97.3669 187.641 96.0527 188.114C94.4955 188.681 93.6422 190.331 93.0629 191.876C91.3501 196.429 90.6649 201.375 91.0822 206.221C91.2753 208.488 91.7549 210.836 93.2 212.592" fill="black"/>
</g>
<path d="M100.338 223.835C102.879 222.222 105.994 221.767 108.996 221.991C110.609 222.11 112.303 222.44 113.493 223.536C114.682 224.632 115.069 226.713 113.923 227.846C113.237 228.519 112.216 228.706 111.257 228.781C108.94 228.961 106.336 228.781 104.617 230.338C103.633 231.228 103.047 232.611 101.827 233.109C100.631 233.601 99.1733 232.997 98.4196 231.945C97.6659 230.892 97.5227 229.503 97.7158 228.22C97.7158 228.22 97.7905 225.454 100.35 223.835H100.338Z" fill="#5EDA88"/>
<path d="M89.0206 216.342C90.6027 214.087 90.665 210.998 89.6435 208.444C88.622 205.89 86.6475 203.81 84.4364 202.172C81.8453 200.247 78.8742 198.833 75.7475 198.036C74.5142 197.725 73.2249 197.507 71.9792 197.737C70.7335 197.968 69.5189 198.728 69.033 199.899C68.3105 201.63 69.3258 203.567 70.3722 205.124C72.2159 207.871 74.2775 210.475 76.5323 212.898C78.3448 214.847 80.3878 216.747 82.954 217.476C85.5139 218.198 88.0801 217.862 89.2386 216.024" fill="#5EDA88"/>
<path d="M96.2146 247.678C96.2146 247.678 96.2582 247.298 96.2645 246.607C96.2645 245.834 96.2769 244.857 96.2894 243.698C96.3143 242.471 96.3641 241.014 96.5572 239.413C96.7503 237.812 97.124 236.068 97.6472 234.287C98.1953 232.511 98.9054 230.88 99.7898 229.547C100.668 228.208 101.739 227.198 102.773 226.582C103.801 225.953 104.754 225.648 105.408 225.492C106.075 225.361 106.448 225.274 106.448 225.243C106.448 225.212 106.068 225.243 105.377 225.324C104.698 225.43 103.701 225.697 102.611 226.314C101.515 226.918 100.382 227.952 99.4535 229.316C98.5192 230.68 97.778 232.35 97.2237 234.156C96.6942 235.968 96.3267 237.731 96.1523 239.363C95.9779 240.989 95.9593 242.465 95.9717 243.692C95.9904 244.925 96.0465 245.915 96.0901 246.607C96.1337 247.292 96.1773 247.672 96.2084 247.672L96.2146 247.678Z" fill="#263238"/>
<path d="M96.2147 245.442C96.2147 245.442 96.2209 245.268 96.2022 244.95C96.1711 244.583 96.1275 244.115 96.0714 243.549C95.9593 242.334 95.8036 240.571 95.6728 238.391C95.3925 234.037 95.2305 228.002 95.3613 221.344C95.4984 214.679 95.9344 208.662 96.4327 204.327C96.5448 203.243 96.6693 202.259 96.7877 201.406C96.8998 200.546 96.9932 199.805 97.0991 199.201C97.1801 198.634 97.2486 198.173 97.3047 197.812C97.3483 197.494 97.3607 197.326 97.3483 197.32C97.3358 197.32 97.2922 197.482 97.2175 197.793C97.1427 198.155 97.0493 198.609 96.9309 199.17C96.8001 199.768 96.6818 200.509 96.5448 201.362C96.4015 202.222 96.252 203.2 96.1212 204.284C95.542 208.619 95.0561 214.654 94.9191 221.331C94.7883 228.002 94.9939 234.05 95.3551 238.41C95.5233 240.59 95.7288 242.353 95.8908 243.561C95.978 244.128 96.0465 244.589 96.1025 244.956C96.1586 245.274 96.1897 245.442 96.2084 245.436L96.2147 245.442Z" fill="#263238"/>
<path d="M95.2056 233.832C95.2056 233.832 95.1869 233.309 95.0623 232.368C94.9253 231.434 94.6761 230.082 94.2588 228.444C93.8291 226.806 93.2623 224.869 92.4525 222.782C91.674 220.683 90.6587 218.435 89.4254 216.161C86.9963 211.583 83.9256 207.94 81.3407 205.747C80.7303 205.155 80.0701 204.751 79.5344 204.346C79.2604 204.153 79.0112 203.953 78.7683 203.804C78.5192 203.667 78.2949 203.536 78.0832 203.418C77.2548 202.957 76.7938 202.714 76.7814 202.739C76.7191 202.838 78.6313 203.748 81.1414 205.984C83.6453 208.214 86.635 211.839 89.0455 216.373C90.2725 218.628 91.2878 220.852 92.0788 222.932C92.901 225 93.4989 226.912 93.9599 228.531C94.4083 230.151 94.7073 231.484 94.8941 232.406C95.0623 233.334 95.1744 233.844 95.2056 233.838V233.832Z" fill="#263238"/>
</g>
<defs>
<clipPath id="clip0_9_2231">
<rect width="275.827" height="247.73" fill="white" transform="translate(62.5864 0.13501)"/>
</clipPath>
</defs>
</svg>
